STARTFONT 2.1
FONT -cmvnd-lemon-medium-r-normal--10-110-75-75-m-50-ISO10646-1
SIZE 10 75 75
FONTBOUNDINGBOX 10 12 -2 -3
COMMENT "Generated by fontforge, http://fontforge.sourceforge.net"
STARTPROPERTIES 26
FONTNAME_REGISTRY ""
FOUNDRY "cmvnd"
FAMILY_NAME "lemon"
WEIGHT_NAME "medium"
SLANT "r"
SETWIDTH_NAME "normal"
ADD_STYLE_NAME ""
PIXEL_SIZE 10
POINT_SIZE 110
RESOLUTION_X 75
RESOLUTION_Y 75
SPACING "m"
AVERAGE_WIDTH 50
CHARSET_REGISTRY "ISO10646"
CHARSET_ENCODING "1"
COPYRIGHT "artwiz, fixed by aleczapka, improved by cmvnd"
FACE_NAME "lemon"
WEIGHT 10
X_HEIGHT 6
QUAD_WIDTH 5
_ORIGINAL_FONT_NAME "lime"
_GBDFED_INFO "Edited with gbdfed 1.6."
CHARSET_COLLECTIONS "ASCII ISOLatin1Encoding ISO8859-2 ISO8859-5 ISO8859-7 ISO8859-9 ISO8859-4 Symbol ISO10646-1"
DEFAULT_CHAR 65533
FONT_DESCENT 2
FONT_ASCENT 8
ENDPROPERTIES
CHARS 3177
STARTCHAR char32
ENCODING 32
SWIDTH 500 0
DWIDTH 5 0
BBX 1 1 0 0
BITMAP
00
ENDCHAR
STARTCHAR uni0021
ENCODING 33
SWIDTH 500 0
DWIDTH 5 0
BBX 1 6 2 0
BITMAP
80
80
80
80
00
80
ENDCHAR
STARTCHAR uni0022
ENCODING 34
SWIDTH 500 0
DWIDTH 5 0
BBX 3 3 1 4
BITMAP
A0
A0
A0
ENDCHAR
STARTCHAR uni0023
ENCODING 35
SWIDTH 500 0
DWIDTH 5 0
BBX 5 5 0 0
BITMAP
50
D8
50
D8
50
ENDCHAR
STARTCHAR dollar
ENCODING 36
SWIDTH 500 0
DWIDTH 5 0
BBX 4 7 1 0
BITMAP
20
70
80
60
10
E0
20
ENDCHAR
STARTCHAR uni0025
ENCODING 37
SWIDTH 500 0
DWIDTH 5 0
BBX 4 6 1 0
BITMAP
C0
D0
20
40
B0
30
ENDCHAR
STARTCHAR uni0026
ENCODING 38
SWIDTH 500 0
DWIDTH 5 0
BBX 5 6 0 0
BITMAP
40
A0
40
A8
90
68
ENDCHAR
STARTCHAR uni0027
ENCODING 39
SWIDTH 500 0
DWIDTH 5 0
BBX 1 3 2 4
BITMAP
80
80
80
ENDCHAR
STARTCHAR uni0028
ENCODING 40
SWIDTH 500 0
DWIDTH 5 0
BBX 3 8 2 -1
BITMAP
20
40
80
80
80
80
40
20
ENDCHAR
STARTCHAR parenright
ENCODING 41
SWIDTH 500 0
DWIDTH 5 0
BBX 3 8 2 -1
BITMAP
80
40
20
20
20
20
40
80
ENDCHAR
STARTCHAR uni002A
ENCODING 42
SWIDTH 500 0
DWIDTH 5 0
BBX 4 5 1 0
BITMAP
90
60
F0
60
90
ENDCHAR
STARTCHAR uni002B
ENCODING 43
SWIDTH 500 0
DWIDTH 5 0
BBX 5 5 0 1
BITMAP
20
20
F8
20
20
ENDCHAR
STARTCHAR uni002C
ENCODING 44
SWIDTH 500 0
DWIDTH 5 0
BBX 2 3 1 -1
BITMAP
40
40
80
ENDCHAR
STARTCHAR uni002D
ENCODING 45
SWIDTH 500 0
DWIDTH 5 0
BBX 4 1 1 3
BITMAP
F0
ENDCHAR
STARTCHAR uni002E
ENCODING 46
SWIDTH 500 0
DWIDTH 5 0
BBX 1 2 2 0
BITMAP
80
80
ENDCHAR
STARTCHAR uni002F
ENCODING 47
SWIDTH 500 0
DWIDTH 5 0
BBX 4 8 1 -1
BITMAP
10
10
20
20
40
40
80
80
ENDCHAR
STARTCHAR uni0030
ENCODING 48
SWIDTH 500 0
DWIDTH 5 0
BBX 4 6 1 0
BITMAP
60
90
D0
B0
90
60
ENDCHAR
STARTCHAR uni0031
ENCODING 49
SWIDTH 500 0
DWIDTH 5 0
BBX 2 6 1 0
BITMAP
40
C0
40
40
40
40
ENDCHAR
STARTCHAR uni0032
ENCODING 50
SWIDTH 500 0
DWIDTH 5 0
BBX 4 6 1 0
BITMAP
E0
10
10
60
80
F0
ENDCHAR
STARTCHAR uni0033
ENCODING 51
SWIDTH 500 0
DWIDTH 5 0
BBX 4 6 1 0
BITMAP
E0
10
60
10
10
E0
ENDCHAR
STARTCHAR uni0034
ENCODING 52
SWIDTH 500 0
DWIDTH 5 0
BBX 4 6 1 0
BITMAP
90
90
90
70
10
10
ENDCHAR
STARTCHAR uni0035
ENCODING 53
SWIDTH 500 0
DWIDTH 5 0
BBX 4 6 1 0
BITMAP
F0
80
E0
10
10
E0
ENDCHAR
STARTCHAR uni0036
ENCODING 54
SWIDTH 500 0
DWIDTH 5 0
BBX 4 6 1 0
BITMAP
60
80
E0
90
90
60
ENDCHAR
STARTCHAR uni0037
ENCODING 55
SWIDTH 500 0
DWIDTH 5 0
BBX 4 6 1 0
BITMAP
F0
10
20
20
40
40
ENDCHAR
STARTCHAR uni0038
ENCODING 56
SWIDTH 500 0
DWIDTH 5 0
BBX 4 6 1 0
BITMAP
60
90
60
90
90
60
ENDCHAR
STARTCHAR uni0039
ENCODING 57
SWIDTH 500 0
DWIDTH 5 0
BBX 4 6 1 0
BITMAP
60
90
90
70
10
60
ENDCHAR
STARTCHAR uni003A
ENCODING 58
SWIDTH 500 0
DWIDTH 5 0
BBX 1 5 2 0
BITMAP
80
80
00
80
80
ENDCHAR
STARTCHAR uni003B
ENCODING 59
SWIDTH 500 0
DWIDTH 5 0
BBX 2 6 1 -1
BITMAP
40
40
00
40
40
80
ENDCHAR
STARTCHAR uni003C
ENCODING 60
SWIDTH 500 0
DWIDTH 5 0
BBX 3 5 1 0
BITMAP
20
40
80
40
20
ENDCHAR
STARTCHAR uni003D
ENCODING 61
SWIDTH 500 0
DWIDTH 5 0
BBX 3 3 1 2
BITMAP
E0
00
E0
ENDCHAR
STARTCHAR uni003E
ENCODING 62
SWIDTH 500 0
DWIDTH 5 0
BBX 3 5 2 0
BITMAP
80
40
20
40
80
ENDCHAR
STARTCHAR uni003F
ENCODING 63
SWIDTH 500 0
DWIDTH 5 0
BBX 3 6 1 0
BITMAP
E0
A0
20
40
00
40
ENDCHAR
STARTCHAR uni0040
ENCODING 64
SWIDTH 500 0
DWIDTH 5 0
BBX 4 6 1 0
BITMAP
60
90
B0
B0
80
70
ENDCHAR
STARTCHAR uni0041
ENCODING 65
SWIDTH 500 0
DWIDTH 5 0
BBX 4 6 1 0
BITMAP
60
90
90
F0
90
90
ENDCHAR
STARTCHAR uni0042
ENCODING 66
SWIDTH 500 0
DWIDTH 5 0
BBX 4 6 1 0
BITMAP
E0
90
E0
90
90
E0
ENDCHAR
STARTCHAR uni0043
ENCODING 67
SWIDTH 500 0
DWIDTH 5 0
BBX 4 6 1 0
BITMAP
70
80
80
80
80
70
ENDCHAR
STARTCHAR uni0044
ENCODING 68
SWIDTH 500 0
DWIDTH 5 0
BBX 4 6 1 0
BITMAP
E0
90
90
90
90
E0
ENDCHAR
STARTCHAR uni0045
ENCODING 69
SWIDTH 500 0
DWIDTH 5 0
BBX 4 6 1 0
BITMAP
F0
80
E0
80
80
F0
ENDCHAR
STARTCHAR uni0046
ENCODING 70
SWIDTH 500 0
DWIDTH 5 0
BBX 4 6 1 0
BITMAP
F0
80
E0
80
80
80
ENDCHAR
STARTCHAR uni0047
ENCODING 71
SWIDTH 500 0
DWIDTH 5 0
BBX 4 6 1 0
BITMAP
70
80
80
B0
90
70
ENDCHAR
STARTCHAR uni0048
ENCODING 72
SWIDTH 500 0
DWIDTH 5 0
BBX 4 6 1 0
BITMAP
90
90
F0
90
90
90
ENDCHAR
STARTCHAR uni0049
ENCODING 73
SWIDTH 500 0
DWIDTH 5 0
BBX 3 6 1 0
BITMAP
E0
40
40
40
40
E0
ENDCHAR
STARTCHAR uni004A
ENCODING 74
SWIDTH 500 0
DWIDTH 5 0
BBX 4 6 1 0
BITMAP
70
10
10
10
90
60
ENDCHAR
STARTCHAR uni004B
ENCODING 75
SWIDTH 500 0
DWIDTH 5 0
BBX 4 6 1 0
BITMAP
90
A0
C0
A0
90
90
ENDCHAR
STARTCHAR uni004C
ENCODING 76
SWIDTH 500 0
DWIDTH 5 0
BBX 4 6 1 0
BITMAP
80
80
80
80
80
F0
ENDCHAR
STARTCHAR uni004D
ENCODING 77
SWIDTH 500 0
DWIDTH 5 0
BBX 4 6 1 0
BITMAP
90
F0
F0
90
90
90
ENDCHAR
STARTCHAR uni004E
ENCODING 78
SWIDTH 500 0
DWIDTH 5 0
BBX 4 6 1 0
BITMAP
90
D0
D0
B0
B0
90
ENDCHAR
STARTCHAR uni004F
ENCODING 79
SWIDTH 500 0
DWIDTH 5 0
BBX 4 6 1 0
BITMAP
60
90
90
90
90
60
ENDCHAR
STARTCHAR uni0050
ENCODING 80
SWIDTH 500 0
DWIDTH 5 0
BBX 4 6 1 0
BITMAP
E0
90
90
E0
80
80
ENDCHAR
STARTCHAR uni0051
ENCODING 81
SWIDTH 500 0
DWIDTH 5 0
BBX 4 7 1 -1
BITMAP
60
90
90
90
90
60
30
ENDCHAR
STARTCHAR uni0052
ENCODING 82
SWIDTH 500 0
DWIDTH 5 0
BBX 4 6 1 0
BITMAP
E0
90
90
E0
90
90
ENDCHAR
STARTCHAR uni0053
ENCODING 83
SWIDTH 500 0
DWIDTH 5 0
BBX 4 6 1 0
BITMAP
70
80
60
10
10
E0
ENDCHAR
STARTCHAR uni0054
ENCODING 84
SWIDTH 500 0
DWIDTH 5 0
BBX 5 6 0 0
BITMAP
F8
20
20
20
20
20
ENDCHAR
STARTCHAR uni0055
ENCODING 85
SWIDTH 500 0
DWIDTH 5 0
BBX 4 6 1 0
BITMAP
90
90
90
90
90
70
ENDCHAR
STARTCHAR uni0056
ENCODING 86
SWIDTH 500 0
DWIDTH 5 0
BBX 4 6 1 0
BITMAP
90
90
90
60
60
60
ENDCHAR
STARTCHAR uni0057
ENCODING 87
SWIDTH 500 0
DWIDTH 5 0
BBX 4 6 1 0
BITMAP
90
90
90
F0
F0
90
ENDCHAR
STARTCHAR X
ENCODING 88
SWIDTH 500 0
DWIDTH 5 0
BBX 4 6 1 0
BITMAP
90
90
60
90
90
90
ENDCHAR
STARTCHAR uni0059
ENCODING 89
SWIDTH 500 0
DWIDTH 5 0
BBX 5 6 0 0
BITMAP
88
50
20
20
20
20
ENDCHAR
STARTCHAR Z
ENCODING 90
SWIDTH 500 0
DWIDTH 5 0
BBX 4 6 1 0
BITMAP
F0
10
20
40
80
F0
ENDCHAR
STARTCHAR uni005B
ENCODING 91
SWIDTH 500 0
DWIDTH 5 0
BBX 3 8 1 -1
BITMAP
E0
80
80
80
80
80
80
E0
ENDCHAR
STARTCHAR uni005C
ENCODING 92
SWIDTH 500 0
DWIDTH 5 0
BBX 4 8 1 -1
BITMAP
80
80
40
40
20
20
10
10
ENDCHAR
STARTCHAR uni005D
ENCODING 93
SWIDTH 500 0
DWIDTH 5 0
BBX 3 8 1 -1
BITMAP
E0
20
20
20
20
20
20
E0
ENDCHAR
STARTCHAR uni005E
ENCODING 94
SWIDTH 500 0
DWIDTH 5 0
BBX 5 3 0 4
BITMAP
20
50
88
ENDCHAR
STARTCHAR uni005F
ENCODING 95
SWIDTH 500 0
DWIDTH 5 0
BBX 4 1 1 -1
BITMAP
F0
ENDCHAR
STARTCHAR uni0060
ENCODING 96
SWIDTH 500 0
DWIDTH 5 0
BBX 2 3 2 4
BITMAP
80
80
40
ENDCHAR
STARTCHAR uni0061
ENCODING 97
SWIDTH 500 0
DWIDTH 5 0
BBX 4 5 1 0
BITMAP
70
90
90
B0
50
ENDCHAR
STARTCHAR uni0062
ENCODING 98
SWIDTH 500 0
DWIDTH 5 0
BBX 4 7 1 0
BITMAP
80
80
E0
90
90
90
E0
ENDCHAR
STARTCHAR uni0063
ENCODING 99
SWIDTH 500 0
DWIDTH 5 0
BBX 4 5 1 0
BITMAP
70
80
80
80
70
ENDCHAR
STARTCHAR uni0064
ENCODING 100
SWIDTH 500 0
DWIDTH 5 0
BBX 4 7 1 0
BITMAP
10
10
70
90
90
B0
50
ENDCHAR
STARTCHAR uni0065
ENCODING 101
SWIDTH 500 0
DWIDTH 5 0
BBX 4 5 1 0
BITMAP
60
90
F0
80
70
ENDCHAR
STARTCHAR uni0066
ENCODING 102
SWIDTH 500 0
DWIDTH 5 0
BBX 3 7 2 0
BITMAP
60
80
E0
80
80
80
80
ENDCHAR
STARTCHAR uni0067
ENCODING 103
SWIDTH 500 0
DWIDTH 5 0
BBX 4 7 1 -2
BITMAP
70
90
90
B0
50
10
60
ENDCHAR
STARTCHAR uni0068
ENCODING 104
SWIDTH 500 0
DWIDTH 5 0
BBX 4 7 1 0
BITMAP
80
80
E0
90
90
90
90
ENDCHAR
STARTCHAR uni0069
ENCODING 105
SWIDTH 500 0
DWIDTH 5 0
BBX 2 7 2 0
BITMAP
40
00
C0
40
40
40
40
ENDCHAR
STARTCHAR uni006A
ENCODING 106
SWIDTH 500 0
DWIDTH 5 0
BBX 3 9 1 -2
BITMAP
20
00
60
20
20
20
20
20
C0
ENDCHAR
STARTCHAR uni006B
ENCODING 107
SWIDTH 500 0
DWIDTH 5 0
BBX 4 7 1 0
BITMAP
80
80
90
A0
E0
90
90
ENDCHAR
STARTCHAR uni006C
ENCODING 108
SWIDTH 500 0
DWIDTH 5 0
BBX 2 7 2 0
BITMAP
C0
40
40
40
40
40
40
ENDCHAR
STARTCHAR uni006D
ENCODING 109
SWIDTH 500 0
DWIDTH 5 0
BBX 4 5 1 0
BITMAP
90
F0
B0
90
90
ENDCHAR
STARTCHAR uni006E
ENCODING 110
SWIDTH 500 0
DWIDTH 5 0
BBX 4 5 1 0
BITMAP
E0
90
90
90
90
ENDCHAR
STARTCHAR uni006F
ENCODING 111
SWIDTH 500 0
DWIDTH 5 0
BBX 4 5 1 0
BITMAP
60
90
90
90
60
ENDCHAR
STARTCHAR uni0070
ENCODING 112
SWIDTH 500 0
DWIDTH 5 0
BBX 4 7 1 -2
BITMAP
E0
90
90
90
E0
80
80
ENDCHAR
STARTCHAR uni0071
ENCODING 113
SWIDTH 500 0
DWIDTH 5 0
BBX 4 7 1 -2
BITMAP
70
90
90
90
70
10
10
ENDCHAR
STARTCHAR uni0072
ENCODING 114
SWIDTH 500 0
DWIDTH 5 0
BBX 4 5 1 0
BITMAP
B0
C0
80
80
80
ENDCHAR
STARTCHAR uni0073
ENCODING 115
SWIDTH 500 0
DWIDTH 5 0
BBX 4 5 1 0
BITMAP
70
80
60
10
E0
ENDCHAR
STARTCHAR uni0074
ENCODING 116
SWIDTH 500 0
DWIDTH 5 0
BBX 3 6 1 0
BITMAP
40
E0
40
40
40
20
ENDCHAR
STARTCHAR uni0075
ENCODING 117
SWIDTH 500 0
DWIDTH 5 0
BBX 4 5 1 0
BITMAP
90
90
90
90
70
ENDCHAR
STARTCHAR uni0076
ENCODING 118
SWIDTH 500 0
DWIDTH 5 0
BBX 4 5 1 0
BITMAP
90
90
90
60
60
ENDCHAR
STARTCHAR uni0077
ENCODING 119
SWIDTH 500 0
DWIDTH 5 0
BBX 4 5 1 0
BITMAP
90
90
90
F0
90
ENDCHAR
STARTCHAR uni0078
ENCODING 120
SWIDTH 500 0
DWIDTH 5 0
BBX 4 5 1 0
BITMAP
90
90
60
90
90
ENDCHAR
STARTCHAR uni0079
ENCODING 121
SWIDTH 500 0
DWIDTH 5 0
BBX 4 7 1 -2
BITMAP
90
90
90
90
70
10
60
ENDCHAR
STARTCHAR uni007A
ENCODING 122
SWIDTH 500 0
DWIDTH 5 0
BBX 4 5 1 0
BITMAP
F0
20
40
80
F0
ENDCHAR
STARTCHAR uni007B
ENCODING 123
SWIDTH 500 0
DWIDTH 5 0
BBX 3 8 1 -1
BITMAP
20
40
40
C0
C0
40
40
20
ENDCHAR
STARTCHAR bar
ENCODING 124
SWIDTH 500 0
DWIDTH 5 0
BBX 1 8 2 -1
BITMAP
80
80
80
80
80
80
80
80
ENDCHAR
STARTCHAR uni007D
ENCODING 125
SWIDTH 500 0
DWIDTH 5 0
BBX 3 8 2 -1
BITMAP
80
40
40
60
60
40
40
80
ENDCHAR
STARTCHAR uni007E
ENCODING 126
SWIDTH 500 0
DWIDTH 5 0
BBX 5 4 0 1
BITMAP
40
A8
A8
10
ENDCHAR
STARTCHAR char149
ENCODING 149
SWIDTH 500 0
DWIDTH 5 0
BBX 4 4 1 0
BITMAP
60
F0
F0
60
ENDCHAR
STARTCHAR char161
ENCODING 161
SWIDTH 500 0
DWIDTH 5 0
BBX 1 6 2 0
BITMAP
80
00
80
80
80
80
ENDCHAR
STARTCHAR char162
ENCODING 162
SWIDTH 500 0
DWIDTH 5 0
BBX 4 7 0 -1
BITMAP
10
70
A0
A0
A0
70
40
ENDCHAR
STARTCHAR char163
ENCODING 163
SWIDTH 500 0
DWIDTH 5 0
BBX 5 7 0 0
BITMAP
30
40
40
E0
40
48
F0
ENDCHAR
STARTCHAR char164
ENCODING 164
SWIDTH 500 0
DWIDTH 5 0
BBX 5 6 0 0
BITMAP
88
70
50
50
70
88
ENDCHAR
STARTCHAR char165
ENCODING 165
SWIDTH 500 0
DWIDTH 5 0
BBX 5 7 0 0
BITMAP
88
50
20
70
20
70
20
ENDCHAR
STARTCHAR char166
ENCODING 166
SWIDTH 500 0
DWIDTH 5 0
BBX 1 7 2 -1
BITMAP
80
80
80
00
80
80
80
ENDCHAR
STARTCHAR char167
ENCODING 167
SWIDTH 500 0
DWIDTH 5 0
BBX 4 8 0 -1
BITMAP
30
40
60
90
90
60
20
C0
ENDCHAR
STARTCHAR char168
ENCODING 168
SWIDTH 500 0
DWIDTH 5 0
BBX 3 1 1 5
BITMAP
A0
ENDCHAR
STARTCHAR char169
ENCODING 169
SWIDTH 500 0
DWIDTH 5 0
BBX 6 7 0 0
BITMAP
78
84
B4
A4
B4
84
78
ENDCHAR
STARTCHAR char170
ENCODING 170
SWIDTH 500 0
DWIDTH 5 0
BBX 4 4 1 2
BITMAP
70
90
90
70
ENDCHAR
STARTCHAR char171
ENCODING 171
SWIDTH 500 0
DWIDTH 5 0
BBX 4 3 1 2
BITMAP
50
A0
50
ENDCHAR
STARTCHAR char172
ENCODING 172
SWIDTH 500 0
DWIDTH 5 0
BBX 5 3 0 1
BITMAP
F8
08
08
ENDCHAR
STARTCHAR SOFT
ENCODING 173
SWIDTH 500 0
DWIDTH 5 0
BBX 3 1 1 2
BITMAP
E0
ENDCHAR
STARTCHAR char174
ENCODING 174
SWIDTH 500 0
DWIDTH 5 0
BBX 6 7 0 0
BITMAP
78
84
BC
B4
AC
84
78
ENDCHAR
STARTCHAR char175
ENCODING 175
SWIDTH 500 0
DWIDTH 5 0
BBX 3 1 1 6
BITMAP
E0
ENDCHAR
STARTCHAR char176
ENCODING 176
SWIDTH 500 0
DWIDTH 5 0
BBX 3 3 1 3
BITMAP
40
A0
40
ENDCHAR
STARTCHAR char177
ENCODING 177
SWIDTH 500 0
DWIDTH 5 0
BBX 3 5 1 0
BITMAP
40
E0
40
00
E0
ENDCHAR
STARTCHAR char178
ENCODING 178
SWIDTH 500 0
DWIDTH 5 0
BBX 3 5 1 2
BITMAP
C0
20
40
80
E0
ENDCHAR
STARTCHAR char179
ENCODING 179
SWIDTH 500 0
DWIDTH 5 0
BBX 3 5 1 2
BITMAP
C0
20
C0
20
C0
ENDCHAR
STARTCHAR char180
ENCODING 180
SWIDTH 500 0
DWIDTH 5 0
BBX 2 2 1 6
BITMAP
40
80
ENDCHAR
STARTCHAR char181
ENCODING 181
SWIDTH 500 0
DWIDTH 5 0
BBX 4 6 1 -1
BITMAP
90
90
90
90
E0
80
ENDCHAR
STARTCHAR char182
ENCODING 182
SWIDTH 500 0
DWIDTH 5 0
BBX 5 6 0 0
BITMAP
78
A8
A8
68
28
28
ENDCHAR
STARTCHAR char183
ENCODING 183
SWIDTH 500 0
DWIDTH 5 0
BBX 2 2 2 2
BITMAP
C0
C0
ENDCHAR
STARTCHAR char184
ENCODING 184
SWIDTH 500 0
DWIDTH 5 0
BBX 3 3 1 1
BITMAP
40
20
E0
ENDCHAR
STARTCHAR char185
ENCODING 185
SWIDTH 500 0
DWIDTH 5 0
BBX 2 4 1 2
BITMAP
40
C0
40
40
ENDCHAR
STARTCHAR char186
ENCODING 186
SWIDTH 500 0
DWIDTH 5 0
BBX 4 4 0 4
BITMAP
60
90
90
60
ENDCHAR
STARTCHAR char187
ENCODING 187
SWIDTH 500 0
DWIDTH 5 0
BBX 4 3 1 2
BITMAP
A0
50
A0
ENDCHAR
STARTCHAR char188
ENCODING 188
SWIDTH 500 0
DWIDTH 5 0
BBX 5 8 1 0
BITMAP
40
C0
40
50
30
50
78
10
ENDCHAR
STARTCHAR char189
ENCODING 189
SWIDTH 500 0
DWIDTH 5 0
BBX 5 7 1 1
BITMAP
40
C0
40
70
08
10
38
ENDCHAR
STARTCHAR char190
ENCODING 190
SWIDTH 500 0
DWIDTH 5 0
BBX 6 8 0 0
BITMAP
C0
20
40
28
D8
28
3C
08
ENDCHAR
STARTCHAR char191
ENCODING 191
SWIDTH 500 0
DWIDTH 5 0
BBX 3 6 2 0
BITMAP
40
00
40
80
A0
E0
ENDCHAR
STARTCHAR char192
ENCODING 192
SWIDTH 500 0
DWIDTH 5 0
BBX 4 8 1 0
BITMAP
40
20
60
90
90
F0
90
90
ENDCHAR
STARTCHAR char193
ENCODING 193
SWIDTH 500 0
DWIDTH 5 0
BBX 4 8 1 0
BITMAP
20
40
60
90
90
F0
90
90
ENDCHAR
STARTCHAR char194
ENCODING 194
SWIDTH 500 0
DWIDTH 5 0
BBX 4 9 1 0
BITMAP
20
50
00
60
90
90
F0
90
90
ENDCHAR
STARTCHAR char195
ENCODING 195
SWIDTH 500 0
DWIDTH 5 0
BBX 4 8 1 0
BITMAP
50
A0
60
90
90
F0
90
90
ENDCHAR
STARTCHAR char196
ENCODING 196
SWIDTH 500 0
DWIDTH 5 0
BBX 4 8 1 0
BITMAP
90
00
60
90
90
F0
90
90
ENDCHAR
STARTCHAR char197
ENCODING 197
SWIDTH 500 0
DWIDTH 5 0
BBX 4 8 1 0
BITMAP
60
90
60
90
90
F0
90
90
ENDCHAR
STARTCHAR char198
ENCODING 198
SWIDTH 500 0
DWIDTH 5 0
BBX 6 6 0 0
BITMAP
7C
90
98
F0
90
9C
ENDCHAR
STARTCHAR char199
ENCODING 199
SWIDTH 500 0
DWIDTH 5 0
BBX 4 8 0 -2
BITMAP
70
80
80
80
80
70
20
40
ENDCHAR
STARTCHAR char200
ENCODING 200
SWIDTH 500 0
DWIDTH 5 0
BBX 4 8 1 0
BITMAP
40
20
F0
80
E0
80
80
F0
ENDCHAR
STARTCHAR char201
ENCODING 201
SWIDTH 500 0
DWIDTH 5 0
BBX 4 8 1 0
BITMAP
20
40
F0
80
E0
80
80
F0
ENDCHAR
STARTCHAR char202
ENCODING 202
SWIDTH 500 0
DWIDTH 5 0
BBX 4 8 1 0
BITMAP
40
A0
F0
80
E0
80
80
F0
ENDCHAR
STARTCHAR char203
ENCODING 203
SWIDTH 500 0
DWIDTH 5 0
BBX 4 8 1 0
BITMAP
A0
00
F0
80
E0
80
80
F0
ENDCHAR
STARTCHAR char204
ENCODING 204
SWIDTH 500 0
DWIDTH 5 0
BBX 3 9 1 0
BITMAP
80
40
00
E0
40
40
40
40
E0
ENDCHAR
STARTCHAR char205
ENCODING 205
SWIDTH 500 0
DWIDTH 5 0
BBX 3 9 1 0
BITMAP
20
40
00
E0
40
40
40
40
E0
ENDCHAR
STARTCHAR char206
ENCODING 206
SWIDTH 500 0
DWIDTH 5 0
BBX 3 9 1 0
BITMAP
40
A0
00
E0
40
40
40
40
E0
ENDCHAR
STARTCHAR char207
ENCODING 207
SWIDTH 500 0
DWIDTH 5 0
BBX 3 8 1 0
BITMAP
A0
00
E0
40
40
40
40
E0
ENDCHAR
STARTCHAR char208
ENCODING 208
SWIDTH 500 0
DWIDTH 5 0
BBX 5 6 0 0
BITMAP
70
48
E8
48
48
70
ENDCHAR
STARTCHAR char209
ENCODING 209
SWIDTH 500 0
DWIDTH 5 0
BBX 4 8 1 0
BITMAP
50
A0
00
E0
90
90
90
90
ENDCHAR
STARTCHAR char210
ENCODING 210
SWIDTH 500 0
DWIDTH 5 0
BBX 4 8 1 0
BITMAP
80
40
00
60
90
90
90
60
ENDCHAR
STARTCHAR char211
ENCODING 211
SWIDTH 500 0
DWIDTH 5 0
BBX 4 8 1 0
BITMAP
20
40
00
60
90
90
90
60
ENDCHAR
STARTCHAR char212
ENCODING 212
SWIDTH 500 0
DWIDTH 5 0
BBX 4 8 1 0
BITMAP
40
A0
00
60
90
90
90
60
ENDCHAR
STARTCHAR char213
ENCODING 213
SWIDTH 500 0
DWIDTH 5 0
BBX 4 8 1 0
BITMAP
50
A0
00
60
90
90
90
60
ENDCHAR
STARTCHAR char214
ENCODING 214
SWIDTH 500 0
DWIDTH 5 0
BBX 4 7 1 0
BITMAP
90
00
60
90
90
90
60
ENDCHAR
STARTCHAR char215
ENCODING 215
SWIDTH 500 0
DWIDTH 5 0
BBX 3 3 1 2
BITMAP
A0
40
A0
ENDCHAR
STARTCHAR char216
ENCODING 216
SWIDTH 500 0
DWIDTH 5 0
BBX 6 6 0 0
BITMAP
34
58
58
68
68
B0
ENDCHAR
STARTCHAR char217
ENCODING 217
SWIDTH 500 0
DWIDTH 5 0
BBX 4 8 1 0
BITMAP
80
40
90
90
90
90
90
70
ENDCHAR
STARTCHAR char218
ENCODING 218
SWIDTH 500 0
DWIDTH 5 0
BBX 4 8 1 0
BITMAP
10
20
90
90
90
90
90
70
ENDCHAR
STARTCHAR char219
ENCODING 219
SWIDTH 500 0
DWIDTH 5 0
BBX 4 9 1 0
BITMAP
20
50
00
90
90
90
90
90
70
ENDCHAR
STARTCHAR char220
ENCODING 220
SWIDTH 500 0
DWIDTH 5 0
BBX 4 8 1 0
BITMAP
50
00
90
90
90
90
90
70
ENDCHAR
STARTCHAR char221
ENCODING 221
SWIDTH 500 0
DWIDTH 5 0
BBX 5 8 0 0
BITMAP
10
20
88
50
20
20
20
20
ENDCHAR
STARTCHAR char222
ENCODING 222
SWIDTH 500 0
DWIDTH 5 0
BBX 4 7 1 -1
BITMAP
80
80
E0
90
90
E0
80
ENDCHAR
STARTCHAR char223
ENCODING 223
SWIDTH 500 0
DWIDTH 5 0
BBX 4 7 1 -1
BITMAP
60
90
A0
90
90
A0
80
ENDCHAR
STARTCHAR char224
ENCODING 224
SWIDTH 500 0
DWIDTH 5 0
BBX 4 8 1 0
BITMAP
80
40
00
70
90
90
B0
50
ENDCHAR
STARTCHAR char225
ENCODING 225
SWIDTH 500 0
DWIDTH 5 0
BBX 4 8 1 0
BITMAP
20
40
00
70
90
90
B0
50
ENDCHAR
STARTCHAR char226
ENCODING 226
SWIDTH 500 0
DWIDTH 5 0
BBX 4 8 1 0
BITMAP
40
A0
00
70
90
90
B0
50
ENDCHAR
STARTCHAR char227
ENCODING 227
SWIDTH 500 0
DWIDTH 5 0
BBX 4 8 1 0
BITMAP
50
A0
00
70
90
90
B0
50
ENDCHAR
STARTCHAR char228
ENCODING 228
SWIDTH 500 0
DWIDTH 5 0
BBX 4 7 1 0
BITMAP
90
00
70
90
90
B0
50
ENDCHAR
STARTCHAR char229
ENCODING 229
SWIDTH 500 0
DWIDTH 5 0
BBX 4 7 1 0
BITMAP
20
00
70
90
90
B0
50
ENDCHAR
STARTCHAR char230
ENCODING 230
SWIDTH 500 0
DWIDTH 5 0
BBX 5 5 1 0
BITMAP
70
A8
B8
A0
58
ENDCHAR
STARTCHAR char231
ENCODING 231
SWIDTH 500 0
DWIDTH 5 0
BBX 4 7 1 -2
BITMAP
70
80
80
80
70
20
40
ENDCHAR
STARTCHAR char232
ENCODING 232
SWIDTH 500 0
DWIDTH 5 0
BBX 4 8 1 0
BITMAP
80
40
00
60
90
F0
80
70
ENDCHAR
STARTCHAR char233
ENCODING 233
SWIDTH 500 0
DWIDTH 5 0
BBX 4 8 1 0
BITMAP
20
40
00
60
90
F0
80
70
ENDCHAR
STARTCHAR char234
ENCODING 234
SWIDTH 500 0
DWIDTH 5 0
BBX 4 8 1 0
BITMAP
40
A0
00
60
90
F0
80
70
ENDCHAR
STARTCHAR char235
ENCODING 235
SWIDTH 500 0
DWIDTH 5 0
BBX 4 7 1 0
BITMAP
A0
00
60
90
F0
80
70
ENDCHAR
STARTCHAR char236
ENCODING 236
SWIDTH 500 0
DWIDTH 5 0
BBX 2 8 2 0
BITMAP
80
40
00
C0
40
40
40
40
ENDCHAR
STARTCHAR char237
ENCODING 237
SWIDTH 500 0
DWIDTH 5 0
BBX 3 8 2 0
BITMAP
20
40
00
C0
40
40
40
40
ENDCHAR
STARTCHAR char238
ENCODING 238
SWIDTH 500 0
DWIDTH 5 0
BBX 3 8 2 0
BITMAP
40
A0
00
C0
40
40
40
40
ENDCHAR
STARTCHAR char239
ENCODING 239
SWIDTH 500 0
DWIDTH 5 0
BBX 3 7 2 0
BITMAP
A0
00
C0
40
40
40
40
ENDCHAR
STARTCHAR char240
ENCODING 240
SWIDTH 500 0
DWIDTH 5 0
BBX 4 8 1 0
BITMAP
A0
60
90
70
90
90
90
60
ENDCHAR
STARTCHAR char241
ENCODING 241
SWIDTH 500 0
DWIDTH 5 0
BBX 4 8 1 0
BITMAP
50
A0
00
E0
90
90
90
90
ENDCHAR
STARTCHAR char242
ENCODING 242
SWIDTH 500 0
DWIDTH 5 0
BBX 4 8 1 0
BITMAP
80
40
00
60
90
90
90
60
ENDCHAR
STARTCHAR char243
ENCODING 243
SWIDTH 500 0
DWIDTH 5 0
BBX 4 8 1 0
BITMAP
10
20
00
60
90
90
90
60
ENDCHAR
STARTCHAR char244
ENCODING 244
SWIDTH 500 0
DWIDTH 5 0
BBX 4 8 1 0
BITMAP
40
A0
00
60
90
90
90
60
ENDCHAR
STARTCHAR char245
ENCODING 245
SWIDTH 500 0
DWIDTH 5 0
BBX 4 8 1 0
BITMAP
50
A0
00
60
90
90
90
60
ENDCHAR
STARTCHAR char246
ENCODING 246
SWIDTH 500 0
DWIDTH 5 0
BBX 4 7 1 0
BITMAP
90
00
60
90
90
90
60
ENDCHAR
STARTCHAR char247
ENCODING 247
SWIDTH 500 0
DWIDTH 5 0
BBX 5 5 0 1
BITMAP
20
00
F8
00
20
ENDCHAR
STARTCHAR char248
ENCODING 248
SWIDTH 500 0
DWIDTH 5 0
BBX 6 5 0 0
BITMAP
34
58
78
68
B0
ENDCHAR
STARTCHAR char249
ENCODING 249
SWIDTH 500 0
DWIDTH 5 0
BBX 4 8 1 0
BITMAP
80
40
00
90
90
90
90
70
ENDCHAR
STARTCHAR char250
ENCODING 250
SWIDTH 500 0
DWIDTH 5 0
BBX 4 8 1 0
BITMAP
20
40
00
90
90
90
90
70
ENDCHAR
STARTCHAR char251
ENCODING 251
SWIDTH 500 0
DWIDTH 5 0
BBX 4 8 1 0
BITMAP
40
A0
00
90
90
90
90
70
ENDCHAR
STARTCHAR char252
ENCODING 252
SWIDTH 500 0
DWIDTH 5 0
BBX 4 7 1 0
BITMAP
A0
00
90
90
90
90
70
ENDCHAR
STARTCHAR char253
ENCODING 253
SWIDTH 500 0
DWIDTH 5 0
BBX 4 10 1 -2
BITMAP
20
40
00
90
90
90
90
70
10
60
ENDCHAR
STARTCHAR char254
ENCODING 254
SWIDTH 500 0
DWIDTH 5 0
BBX 4 9 1 -2
BITMAP
80
80
E0
90
90
90
E0
80
80
ENDCHAR
STARTCHAR char255
ENCODING 255
SWIDTH 500 0
DWIDTH 5 0
BBX 4 9 1 -2
BITMAP
50
00
90
90
90
90
70
10
60
ENDCHAR
STARTCHAR $5240
ENCODING 256
SWIDTH 500 0
DWIDTH 5 0
BBX 4 8 1 0
BITMAP
F0
00
60
90
90
F0
90
90
ENDCHAR
STARTCHAR char480
ENCODING 257
SWIDTH 500 0
DWIDTH 5 0
BBX 4 7 1 0
BITMAP
F0
00
70
90
90
B0
50
ENDCHAR
STARTCHAR char480
ENCODING 258
SWIDTH 500 0
DWIDTH 5 0
BBX 4 9 1 0
BITMAP
90
60
00
60
90
90
F0
90
90
ENDCHAR
STARTCHAR char480
ENCODING 259
SWIDTH 500 0
DWIDTH 5 0
BBX 4 8 1 0
BITMAP
90
60
00
70
90
90
B0
50
ENDCHAR
STARTCHAR char480
ENCODING 260
SWIDTH 500 0
DWIDTH 5 0
BBX 5 7 1 -1
BITMAP
60
90
90
F0
90
90
08
ENDCHAR
STARTCHAR char480
ENCODING 261
SWIDTH 500 0
DWIDTH 5 0
BBX 5 6 1 -1
BITMAP
70
90
90
B0
50
08
ENDCHAR
STARTCHAR char480
ENCODING 262
SWIDTH 500 0
DWIDTH 5 0
BBX 4 9 1 0
BITMAP
20
40
00
70
80
80
80
80
70
ENDCHAR
STARTCHAR char960
ENCODING 263
SWIDTH 500 0
DWIDTH 5 0
BBX 4 8 1 0
BITMAP
20
40
00
70
80
80
80
70
ENDCHAR
STARTCHAR Ccircumflex
ENCODING 264
SWIDTH 500 0
DWIDTH 5 0
BBX 4 9 1 0
BITMAP
20
50
00
70
80
80
80
80
70
ENDCHAR
STARTCHAR ccircumflex
ENCODING 265
SWIDTH 500 0
DWIDTH 5 0
BBX 4 8 1 0
BITMAP
20
50
00
70
80
80
80
70
ENDCHAR
STARTCHAR Cdotaccent
ENCODING 266
SWIDTH 500 0
DWIDTH 5 0
BBX 4 8 1 0
BITMAP
20
00
70
80
80
80
80
70
ENDCHAR
STARTCHAR cdotaccent
ENCODING 267
SWIDTH 500 0
DWIDTH 5 0
BBX 4 7 1 0
BITMAP
20
00
70
80
80
80
70
ENDCHAR
STARTCHAR Ccaron
ENCODING 268
SWIDTH 500 0
DWIDTH 5 0
BBX 4 9 1 0
BITMAP
50
20
00
70
80
80
80
80
70
ENDCHAR
STARTCHAR ccaron
ENCODING 269
SWIDTH 500 0
DWIDTH 5 0
BBX 4 8 1 0
BITMAP
50
20
00
70
80
80
80
70
ENDCHAR
STARTCHAR Dcaron
ENCODING 270
SWIDTH 500 0
DWIDTH 5 0
BBX 4 9 1 0
BITMAP
A0
40
00
E0
90
90
90
90
E0
ENDCHAR
STARTCHAR dcaron
ENCODING 271
SWIDTH 500 0
DWIDTH 5 0
BBX 6 8 1 0
BITMAP
04
14
18
70
90
90
B0
50
ENDCHAR
STARTCHAR Dcroat
ENCODING 272
SWIDTH 500 0
DWIDTH 5 0
BBX 5 6 0 0
BITMAP
70
48
E8
48
48
70
ENDCHAR
STARTCHAR dcroat
ENCODING 273
SWIDTH 500 0
DWIDTH 5 0
BBX 5 7 1 0
BITMAP
38
10
70
90
90
B0
50
ENDCHAR
STARTCHAR Emacron
ENCODING 274
SWIDTH 500 0
DWIDTH 5 0
BBX 4 8 1 0
BITMAP
60
00
F0
80
E0
80
80
F0
ENDCHAR
STARTCHAR emacron
ENCODING 275
SWIDTH 500 0
DWIDTH 5 0
BBX 4 7 1 0
BITMAP
F0
00
60
90
F0
80
70
ENDCHAR
STARTCHAR Ebreve
ENCODING 276
SWIDTH 500 0
DWIDTH 5 0
BBX 4 9 1 0
BITMAP
90
60
00
F0
80
E0
80
80
F0
ENDCHAR
STARTCHAR ebreve
ENCODING 277
SWIDTH 500 0
DWIDTH 5 0
BBX 4 8 1 0
BITMAP
90
60
00
60
90
F0
80
70
ENDCHAR
STARTCHAR Edotaccent
ENCODING 278
SWIDTH 500 0
DWIDTH 5 0
BBX 4 8 1 0
BITMAP
40
00
F0
80
E0
80
80
F0
ENDCHAR
STARTCHAR edotaccent
ENCODING 279
SWIDTH 500 0
DWIDTH 5 0
BBX 4 7 1 0
BITMAP
40
00
60
90
F0
80
70
ENDCHAR
STARTCHAR Eogonek
ENCODING 280
SWIDTH 500 0
DWIDTH 5 0
BBX 5 7 1 -1
BITMAP
F0
80
E0
80
80
F0
08
ENDCHAR
STARTCHAR eogonek
ENCODING 281
SWIDTH 500 0
DWIDTH 5 0
BBX 4 6 1 -1
BITMAP
60
90
F0
80
60
10
ENDCHAR
STARTCHAR Ecaron
ENCODING 282
SWIDTH 500 0
DWIDTH 5 0
BBX 4 9 1 0
BITMAP
A0
40
00
F0
80
E0
80
80
F0
ENDCHAR
STARTCHAR ecaron
ENCODING 283
SWIDTH 500 0
DWIDTH 5 0
BBX 4 8 1 0
BITMAP
A0
40
00
60
90
F0
80
70
ENDCHAR
STARTCHAR Gcircumflex
ENCODING 284
SWIDTH 500 0
DWIDTH 5 0
BBX 4 9 1 0
BITMAP
20
50
00
70
80
80
B0
90
70
ENDCHAR
STARTCHAR gcircumflex
ENCODING 285
SWIDTH 500 0
DWIDTH 5 0
BBX 4 10 1 -2
BITMAP
20
50
00
70
90
90
B0
50
10
60
ENDCHAR
STARTCHAR Gbreve
ENCODING 286
SWIDTH 500 0
DWIDTH 5 0
BBX 4 9 1 0
BITMAP
90
60
00
70
80
80
B0
90
70
ENDCHAR
STARTCHAR gbreve
ENCODING 287
SWIDTH 500 0
DWIDTH 5 0
BBX 4 10 1 -2
BITMAP
90
60
00
70
90
90
B0
50
10
60
ENDCHAR
STARTCHAR Gdotaccent
ENCODING 288
SWIDTH 500 0
DWIDTH 5 0
BBX 4 8 1 0
BITMAP
20
00
70
80
80
B0
90
70
ENDCHAR
STARTCHAR gdotaccent
ENCODING 289
SWIDTH 500 0
DWIDTH 5 0
BBX 4 9 1 -2
BITMAP
20
00
70
90
90
B0
50
10
60
ENDCHAR
STARTCHAR uni0122
ENCODING 290
SWIDTH 500 0
DWIDTH 5 0
BBX 4 8 1 -2
BITMAP
70
80
80
B0
90
70
20
40
ENDCHAR
STARTCHAR uni0123
ENCODING 291
SWIDTH 500 0
DWIDTH 5 0
BBX 4 10 1 -2
BITMAP
20
40
00
70
90
90
B0
50
10
60
ENDCHAR
STARTCHAR Hcircumflex
ENCODING 292
SWIDTH 500 0
DWIDTH 5 0
BBX 4 9 1 0
BITMAP
20
50
00
90
90
F0
90
90
90
ENDCHAR
STARTCHAR hcircumflex
ENCODING 293
SWIDTH 500 0
DWIDTH 5 0
BBX 4 9 1 0
BITMAP
20
50
80
80
E0
90
90
90
90
ENDCHAR
STARTCHAR Hbar
ENCODING 294
SWIDTH 500 0
DWIDTH 5 0
BBX 6 6 0 0
BITMAP
FC
48
78
48
48
48
ENDCHAR
STARTCHAR hbar
ENCODING 295
SWIDTH 500 0
DWIDTH 5 0
BBX 5 7 0 0
BITMAP
F0
40
70
48
48
48
48
ENDCHAR
STARTCHAR Itilde
ENCODING 296
SWIDTH 500 0
DWIDTH 5 0
BBX 4 9 0 0
BITMAP
50
A0
00
70
20
20
20
20
70
ENDCHAR
STARTCHAR itilde
ENCODING 297
SWIDTH 500 0
DWIDTH 5 0
BBX 4 8 1 0
BITMAP
50
A0
00
60
20
20
20
20
ENDCHAR
STARTCHAR Imacron
ENCODING 298
SWIDTH 500 0
DWIDTH 5 0
BBX 3 8 1 0
BITMAP
E0
00
E0
40
40
40
40
E0
ENDCHAR
STARTCHAR imacron
ENCODING 299
SWIDTH 500 0
DWIDTH 5 0
BBX 3 7 2 0
BITMAP
E0
00
C0
40
40
40
40
ENDCHAR
STARTCHAR Ibreve
ENCODING 300
SWIDTH 500 0
DWIDTH 5 0
BBX 3 9 1 0
BITMAP
A0
40
00
E0
40
40
40
40
E0
ENDCHAR
STARTCHAR ibreve
ENCODING 301
SWIDTH 500 0
DWIDTH 5 0
BBX 3 8 2 0
BITMAP
A0
40
00
C0
40
40
40
40
ENDCHAR
STARTCHAR Iogonek
ENCODING 302
SWIDTH 500 0
DWIDTH 5 0
BBX 3 8 1 -2
BITMAP
E0
40
40
40
40
E0
80
40
ENDCHAR
STARTCHAR iogonek
ENCODING 303
SWIDTH 500 0
DWIDTH 5 0
BBX 2 9 2 -2
BITMAP
40
00
C0
40
40
40
C0
80
40
ENDCHAR
STARTCHAR Idotaccent
ENCODING 304
SWIDTH 500 0
DWIDTH 5 0
BBX 3 8 1 0
BITMAP
40
00
E0
40
40
40
40
E0
ENDCHAR
STARTCHAR dotlessi
ENCODING 305
SWIDTH 500 0
DWIDTH 5 0
BBX 2 5 2 0
BITMAP
C0
40
40
40
40
ENDCHAR
STARTCHAR IJ
ENCODING 306
SWIDTH 500 0
DWIDTH 5 0
BBX 6 6 1 0
BITMAP
FC
44
44
44
54
E8
ENDCHAR
STARTCHAR ij
ENCODING 307
SWIDTH 500 0
DWIDTH 5 0
BBX 5 8 1 -1
BITMAP
48
00
D8
48
48
48
48
30
ENDCHAR
STARTCHAR Jcircumflex
ENCODING 308
SWIDTH 500 0
DWIDTH 5 0
BBX 4 9 1 0
BITMAP
20
50
00
70
10
10
10
90
60
ENDCHAR
STARTCHAR jcircumflex
ENCODING 309
SWIDTH 500 0
DWIDTH 5 0
BBX 4 10 1 -2
BITMAP
20
50
00
60
20
20
20
20
20
C0
ENDCHAR
STARTCHAR uni0136
ENCODING 310
SWIDTH 500 0
DWIDTH 5 0
BBX 4 8 1 -2
BITMAP
90
A0
C0
A0
90
90
40
80
ENDCHAR
STARTCHAR uni0137
ENCODING 311
SWIDTH 500 0
DWIDTH 5 0
BBX 4 9 1 -2
BITMAP
80
80
90
A0
E0
90
90
40
80
ENDCHAR
STARTCHAR kgreenlandic
ENCODING 312
SWIDTH 500 0
DWIDTH 5 0
BBX 4 5 1 0
BITMAP
90
A0
E0
90
90
ENDCHAR
STARTCHAR Lacute
ENCODING 313
SWIDTH 500 0
DWIDTH 5 0
BBX 4 8 1 0
BITMAP
10
20
80
80
80
80
80
F0
ENDCHAR
STARTCHAR lacute
ENCODING 314
SWIDTH 500 0
DWIDTH 5 0
BBX 4 9 2 0
BITMAP
10
20
C0
40
40
40
40
40
40
ENDCHAR
STARTCHAR uni013B
ENCODING 315
SWIDTH 500 0
DWIDTH 5 0
BBX 4 8 1 -2
BITMAP
80
80
80
80
80
F0
20
40
ENDCHAR
STARTCHAR uni013C
ENCODING 316
SWIDTH 500 0
DWIDTH 5 0
BBX 3 9 1 -2
BITMAP
60
20
20
20
20
20
20
40
80
ENDCHAR
STARTCHAR Lcaron
ENCODING 317
SWIDTH 500 0
DWIDTH 5 0
BBX 4 7 1 0
BITMAP
30
90
80
80
80
80
F0
ENDCHAR
STARTCHAR lcaron
ENCODING 318
SWIDTH 500 0
DWIDTH 5 0
BBX 4 10 2 -1
BITMAP
30
10
C0
40
40
40
40
40
40
20
ENDCHAR
STARTCHAR Ldot
ENCODING 319
SWIDTH 500 0
DWIDTH 5 0
BBX 4 6 1 0
BITMAP
80
80
80
A0
80
F0
ENDCHAR
STARTCHAR ldot
ENCODING 320
SWIDTH 500 0
DWIDTH 5 0
BBX 4 7 2 0
BITMAP
C0
40
40
40
50
40
40
ENDCHAR
STARTCHAR Lslash
ENCODING 321
SWIDTH 500 0
DWIDTH 5 0
BBX 4 6 1 0
BITMAP
80
A0
C0
80
80
F0
ENDCHAR
STARTCHAR lslash
ENCODING 322
SWIDTH 500 0
DWIDTH 5 0
BBX 3 7 2 0
BITMAP
C0
40
40
60
C0
40
40
ENDCHAR
STARTCHAR Nacute
ENCODING 323
SWIDTH 500 0
DWIDTH 5 0
BBX 4 9 1 0
BITMAP
20
40
00
90
D0
D0
B0
B0
90
ENDCHAR
STARTCHAR nacute
ENCODING 324
SWIDTH 500 0
DWIDTH 5 0
BBX 4 8 1 0
BITMAP
20
40
00
E0
90
90
90
90
ENDCHAR
STARTCHAR uni0145
ENCODING 325
SWIDTH 500 0
DWIDTH 5 0
BBX 4 8 1 -2
BITMAP
90
D0
D0
B0
B0
D0
40
80
ENDCHAR
STARTCHAR uni0146
ENCODING 326
SWIDTH 500 0
DWIDTH 5 0
BBX 4 10 1 -2
BITMAP
20
40
00
E0
90
90
90
D0
40
80
ENDCHAR
STARTCHAR Ncaron
ENCODING 327
SWIDTH 500 0
DWIDTH 5 0
BBX 4 8 1 0
BITMAP
50
20
90
D0
D0
B0
B0
90
ENDCHAR
STARTCHAR ncaron
ENCODING 328
SWIDTH 500 0
DWIDTH 5 0
BBX 4 8 1 0
BITMAP
50
20
00
E0
90
90
90
90
ENDCHAR
STARTCHAR napostrophe
ENCODING 329
SWIDTH 500 0
DWIDTH 5 0
BBX 4 8 1 0
BITMAP
80
80
00
E0
90
90
90
90
ENDCHAR
STARTCHAR Eng
ENCODING 330
SWIDTH 500 0
DWIDTH 5 0
BBX 4 8 1 -2
BITMAP
90
D0
D0
B0
B0
90
10
60
ENDCHAR
STARTCHAR eng
ENCODING 331
SWIDTH 500 0
DWIDTH 5 0
BBX 4 10 1 -2
BITMAP
20
40
00
E0
90
90
90
90
10
60
ENDCHAR
STARTCHAR Omacron
ENCODING 332
SWIDTH 500 0
DWIDTH 5 0
BBX 4 8 1 0
BITMAP
F0
00
60
90
90
90
90
60
ENDCHAR
STARTCHAR omacron
ENCODING 333
SWIDTH 500 0
DWIDTH 5 0
BBX 4 7 1 0
BITMAP
F0
00
60
90
90
90
60
ENDCHAR
STARTCHAR Obreve
ENCODING 334
SWIDTH 500 0
DWIDTH 5 0
BBX 4 9 1 0
BITMAP
90
60
00
60
90
90
90
90
60
ENDCHAR
STARTCHAR obreve
ENCODING 335
SWIDTH 500 0
DWIDTH 5 0
BBX 4 8 1 0
BITMAP
90
60
00
60
90
90
90
60
ENDCHAR
STARTCHAR Ohungarumlaut
ENCODING 336
SWIDTH 500 0
DWIDTH 5 0
BBX 4 9 1 0
BITMAP
50
A0
00
60
90
90
90
90
60
ENDCHAR
STARTCHAR ohungarumlaut
ENCODING 337
SWIDTH 500 0
DWIDTH 5 0
BBX 4 8 1 0
BITMAP
50
A0
00
60
90
90
90
60
ENDCHAR
STARTCHAR char198
ENCODING 338
SWIDTH 500 0
DWIDTH 5 0
BBX 6 6 0 0
BITMAP
7C
90
98
90
90
7C
ENDCHAR
STARTCHAR char230
ENCODING 339
SWIDTH 500 0
DWIDTH 5 0
BBX 5 5 1 0
BITMAP
70
A8
B8
A0
78
ENDCHAR
STARTCHAR Racute
ENCODING 340
SWIDTH 500 0
DWIDTH 5 0
BBX 4 8 1 0
BITMAP
20
40
E0
90
90
E0
90
90
ENDCHAR
STARTCHAR racute
ENCODING 341
SWIDTH 500 0
DWIDTH 5 0
BBX 4 8 1 0
BITMAP
20
40
00
B0
C0
80
80
80
ENDCHAR
STARTCHAR uni0156
ENCODING 342
SWIDTH 500 0
DWIDTH 5 0
BBX 4 8 1 -2
BITMAP
E0
90
90
E0
90
90
40
80
ENDCHAR
STARTCHAR uni0157
ENCODING 343
SWIDTH 500 0
DWIDTH 5 0
BBX 4 7 1 -2
BITMAP
B0
C0
80
80
80
40
80
ENDCHAR
STARTCHAR Rcaron
ENCODING 344
SWIDTH 500 0
DWIDTH 5 0
BBX 4 8 1 0
BITMAP
A0
40
E0
90
90
E0
90
90
ENDCHAR
STARTCHAR rcaron
ENCODING 345
SWIDTH 500 0
DWIDTH 5 0
BBX 4 8 1 0
BITMAP
A0
40
00
B0
C0
80
80
80
ENDCHAR
STARTCHAR Sacute
ENCODING 346
SWIDTH 500 0
DWIDTH 5 0
BBX 4 9 1 0
BITMAP
20
40
00
70
80
60
10
10
E0
ENDCHAR
STARTCHAR sacute
ENCODING 347
SWIDTH 500 0
DWIDTH 5 0
BBX 4 8 1 0
BITMAP
20
40
00
70
80
60
10
E0
ENDCHAR
STARTCHAR Scircumflex
ENCODING 348
SWIDTH 500 0
DWIDTH 5 0
BBX 4 9 1 0
BITMAP
20
50
00
70
80
60
10
10
E0
ENDCHAR
STARTCHAR scircumflex
ENCODING 349
SWIDTH 500 0
DWIDTH 5 0
BBX 4 8 1 0
BITMAP
20
50
00
70
80
60
10
E0
ENDCHAR
STARTCHAR Scedilla
ENCODING 350
SWIDTH 500 0
DWIDTH 5 0
BBX 4 8 1 -2
BITMAP
70
80
60
10
10
E0
20
20
ENDCHAR
STARTCHAR scedilla
ENCODING 351
SWIDTH 500 0
DWIDTH 5 0
BBX 4 7 1 -2
BITMAP
70
80
60
10
E0
20
20
ENDCHAR
STARTCHAR Scaron
ENCODING 352
SWIDTH 500 0
DWIDTH 5 0
BBX 4 9 1 0
BITMAP
50
20
00
70
80
60
10
10
E0
ENDCHAR
STARTCHAR scaron
ENCODING 353
SWIDTH 500 0
DWIDTH 5 0
BBX 4 8 1 0
BITMAP
50
20
00
70
80
60
10
E0
ENDCHAR
STARTCHAR uni0162
ENCODING 354
SWIDTH 500 0
DWIDTH 5 0
BBX 5 7 0 -1
BITMAP
F8
20
20
20
20
20
40
ENDCHAR
STARTCHAR uni0163
ENCODING 355
SWIDTH 500 0
DWIDTH 5 0
BBX 3 7 1 -1
BITMAP
40
E0
40
40
40
20
40
ENDCHAR
STARTCHAR Tcaron
ENCODING 356
SWIDTH 500 0
DWIDTH 5 0
BBX 5 9 0 0
BITMAP
50
20
00
F8
20
20
20
20
20
ENDCHAR
STARTCHAR tcaron
ENCODING 357
SWIDTH 500 0
DWIDTH 5 0
BBX 4 8 1 0
BITMAP
30
10
40
E0
40
40
40
20
ENDCHAR
STARTCHAR Tbar
ENCODING 358
SWIDTH 500 0
DWIDTH 5 0
BBX 5 6 0 0
BITMAP
F8
20
20
70
20
20
ENDCHAR
STARTCHAR tbar
ENCODING 359
SWIDTH 500 0
DWIDTH 5 0
BBX 3 6 1 0
BITMAP
40
E0
40
E0
40
20
ENDCHAR
STARTCHAR Utilde
ENCODING 360
SWIDTH 500 0
DWIDTH 5 0
BBX 4 9 1 0
BITMAP
50
A0
00
90
90
90
90
90
70
ENDCHAR
STARTCHAR utilde
ENCODING 361
SWIDTH 500 0
DWIDTH 5 0
BBX 4 8 1 0
BITMAP
50
A0
00
90
90
90
90
70
ENDCHAR
STARTCHAR Umacron
ENCODING 362
SWIDTH 500 0
DWIDTH 5 0
BBX 4 8 1 0
BITMAP
F0
00
90
90
90
90
90
70
ENDCHAR
STARTCHAR umacron
ENCODING 363
SWIDTH 500 0
DWIDTH 5 0
BBX 4 7 1 0
BITMAP
F0
00
90
90
90
90
70
ENDCHAR
STARTCHAR Ubreve
ENCODING 364
SWIDTH 500 0
DWIDTH 5 0
BBX 4 9 1 0
BITMAP
90
60
00
90
90
90
90
90
70
ENDCHAR
STARTCHAR ubreve
ENCODING 365
SWIDTH 500 0
DWIDTH 5 0
BBX 4 8 1 0
BITMAP
90
60
00
90
90
90
90
70
ENDCHAR
STARTCHAR Uring
ENCODING 366
SWIDTH 500 0
DWIDTH 5 0
BBX 4 9 1 0
BITMAP
20
50
20
90
90
90
90
90
70
ENDCHAR
STARTCHAR uring
ENCODING 367
SWIDTH 500 0
DWIDTH 5 0
BBX 4 8 1 0
BITMAP
20
50
20
90
90
90
90
70
ENDCHAR
STARTCHAR Uhungarumlaut
ENCODING 368
SWIDTH 500 0
DWIDTH 5 0
BBX 5 9 1 0
BITMAP
48
90
00
90
90
90
90
90
70
ENDCHAR
STARTCHAR uhungarumlaut
ENCODING 369
SWIDTH 500 0
DWIDTH 5 0
BBX 5 8 1 0
BITMAP
48
90
00
90
90
90
90
70
ENDCHAR
STARTCHAR Uogonek
ENCODING 370
SWIDTH 500 0
DWIDTH 5 0
BBX 4 8 1 -2
BITMAP
90
90
90
90
90
70
40
20
ENDCHAR
STARTCHAR uogonek
ENCODING 371
SWIDTH 500 0
DWIDTH 5 0
BBX 4 7 1 -2
BITMAP
90
90
90
90
70
40
20
ENDCHAR
STARTCHAR Wcircumflex
ENCODING 372
SWIDTH 500 0
DWIDTH 5 0
BBX 4 9 1 0
BITMAP
20
50
00
90
90
90
90
F0
90
ENDCHAR
STARTCHAR wcircumflex
ENCODING 373
SWIDTH 500 0
DWIDTH 5 0
BBX 4 8 1 0
BITMAP
20
50
00
90
90
90
F0
90
ENDCHAR
STARTCHAR Ycircumflex
ENCODING 374
SWIDTH 500 0
DWIDTH 5 0
BBX 5 9 0 0
BITMAP
20
50
00
88
50
20
20
20
20
ENDCHAR
STARTCHAR ycircumflex
ENCODING 375
SWIDTH 500 0
DWIDTH 5 0
BBX 4 10 1 -2
BITMAP
20
50
00
90
90
90
90
70
10
60
ENDCHAR
STARTCHAR Ydieresis
ENCODING 376
SWIDTH 500 0
DWIDTH 5 0
BBX 5 8 0 0
BITMAP
50
00
88
50
20
20
20
20
ENDCHAR
STARTCHAR Zacute
ENCODING 377
SWIDTH 500 0
DWIDTH 5 0
BBX 4 9 1 0
BITMAP
20
40
00
F0
10
20
40
80
F0
ENDCHAR
STARTCHAR zacute
ENCODING 378
SWIDTH 500 0
DWIDTH 5 0
BBX 4 8 1 0
BITMAP
20
40
00
F0
20
40
80
F0
ENDCHAR
STARTCHAR Zdotaccent
ENCODING 379
SWIDTH 500 0
DWIDTH 5 0
BBX 4 8 1 0
BITMAP
20
00
F0
10
20
40
80
F0
ENDCHAR
STARTCHAR zdotaccent
ENCODING 380
SWIDTH 500 0
DWIDTH 5 0
BBX 4 7 1 0
BITMAP
20
00
F0
20
40
80
F0
ENDCHAR
STARTCHAR Zcaron
ENCODING 381
SWIDTH 500 0
DWIDTH 5 0
BBX 4 9 1 0
BITMAP
50
20
00
F0
10
20
40
80
F0
ENDCHAR
STARTCHAR zcaron
ENCODING 382
SWIDTH 500 0
DWIDTH 5 0
BBX 4 8 1 0
BITMAP
50
20
00
F0
20
40
80
F0
ENDCHAR
STARTCHAR LATIN
ENCODING 383
SWIDTH 500 0
DWIDTH 5 0
BBX 4 7 1 0
BITMAP
30
40
C0
40
40
40
40
ENDCHAR
STARTCHAR uni0180
ENCODING 384
SWIDTH 500 0
DWIDTH 5 0
BBX 5 7 0 0
BITMAP
E0
40
70
48
48
48
70
ENDCHAR
STARTCHAR uni0181
ENCODING 385
SWIDTH 500 0
DWIDTH 5 0
BBX 5 6 0 0
BITMAP
F0
48
70
48
48
70
ENDCHAR
STARTCHAR uni0182
ENCODING 386
SWIDTH 500 0
DWIDTH 5 0
BBX 5 8 1 0
BITMAP
E0
A0
80
F0
88
88
88
F0
ENDCHAR
STARTCHAR uni0183
ENCODING 387
SWIDTH 500 0
DWIDTH 5 0
BBX 4 8 1 0
BITMAP
E0
A0
80
E0
90
90
90
E0
ENDCHAR
STARTCHAR uni0184
ENCODING 388
SWIDTH 500 0
DWIDTH 5 0
BBX 6 7 0 0
BITMAP
40
C0
78
44
44
44
78
ENDCHAR
STARTCHAR uni0185
ENCODING 389
SWIDTH 500 0
DWIDTH 5 0
BBX 5 7 0 0
BITMAP
40
C0
70
48
48
48
70
ENDCHAR
STARTCHAR uni0186
ENCODING 390
SWIDTH 500 0
DWIDTH 5 0
BBX 4 6 1 0
BITMAP
E0
10
10
10
10
E0
ENDCHAR
STARTCHAR uni0187
ENCODING 391
SWIDTH 500 0
DWIDTH 5 0
BBX 5 7 1 0
BITMAP
08
70
80
80
80
80
70
ENDCHAR
STARTCHAR uni0188
ENCODING 392
SWIDTH 500 0
DWIDTH 5 0
BBX 4 5 1 0
BITMAP
70
80
80
80
70
ENDCHAR
STARTCHAR uni0189
ENCODING 393
SWIDTH 500 0
DWIDTH 5 0
BBX 5 6 0 0
BITMAP
70
48
E8
48
48
70
ENDCHAR
STARTCHAR uni018A
ENCODING 394
SWIDTH 500 0
DWIDTH 5 0
BBX 6 6 -1 0
BITMAP
78
A4
24
24
24
38
ENDCHAR
STARTCHAR uni018B
ENCODING 395
SWIDTH 500 0
DWIDTH 5 0
BBX 5 8 1 0
BITMAP
38
28
08
78
88
88
98
68
ENDCHAR
STARTCHAR uni018C
ENCODING 396
SWIDTH 500 0
DWIDTH 5 0
BBX 4 8 1 0
BITMAP
70
50
10
70
90
90
B0
50
ENDCHAR
STARTCHAR uni018E
ENCODING 398
SWIDTH 500 0
DWIDTH 5 0
BBX 5 6 0 0
BITMAP
78
88
38
08
08
78
ENDCHAR
STARTCHAR uni018F
ENCODING 399
SWIDTH 500 0
DWIDTH 5 0
BBX 4 5 1 0
BITMAP
E0
10
F0
90
60
ENDCHAR
STARTCHAR char1028
ENCODING 400
SWIDTH 500 0
DWIDTH 5 0
BBX 4 6 1 0
BITMAP
60
90
40
80
90
60
ENDCHAR
STARTCHAR uni0191
ENCODING 401
SWIDTH 500 0
DWIDTH 5 0
BBX 5 7 0 -1
BITMAP
78
40
70
40
40
40
80
ENDCHAR
STARTCHAR florin
ENCODING 402
SWIDTH 500 0
DWIDTH 5 0
BBX 4 8 1 -1
BITMAP
30
40
70
40
40
40
40
80
ENDCHAR
STARTCHAR uni0193
ENCODING 403
SWIDTH 500 0
DWIDTH 5 0
BBX 7 6 1 0
BITMAP
76
8A
80
B0
90
70
ENDCHAR
STARTCHAR LATIN
ENCODING 404
SWIDTH 500 0
DWIDTH 5 0
BBX 5 8 0 -2
BITMAP
88
50
50
20
20
50
50
20
ENDCHAR
STARTCHAR LATIN
ENCODING 405
SWIDTH 500 0
DWIDTH 5 0
BBX 5 6 1 0
BITMAP
80
80
C8
A8
A8
90
ENDCHAR
STARTCHAR LATIN
ENCODING 406
SWIDTH 500 0
DWIDTH 5 0
BBX 3 7 1 0
BITMAP
80
80
80
80
80
A0
40
ENDCHAR
STARTCHAR uni0197
ENCODING 407
SWIDTH 500 0
DWIDTH 5 0
BBX 3 8 1 0
BITMAP
E0
00
E0
40
40
40
40
E0
ENDCHAR
STARTCHAR uni0198
ENCODING 408
SWIDTH 500 0
DWIDTH 5 0
BBX 5 6 1 0
BITMAP
90
A8
C0
A0
90
90
ENDCHAR
STARTCHAR uni0199
ENCODING 409
SWIDTH 500 0
DWIDTH 5 0
BBX 4 7 1 0
BITMAP
60
80
90
A0
E0
90
90
ENDCHAR
STARTCHAR uni019A
ENCODING 410
SWIDTH 500 0
DWIDTH 5 0
BBX 3 7 1 0
BITMAP
C0
40
40
E0
40
40
40
ENDCHAR
STARTCHAR LATIN
ENCODING 411
SWIDTH 500 0
DWIDTH 5 0
BBX 4 6 1 0
BITMAP
40
E0
60
60
90
90
ENDCHAR
STARTCHAR LATIN
ENCODING 412
SWIDTH 500 0
DWIDTH 5 0
BBX 5 5 0 0
BITMAP
A8
A8
A8
A8
78
ENDCHAR
STARTCHAR LATIN
ENCODING 413
SWIDTH 480 0
DWIDTH 5 0
BBX 5 6 0 -1
BITMAP
48
68
78
58
48
80
ENDCHAR
STARTCHAR uni019E
ENCODING 414
SWIDTH 500 0
DWIDTH 5 0
BBX 4 5 1 -1
BITMAP
E0
90
90
90
10
ENDCHAR
STARTCHAR GREEK
ENCODING 415
SWIDTH 500 0
DWIDTH 5 0
BBX 4 5 0 0
BITMAP
60
90
F0
90
60
ENDCHAR
STARTCHAR Ohorn
ENCODING 416
SWIDTH 500 0
DWIDTH 5 0
BBX 6 8 1 0
BITMAP
04
04
68
90
90
90
90
60
ENDCHAR
STARTCHAR ohorn
ENCODING 417
SWIDTH 500 0
DWIDTH 5 0
BBX 6 8 1 0
BITMAP
04
04
08
60
90
90
90
60
ENDCHAR
STARTCHAR uni01A2
ENCODING 418
SWIDTH 500 0
DWIDTH 5 0
BBX 6 7 1 0
BITMAP
08
64
94
94
94
94
64
ENDCHAR
STARTCHAR uni01A3
ENCODING 419
SWIDTH 500 0
DWIDTH 5 0
BBX 6 6 1 0
BITMAP
08
64
94
94
94
64
ENDCHAR
STARTCHAR uni01A4
ENCODING 420
SWIDTH 500 0
DWIDTH 5 0
BBX 6 6 -1 0
BITMAP
F8
A4
24
38
20
20
ENDCHAR
STARTCHAR uni01A5
ENCODING 421
SWIDTH 500 0
DWIDTH 5 0
BBX 6 9 1 -2
BITMAP
0C
14
E0
90
90
90
E0
80
80
ENDCHAR
STARTCHAR LATIN
ENCODING 422
SWIDTH 500 0
DWIDTH 5 0
BBX 5 8 0 -1
BITMAP
80
E0
90
90
E0
A0
90
08
ENDCHAR
STARTCHAR uni01A7
ENCODING 423
SWIDTH 500 0
DWIDTH 5 0
BBX 4 6 1 0
BITMAP
E0
10
60
80
80
70
ENDCHAR
STARTCHAR uni01A8
ENCODING 424
SWIDTH 500 0
DWIDTH 5 0
BBX 4 5 1 0
BITMAP
E0
10
60
80
70
ENDCHAR
STARTCHAR GREEK
ENCODING 425
SWIDTH 500 0
DWIDTH 5 0
BBX 5 6 0 0
BITMAP
F8
48
20
40
88
F8
ENDCHAR
STARTCHAR LATIN
ENCODING 426
SWIDTH 500 0
DWIDTH 5 0
BBX 5 8 0 -1
BITMAP
40
A0
60
20
20
20
20
18
ENDCHAR
STARTCHAR uni01AB
ENCODING 427
SWIDTH 500 0
DWIDTH 5 0
BBX 3 7 1 -1
BITMAP
40
E0
40
40
40
20
40
ENDCHAR
STARTCHAR uni01AC
ENCODING 428
SWIDTH 500 0
DWIDTH 5 0
BBX 5 6 0 0
BITMAP
F8
28
20
20
20
20
ENDCHAR
STARTCHAR uni01AD
ENCODING 429
SWIDTH 500 0
DWIDTH 5 0
BBX 3 7 1 0
BITMAP
20
40
E0
40
40
40
20
ENDCHAR
STARTCHAR uni01AE
ENCODING 430
SWIDTH 500 0
DWIDTH 5 0
BBX 5 6 0 0
BITMAP
F8
A8
20
20
20
20
ENDCHAR
STARTCHAR Uhorn
ENCODING 431
SWIDTH 500 0
DWIDTH 5 0
BBX 5 7 1 0
BITMAP
08
98
90
90
90
90
70
ENDCHAR
STARTCHAR uhorn
ENCODING 432
SWIDTH 500 0
DWIDTH 5 0
BBX 5 6 1 0
BITMAP
08
98
90
90
90
70
ENDCHAR
STARTCHAR LATIN
ENCODING 433
SWIDTH 500 0
DWIDTH 5 0
BBX 5 7 0 0
BITMAP
D8
50
88
88
88
88
70
ENDCHAR
STARTCHAR LATIN
ENCODING 434
SWIDTH 500 0
DWIDTH 5 0
BBX 5 7 0 0
BITMAP
90
88
88
88
88
88
70
ENDCHAR
STARTCHAR uni01B3
ENCODING 435
SWIDTH 500 0
DWIDTH 5 0
BBX 6 7 0 0
BITMAP
04
8C
50
20
20
20
20
ENDCHAR
STARTCHAR uni01B4
ENCODING 436
SWIDTH 500 0
DWIDTH 5 0
BBX 5 8 1 -2
BITMAP
08
98
90
90
90
70
10
60
ENDCHAR
STARTCHAR uni01B5
ENCODING 437
SWIDTH 500 0
DWIDTH 5 0
BBX 5 6 1 0
BITMAP
F0
10
F8
40
80
F0
ENDCHAR
STARTCHAR uni01B6
ENCODING 438
SWIDTH 500 0
DWIDTH 5 0
BBX 4 5 1 0
BITMAP
F0
20
F0
80
F0
ENDCHAR
STARTCHAR LATIN
ENCODING 439
SWIDTH 500 0
DWIDTH 5 0
BBX 4 6 1 0
BITMAP
F0
10
20
10
90
60
ENDCHAR
STARTCHAR LATIN
ENCODING 440
SWIDTH 500 0
DWIDTH 5 0
BBX 4 6 1 0
BITMAP
F0
80
40
80
90
60
ENDCHAR
STARTCHAR LATIN
ENCODING 441
SWIDTH 500 0
DWIDTH 5 0
BBX 4 6 1 -1
BITMAP
F0
80
40
80
90
60
ENDCHAR
STARTCHAR LATIN
ENCODING 442
SWIDTH 500 0
DWIDTH 5 0
BBX 6 8 0 -2
BITMAP
78
08
10
08
48
B0
44
38
ENDCHAR
STARTCHAR LATIN
ENCODING 443
SWIDTH 500 0
DWIDTH 5 0
BBX 5 7 0 0
BITMAP
70
88
08
F8
20
40
F8
ENDCHAR
STARTCHAR LATIN
ENCODING 444
SWIDTH 500 0
DWIDTH 5 0
BBX 5 7 0 0
BITMAP
F8
40
70
08
08
88
70
ENDCHAR
STARTCHAR LATIN
ENCODING 445
SWIDTH 500 0
DWIDTH 5 0
BBX 5 6 0 0
BITMAP
F8
40
70
08
88
70
ENDCHAR
STARTCHAR LATIN
ENCODING 446
SWIDTH 500 0
DWIDTH 5 0
BBX 5 7 0 1
BITMAP
20
70
20
10
08
88
70
ENDCHAR
STARTCHAR LATIN
ENCODING 447
SWIDTH 500 0
DWIDTH 5 0
BBX 4 7 0 0
BITMAP
A0
D0
90
A0
C0
80
80
ENDCHAR
STARTCHAR LATIN
ENCODING 448
SWIDTH 500 0
DWIDTH 5 0
BBX 1 10 2 -2
BITMAP
80
80
80
80
80
80
80
80
80
80
ENDCHAR
STARTCHAR LATIN
ENCODING 449
SWIDTH 500 0
DWIDTH 5 0
BBX 3 10 0 -2
BITMAP
A0
A0
A0
A0
A0
A0
A0
A0
A0
A0
ENDCHAR
STARTCHAR LATIN
ENCODING 450
SWIDTH 500 0
DWIDTH 5 0
BBX 5 10 0 -2
BITMAP
20
20
20
F8
20
20
F8
20
20
20
ENDCHAR
STARTCHAR LATIN
ENCODING 451
SWIDTH 500 0
DWIDTH 5 0
BBX 1 7 2 0
BITMAP
80
80
80
80
80
00
80
ENDCHAR
STARTCHAR LATIN
ENCODING 452
SWIDTH 500 0
DWIDTH 5 0
BBX 6 9 0 0
BITMAP
14
08
C0
BC
A4
A8
A8
B0
DC
ENDCHAR
STARTCHAR LATIN
ENCODING 453
SWIDTH 500 0
DWIDTH 5 0
BBX 6 8 0 0
BITMAP
14
C8
A0
BC
A4
A8
B0
DC
ENDCHAR
STARTCHAR LATIN
ENCODING 454
SWIDTH 500 0
DWIDTH 5 0
BBX 6 9 0 0
BITMAP
20
34
28
20
7C
A4
A8
B0
7C
ENDCHAR
STARTCHAR LATIN
ENCODING 455
SWIDTH 500 0
DWIDTH 5 0
BBX 5 7 0 0
BITMAP
88
88
88
88
88
A8
D0
ENDCHAR
STARTCHAR LATIN
ENCODING 456
SWIDTH 500 0
DWIDTH 5 0
BBX 5 9 0 -2
BITMAP
88
80
98
88
88
88
E8
08
30
ENDCHAR
STARTCHAR LATIN
ENCODING 457
SWIDTH 500 0
DWIDTH 5 0
BBX 5 9 0 -2
BITMAP
C8
40
58
48
48
48
68
08
30
ENDCHAR
STARTCHAR LATIN
ENCODING 458
SWIDTH 500 0
DWIDTH 5 0
BBX 5 7 0 0
BITMAP
A8
A8
E8
E8
E8
A8
B0
ENDCHAR
STARTCHAR LATIN
ENCODING 459
SWIDTH 500 0
DWIDTH 5 0
BBX 5 9 0 -2
BITMAP
A8
A0
F8
E8
E8
A8
A8
08
30
ENDCHAR
STARTCHAR LATIN
ENCODING 460
SWIDTH 500 0
DWIDTH 5 0
BBX 5 9 0 -2
BITMAP
08
00
D8
A8
A8
A8
A8
08
30
ENDCHAR
STARTCHAR uni01CD
ENCODING 461
SWIDTH 500 0
DWIDTH 5 0
BBX 4 8 1 0
BITMAP
90
60
00
60
90
F0
90
90
ENDCHAR
STARTCHAR uni01CE
ENCODING 462
SWIDTH 500 0
DWIDTH 5 0
BBX 4 8 1 0
BITMAP
90
60
00
70
90
90
B0
50
ENDCHAR
STARTCHAR uni01CF
ENCODING 463
SWIDTH 500 0
DWIDTH 5 0
BBX 3 8 1 0
BITMAP
A0
40
00
E0
40
40
40
E0
ENDCHAR
STARTCHAR uni01D0
ENCODING 464
SWIDTH 500 0
DWIDTH 5 0
BBX 3 8 2 0
BITMAP
A0
40
00
C0
40
40
40
40
ENDCHAR
STARTCHAR uni01D1
ENCODING 465
SWIDTH 500 0
DWIDTH 5 0
BBX 4 8 1 0
BITMAP
90
60
00
60
90
90
90
60
ENDCHAR
STARTCHAR uni01D2
ENCODING 466
SWIDTH 500 0
DWIDTH 5 0
BBX 4 7 1 0
BITMAP
90
60
00
60
90
90
60
ENDCHAR
STARTCHAR uni01D3
ENCODING 467
SWIDTH 500 0
DWIDTH 5 0
BBX 4 8 1 0
BITMAP
50
20
90
90
90
90
90
70
ENDCHAR
STARTCHAR uni01D4
ENCODING 468
SWIDTH 500 0
DWIDTH 5 0
BBX 4 7 1 0
BITMAP
90
60
00
90
90
90
70
ENDCHAR
STARTCHAR uni01D5
ENCODING 469
SWIDTH 500 0
DWIDTH 5 0
BBX 4 8 1 0
BITMAP
F0
20
90
90
90
90
90
70
ENDCHAR
STARTCHAR uni01D6
ENCODING 470
SWIDTH 500 0
DWIDTH 5 0
BBX 4 8 1 0
BITMAP
F0
60
00
90
90
90
90
70
ENDCHAR
STARTCHAR uni01D7
ENCODING 471
SWIDTH 500 0
DWIDTH 5 0
BBX 4 8 1 0
BITMAP
20
40
D0
90
90
90
90
70
ENDCHAR
STARTCHAR uni01D8
ENCODING 472
SWIDTH 500 0
DWIDTH 5 0
BBX 4 8 1 0
BITMAP
20
60
00
90
90
90
90
70
ENDCHAR
STARTCHAR uni01D9
ENCODING 473
SWIDTH 500 0
DWIDTH 5 0
BBX 4 8 1 0
BITMAP
50
20
D0
90
90
90
90
70
ENDCHAR
STARTCHAR uni01DA
ENCODING 474
SWIDTH 500 0
DWIDTH 5 0
BBX 4 8 1 0
BITMAP
50
20
50
00
90
90
90
70
ENDCHAR
STARTCHAR uni01DB
ENCODING 475
SWIDTH 500 0
DWIDTH 5 0
BBX 4 8 1 0
BITMAP
40
20
B0
90
90
90
90
70
ENDCHAR
STARTCHAR uni01DC
ENCODING 476
SWIDTH 500 0
DWIDTH 5 0
BBX 4 8 1 0
BITMAP
40
60
00
90
90
90
90
70
ENDCHAR
STARTCHAR uni01DD
ENCODING 477
SWIDTH 500 0
DWIDTH 5 0
BBX 4 5 1 0
BITMAP
E0
10
F0
90
60
ENDCHAR
STARTCHAR uni01DE
ENCODING 478
SWIDTH 500 0
DWIDTH 5 0
BBX 4 8 1 0
BITMAP
F0
A0
00
60
90
F0
90
90
ENDCHAR
STARTCHAR uni01DF
ENCODING 479
SWIDTH 500 0
DWIDTH 5 0
BBX 4 8 1 0
BITMAP
F0
A0
00
70
90
90
B0
50
ENDCHAR
STARTCHAR uni01E0
ENCODING 480
SWIDTH 500 0
DWIDTH 5 0
BBX 4 8 1 0
BITMAP
F0
60
00
60
90
F0
90
90
ENDCHAR
STARTCHAR uni01E1
ENCODING 481
SWIDTH 500 0
DWIDTH 5 0
BBX 4 8 1 0
BITMAP
F0
60
00
70
90
90
B0
50
ENDCHAR
STARTCHAR LATIN
ENCODING 482
SWIDTH 500 0
DWIDTH 5 0
BBX 5 9 0 0
BITMAP
70
00
78
A0
A0
F0
A0
A0
B8
ENDCHAR
STARTCHAR LATIN
ENCODING 483
SWIDTH 500 0
DWIDTH 5 0
BBX 5 7 0 0
BITMAP
70
00
70
A8
B8
A0
78
ENDCHAR
STARTCHAR uni01E4
ENCODING 484
SWIDTH 500 0
DWIDTH 5 0
BBX 4 6 1 0
BITMAP
70
80
80
B0
B0
70
ENDCHAR
STARTCHAR uni01E5
ENCODING 485
SWIDTH 500 0
DWIDTH 5 0
BBX 4 7 1 -2
BITMAP
70
90
90
B0
70
50
60
ENDCHAR
STARTCHAR Gcaron
ENCODING 486
SWIDTH 500 0
DWIDTH 5 0
BBX 4 8 1 0
BITMAP
50
20
00
70
80
B0
90
70
ENDCHAR
STARTCHAR gcaron
ENCODING 487
SWIDTH 500 0
DWIDTH 5 0
BBX 4 10 1 -2
BITMAP
50
20
00
70
90
90
B0
50
10
60
ENDCHAR
STARTCHAR uni01E8
ENCODING 488
SWIDTH 500 0
DWIDTH 5 0
BBX 4 6 1 0
BITMAP
90
A0
C0
A0
90
90
ENDCHAR
STARTCHAR uni01E9
ENCODING 489
SWIDTH 500 0
DWIDTH 5 0
BBX 4 7 1 0
BITMAP
80
80
90
A0
E0
90
90
ENDCHAR
STARTCHAR uni01EA
ENCODING 490
SWIDTH 500 0
DWIDTH 5 0
BBX 4 7 1 -1
BITMAP
60
90
90
90
90
60
30
ENDCHAR
STARTCHAR uni01EB
ENCODING 491
SWIDTH 500 0
DWIDTH 5 0
BBX 4 6 1 -1
BITMAP
60
90
90
90
60
30
ENDCHAR
STARTCHAR uni01EC
ENCODING 492
SWIDTH 500 0
DWIDTH 5 0
BBX 4 9 1 -1
BITMAP
50
20
60
90
90
90
90
60
30
ENDCHAR
STARTCHAR uni01ED
ENCODING 493
SWIDTH 500 0
DWIDTH 5 0
BBX 4 9 1 -1
BITMAP
50
20
00
60
90
90
90
60
30
ENDCHAR
STARTCHAR LATIN
ENCODING 494
SWIDTH 500 0
DWIDTH 5 0
BBX 4 8 1 0
BITMAP
50
20
F0
10
20
10
90
60
ENDCHAR
STARTCHAR LATIN
ENCODING 495
SWIDTH 500 0
DWIDTH 5 0
BBX 4 9 1 -1
BITMAP
50
20
00
F0
10
20
10
90
60
ENDCHAR
STARTCHAR uni01F0
ENCODING 496
SWIDTH 500 0
DWIDTH 5 0
BBX 4 10 1 -2
BITMAP
50
20
00
60
20
20
20
20
20
C0
ENDCHAR
STARTCHAR LATIN
ENCODING 497
SWIDTH 500 0
DWIDTH 5 0
BBX 6 7 0 0
BITMAP
DC
A4
A8
A8
A8
B0
DC
ENDCHAR
STARTCHAR LATIN
ENCODING 498
SWIDTH 500 0
DWIDTH 5 0
BBX 6 7 0 0
BITMAP
C0
A0
BC
A4
A8
B0
DC
ENDCHAR
STARTCHAR LATIN
ENCODING 499
SWIDTH 500 0
DWIDTH 5 0
BBX 6 7 0 0
BITMAP
20
20
7C
A4
A8
B0
7C
ENDCHAR
STARTCHAR uni01F4
ENCODING 500
SWIDTH 500 0
DWIDTH 5 0
BBX 4 8 1 0
BITMAP
50
20
70
80
80
B0
90
70
ENDCHAR
STARTCHAR uni01F5
ENCODING 501
SWIDTH 500 0
DWIDTH 5 0
BBX 4 10 1 -2
BITMAP
50
20
00
70
90
90
B0
50
10
60
ENDCHAR
STARTCHAR LATIN
ENCODING 502
SWIDTH 500 0
DWIDTH 5 0
BBX 5 7 0 0
BITMAP
A0
A0
A8
E8
A8
A8
90
ENDCHAR
STARTCHAR LATIN
ENCODING 503
SWIDTH 500 0
DWIDTH 5 0
BBX 5 7 0 0
BITMAP
B0
C8
88
90
A0
C0
80
ENDCHAR
STARTCHAR uni01F8
ENCODING 504
SWIDTH 500 0
DWIDTH 5 0
BBX 4 8 1 0
BITMAP
40
20
90
D0
D0
B0
B0
90
ENDCHAR
STARTCHAR uni01F9
ENCODING 505
SWIDTH 500 0
DWIDTH 5 0
BBX 4 8 1 0
BITMAP
40
20
00
E0
90
90
90
90
ENDCHAR
STARTCHAR Aringacute
ENCODING 506
SWIDTH 500 0
DWIDTH 5 0
BBX 4 8 1 0
BITMAP
60
C0
40
60
90
F0
90
90
ENDCHAR
STARTCHAR aringacute
ENCODING 507
SWIDTH 500 0
DWIDTH 5 0
BBX 4 8 1 0
BITMAP
60
C0
40
70
90
90
B0
50
ENDCHAR
STARTCHAR char198
ENCODING 508
SWIDTH 500 0
DWIDTH 5 0
BBX 6 8 0 0
BITMAP
10
20
7C
90
98
F0
90
9C
ENDCHAR
STARTCHAR char230
ENCODING 509
SWIDTH 500 0
DWIDTH 5 0
BBX 5 7 1 0
BITMAP
10
20
70
A8
B8
A0
58
ENDCHAR
STARTCHAR char216
ENCODING 510
SWIDTH 500 0
DWIDTH 5 0
BBX 6 8 0 0
BITMAP
08
14
34
58
58
68
68
B0
ENDCHAR
STARTCHAR char248
ENCODING 511
SWIDTH 500 0
DWIDTH 5 0
BBX 6 8 0 0
BITMAP
08
14
00
34
58
78
68
B0
ENDCHAR
STARTCHAR uni0200
ENCODING 512
SWIDTH 500 0
DWIDTH 5 0
BBX 4 8 1 0
BITMAP
A0
50
60
90
90
F0
90
90
ENDCHAR
STARTCHAR uni0201
ENCODING 513
SWIDTH 500 0
DWIDTH 5 0
BBX 4 8 1 0
BITMAP
A0
50
00
70
90
90
B0
50
ENDCHAR
STARTCHAR uni0202
ENCODING 514
SWIDTH 500 0
DWIDTH 5 0
BBX 4 8 1 0
BITMAP
60
90
60
90
90
F0
90
90
ENDCHAR
STARTCHAR uni0203
ENCODING 515
SWIDTH 500 0
DWIDTH 5 0
BBX 4 8 1 0
BITMAP
60
90
00
70
90
90
B0
50
ENDCHAR
STARTCHAR uni0204
ENCODING 516
SWIDTH 500 0
DWIDTH 5 0
BBX 4 8 1 0
BITMAP
A0
50
F0
80
E0
80
80
F0
ENDCHAR
STARTCHAR uni0205
ENCODING 517
SWIDTH 500 0
DWIDTH 5 0
BBX 4 8 1 0
BITMAP
A0
50
00
60
90
F0
80
70
ENDCHAR
STARTCHAR uni0206
ENCODING 518
SWIDTH 500 0
DWIDTH 5 0
BBX 4 8 1 0
BITMAP
60
90
F0
80
E0
80
80
F0
ENDCHAR
STARTCHAR uni0207
ENCODING 519
SWIDTH 500 0
DWIDTH 5 0
BBX 4 7 1 0
BITMAP
60
90
60
90
F0
80
70
ENDCHAR
STARTCHAR uni0208
ENCODING 520
SWIDTH 500 0
DWIDTH 5 0
BBX 4 8 1 0
BITMAP
A0
50
E0
40
40
40
40
E0
ENDCHAR
STARTCHAR uni0209
ENCODING 521
SWIDTH 500 0
DWIDTH 5 0
BBX 4 8 1 0
BITMAP
A0
50
00
60
20
20
20
20
ENDCHAR
STARTCHAR uni020A
ENCODING 522
SWIDTH 500 0
DWIDTH 5 0
BBX 5 8 0 0
BITMAP
70
88
00
70
20
20
20
70
ENDCHAR
STARTCHAR uni020B
ENCODING 523
SWIDTH 500 0
DWIDTH 5 0
BBX 4 8 1 0
BITMAP
60
90
00
00
60
20
20
20
ENDCHAR
STARTCHAR LATIN
ENCODING 524
SWIDTH 500 0
DWIDTH 5 0
BBX 5 9 0 0
BITMAP
A0
50
00
30
48
48
48
48
30
ENDCHAR
STARTCHAR LATIN
ENCODING 525
SWIDTH 500 0
DWIDTH 5 0
BBX 5 8 0 0
BITMAP
A0
50
00
30
48
48
48
30
ENDCHAR
STARTCHAR LATIN
ENCODING 526
SWIDTH 500 0
DWIDTH 5 0
BBX 4 9 1 0
BITMAP
60
90
00
60
90
90
90
90
60
ENDCHAR
STARTCHAR LATIN
ENCODING 527
SWIDTH 500 0
DWIDTH 5 0
BBX 4 8 1 0
BITMAP
60
90
00
60
90
90
90
60
ENDCHAR
STARTCHAR uni0210
ENCODING 528
SWIDTH 500 0
DWIDTH 5 0
BBX 4 8 1 0
BITMAP
A0
50
E0
90
90
E0
90
90
ENDCHAR
STARTCHAR uni0211
ENCODING 529
SWIDTH 500 0
DWIDTH 5 0
BBX 4 8 1 0
BITMAP
A0
50
00
B0
C0
80
80
80
ENDCHAR
STARTCHAR uni0212
ENCODING 530
SWIDTH 500 0
DWIDTH 5 0
BBX 4 8 1 0
BITMAP
60
90
E0
90
90
E0
90
90
ENDCHAR
STARTCHAR uni0213
ENCODING 531
SWIDTH 500 0
DWIDTH 5 0
BBX 4 8 1 0
BITMAP
60
90
00
B0
C0
80
80
80
ENDCHAR
STARTCHAR uni0214
ENCODING 532
SWIDTH 500 0
DWIDTH 5 0
BBX 4 8 1 0
BITMAP
A0
50
80
90
90
90
90
70
ENDCHAR
STARTCHAR uni0215
ENCODING 533
SWIDTH 500 0
DWIDTH 5 0
BBX 4 8 1 0
BITMAP
A0
50
00
90
90
90
90
70
ENDCHAR
STARTCHAR uni0216
ENCODING 534
SWIDTH 500 0
DWIDTH 5 0
BBX 4 8 1 0
BITMAP
60
90
00
90
90
90
90
70
ENDCHAR
STARTCHAR uni0217
ENCODING 535
SWIDTH 500 0
DWIDTH 5 0
BBX 4 8 1 0
BITMAP
60
90
00
00
90
90
90
70
ENDCHAR
STARTCHAR uni0218
ENCODING 536
SWIDTH 500 0
DWIDTH 5 0
BBX 4 7 1 -1
BITMAP
70
80
60
10
10
E0
40
ENDCHAR
STARTCHAR uni0219
ENCODING 537
SWIDTH 500 0
DWIDTH 5 0
BBX 4 6 1 -1
BITMAP
70
80
60
10
E0
40
ENDCHAR
STARTCHAR uni021A
ENCODING 538
SWIDTH 500 0
DWIDTH 5 0
BBX 5 7 0 -1
BITMAP
F8
20
20
20
20
20
40
ENDCHAR
STARTCHAR uni021B
ENCODING 539
SWIDTH 500 0
DWIDTH 5 0
BBX 3 7 1 -1
BITMAP
40
E0
40
40
40
60
80
ENDCHAR
STARTCHAR LATIN
ENCODING 540
SWIDTH 500 0
DWIDTH 5 0
BBX 4 8 1 -1
BITMAP
60
90
10
60
90
10
60
80
ENDCHAR
STARTCHAR LATIN
ENCODING 541
SWIDTH 500 0
DWIDTH 5 0
BBX 4 6 1 0
BITMAP
60
10
60
90
20
C0
ENDCHAR
STARTCHAR uni021E
ENCODING 542
SWIDTH 500 0
DWIDTH 5 0
BBX 4 8 1 0
BITMAP
50
20
90
90
F0
90
90
90
ENDCHAR
STARTCHAR uni021F
ENCODING 543
SWIDTH 500 0
DWIDTH 5 0
BBX 4 8 1 0
BITMAP
50
A0
80
E0
90
90
90
90
ENDCHAR
STARTCHAR LATIN
ENCODING 544
SWIDTH 500 0
DWIDTH 5 0
BBX 5 8 1 -2
BITMAP
B0
C8
88
88
88
88
08
08
ENDCHAR
STARTCHAR LATIN
ENCODING 545
SWIDTH 500 0
DWIDTH 5 0
BBX 6 8 0 -1
BITMAP
10
10
70
90
90
98
74
28
ENDCHAR
STARTCHAR LATIN
ENCODING 546
SWIDTH 500 0
DWIDTH 5 0
BBX 5 8 0 0
BITMAP
30
08
48
88
70
88
88
70
ENDCHAR
STARTCHAR LATIN
ENCODING 547
SWIDTH 500 0
DWIDTH 5 0
BBX 5 7 0 0
BITMAP
50
88
88
70
88
88
70
ENDCHAR
STARTCHAR uni0224
ENCODING 548
SWIDTH 500 0
DWIDTH 5 0
BBX 5 7 1 -1
BITMAP
F0
10
20
40
80
F0
08
ENDCHAR
STARTCHAR uni0225
ENCODING 549
SWIDTH 500 0
DWIDTH 5 0
BBX 5 6 1 -1
BITMAP
F0
20
40
80
F0
08
ENDCHAR
STARTCHAR uni0226
ENCODING 550
SWIDTH 500 0
DWIDTH 5 0
BBX 4 8 1 0
BITMAP
20
00
60
90
90
F0
90
90
ENDCHAR
STARTCHAR uni0227
ENCODING 551
SWIDTH 500 0
DWIDTH 5 0
BBX 4 7 1 0
BITMAP
20
00
70
90
90
B0
50
ENDCHAR
STARTCHAR uni0228
ENCODING 552
SWIDTH 500 0
DWIDTH 5 0
BBX 4 7 1 -1
BITMAP
F0
80
E0
80
80
F0
40
ENDCHAR
STARTCHAR uni0229
ENCODING 553
SWIDTH 500 0
DWIDTH 5 0
BBX 4 6 1 -1
BITMAP
60
90
F0
80
70
80
ENDCHAR
STARTCHAR LATIN
ENCODING 554
SWIDTH 500 0
DWIDTH 5 0
BBX 4 8 1 0
BITMAP
F0
00
90
60
90
90
90
60
ENDCHAR
STARTCHAR LATIN
ENCODING 555
SWIDTH 500 0
DWIDTH 5 0
BBX 4 8 1 0
BITMAP
F0
00
90
00
60
90
90
60
ENDCHAR
STARTCHAR LATIN
ENCODING 556
SWIDTH 500 0
DWIDTH 5 0
BBX 4 9 1 0
BITMAP
70
50
A0
60
90
90
90
90
60
ENDCHAR
STARTCHAR LATIN
ENCODING 557
SWIDTH 500 0
DWIDTH 5 0
BBX 4 9 1 0
BITMAP
E0
50
A0
00
60
90
90
90
60
ENDCHAR
STARTCHAR LATIN
ENCODING 558
SWIDTH 500 0
DWIDTH 5 0
BBX 4 8 1 0
BITMAP
20
00
60
90
90
90
90
60
ENDCHAR
STARTCHAR LATIN
ENCODING 559
SWIDTH 500 0
DWIDTH 5 0
BBX 4 8 1 0
BITMAP
20
00
00
60
90
90
90
60
ENDCHAR
STARTCHAR LATIN
ENCODING 560
SWIDTH 500 0
DWIDTH 5 0
BBX 4 8 1 0
BITMAP
F0
00
20
60
90
90
90
60
ENDCHAR
STARTCHAR LATIN
ENCODING 561
SWIDTH 500 0
DWIDTH 5 0
BBX 4 8 1 0
BITMAP
F0
00
20
00
60
90
90
60
ENDCHAR
STARTCHAR uni0232
ENCODING 562
SWIDTH 500 0
DWIDTH 5 0
BBX 5 8 0 0
BITMAP
70
00
88
50
20
20
20
20
ENDCHAR
STARTCHAR uni0233
ENCODING 563
SWIDTH 500 0
DWIDTH 5 0
BBX 4 9 1 -2
BITMAP
60
00
90
90
90
90
70
10
60
ENDCHAR
STARTCHAR LATIN
ENCODING 564
SWIDTH 500 0
DWIDTH 5 0
BBX 4 7 1 0
BITMAP
C0
40
40
40
60
D0
60
ENDCHAR
STARTCHAR LATIN
ENCODING 565
SWIDTH 500 0
DWIDTH 5 0
BBX 6 6 0 -1
BITMAP
B0
C8
88
98
B4
08
ENDCHAR
STARTCHAR LATIN
ENCODING 566
SWIDTH 500 0
DWIDTH 5 0
BBX 5 7 1 0
BITMAP
40
40
F0
40
50
68
70
ENDCHAR
STARTCHAR LATIN
ENCODING 567
SWIDTH 500 0
DWIDTH 5 0
BBX 3 7 0 -2
BITMAP
60
20
20
20
20
20
C0
ENDCHAR
STARTCHAR LATIN
ENCODING 568
SWIDTH 500 0
DWIDTH 5 0
BBX 5 7 0 0
BITMAP
20
20
70
A8
A8
A8
70
ENDCHAR
STARTCHAR LATIN
ENCODING 569
SWIDTH 500 0
DWIDTH 5 0
BBX 5 7 0 -2
BITMAP
70
A8
A8
A8
70
20
20
ENDCHAR
STARTCHAR uni023A
ENCODING 570
SWIDTH 500 0
DWIDTH 5 0
BBX 5 7 0 0
BITMAP
08
30
58
68
78
48
C8
ENDCHAR
STARTCHAR uni023B
ENCODING 571
SWIDTH 500 0
DWIDTH 5 0
BBX 5 7 0 0
BITMAP
08
38
50
60
60
C0
B8
ENDCHAR
STARTCHAR uni023C
ENCODING 572
SWIDTH 500 0
DWIDTH 5 0
BBX 5 6 0 0
BITMAP
08
38
50
60
40
B8
ENDCHAR
STARTCHAR LATIN
ENCODING 573
SWIDTH 500 0
DWIDTH 5 0
BBX 6 7 0 0
BITMAP
40
40
40
F0
40
40
7C
ENDCHAR
STARTCHAR LATIN
ENCODING 574
SWIDTH 500 0
DWIDTH 5 0
BBX 5 8 0 0
BITMAP
08
F8
30
30
60
60
A0
A0
ENDCHAR
STARTCHAR uni023F
ENCODING 575
SWIDTH 500 0
DWIDTH 5 0
BBX 5 7 1 -2
BITMAP
70
80
60
10
E0
48
30
ENDCHAR
STARTCHAR uni0240
ENCODING 576
SWIDTH 500 0
DWIDTH 5 0
BBX 4 7 1 -2
BITMAP
F0
20
40
80
F0
40
30
ENDCHAR
STARTCHAR LATIN
ENCODING 577
SWIDTH 500 0
DWIDTH 5 0
BBX 5 7 0 1
BITMAP
70
88
08
10
20
20
20
ENDCHAR
STARTCHAR LATIN
ENCODING 578
SWIDTH 500 0
DWIDTH 5 0
BBX 5 6 0 1
BITMAP
70
88
08
10
20
20
ENDCHAR
STARTCHAR uni0243
ENCODING 579
SWIDTH 500 0
DWIDTH 5 0
BBX 6 6 0 0
BITMAP
70
4C
70
68
C8
70
ENDCHAR
STARTCHAR uni0244
ENCODING 580
SWIDTH 500 0
DWIDTH 5 0
BBX 4 6 1 0
BITMAP
90
90
F0
90
90
60
ENDCHAR
STARTCHAR uni0245
ENCODING 581
SWIDTH 500 0
DWIDTH 5 0
BBX 4 6 1 0
BITMAP
60
60
60
90
90
90
ENDCHAR
STARTCHAR LATIN
ENCODING 582
SWIDTH 500 0
DWIDTH 5 0
BBX 5 10 0 -2
BITMAP
08
F8
90
90
F0
A0
C0
F8
80
80
ENDCHAR
STARTCHAR LATIN
ENCODING 583
SWIDTH 500 0
DWIDTH 5 0
BBX 5 10 0 -2
BITMAP
08
08
10
70
A8
F8
C0
70
80
80
ENDCHAR
STARTCHAR LATIN
ENCODING 584
SWIDTH 500 0
DWIDTH 5 0
BBX 6 7 0 0
BITMAP
08
08
08
1C
08
88
70
ENDCHAR
STARTCHAR LATIN
ENCODING 585
SWIDTH 500 0
DWIDTH 5 0
BBX 4 9 0 -2
BITMAP
20
00
60
20
70
20
20
20
C0
ENDCHAR
STARTCHAR uni024A
ENCODING 586
SWIDTH 500 0
DWIDTH 5 0
BBX 5 8 1 -2
BITMAP
70
90
90
90
90
70
10
08
ENDCHAR
STARTCHAR uni024B
ENCODING 587
SWIDTH 500 0
DWIDTH 5 0
BBX 5 7 1 -2
BITMAP
70
90
90
90
70
10
08
ENDCHAR
STARTCHAR uni024C
ENCODING 588
SWIDTH 500 0
DWIDTH 5 0
BBX 5 6 0 0
BITMAP
70
48
48
F0
48
48
ENDCHAR
STARTCHAR uni024D
ENCODING 589
SWIDTH 500 0
DWIDTH 5 0
BBX 5 5 0 0
BITMAP
58
E0
40
40
40
ENDCHAR
STARTCHAR uni024E
ENCODING 590
SWIDTH 500 0
DWIDTH 5 0
BBX 5 6 0 0
BITMAP
88
70
50
20
20
20
ENDCHAR
STARTCHAR uni024F
ENCODING 591
SWIDTH 500 0
DWIDTH 5 0
BBX 4 7 1 -2
BITMAP
90
F0
90
90
70
10
60
ENDCHAR
STARTCHAR uni0250
ENCODING 592
SWIDTH 500 0
DWIDTH 5 0
BBX 4 5 1 0
BITMAP
A0
D0
90
90
E0
ENDCHAR
STARTCHAR uni0251
ENCODING 593
SWIDTH 500 0
DWIDTH 5 0
BBX 4 5 1 0
BITMAP
50
B0
90
B0
50
ENDCHAR
STARTCHAR uni0252
ENCODING 594
SWIDTH 500 0
DWIDTH 5 0
BBX 4 5 1 0
BITMAP
A0
D0
90
D0
A0
ENDCHAR
STARTCHAR uni0253
ENCODING 595
SWIDTH 500 0
DWIDTH 5 0
BBX 4 7 1 0
BITMAP
80
80
E0
90
90
90
E0
ENDCHAR
STARTCHAR uni0254
ENCODING 596
SWIDTH 500 0
DWIDTH 5 0
BBX 4 5 1 0
BITMAP
60
90
80
90
60
ENDCHAR
STARTCHAR uni0255
ENCODING 597
SWIDTH 500 0
DWIDTH 5 0
BBX 4 5 1 0
BITMAP
60
90
80
B0
60
ENDCHAR
STARTCHAR uni0256
ENCODING 598
SWIDTH 500 0
DWIDTH 5 0
BBX 5 8 1 -1
BITMAP
10
10
70
90
90
B0
50
08
ENDCHAR
STARTCHAR uni0257
ENCODING 599
SWIDTH 500 0
DWIDTH 5 0
BBX 5 8 1 0
BITMAP
08
10
10
70
90
90
B0
50
ENDCHAR
STARTCHAR uni0258
ENCODING 600
SWIDTH 500 0
DWIDTH 5 0
BBX 4 5 1 0
BITMAP
60
90
F0
10
E0
ENDCHAR
STARTCHAR uni0259
ENCODING 601
SWIDTH 500 0
DWIDTH 5 0
BBX 4 5 1 0
BITMAP
E0
10
F0
90
60
ENDCHAR
STARTCHAR uni025A
ENCODING 602
SWIDTH 500 0
DWIDTH 5 0
BBX 5 5 1 0
BITMAP
E8
10
F0
90
60
ENDCHAR
STARTCHAR uni025B
ENCODING 603
SWIDTH 500 0
DWIDTH 5 0
BBX 4 6 1 0
BITMAP
70
80
60
80
80
70
ENDCHAR
STARTCHAR uni025C
ENCODING 604
SWIDTH 500 0
DWIDTH 5 0
BBX 4 6 1 0
BITMAP
E0
10
60
10
10
E0
ENDCHAR
STARTCHAR uni025D
ENCODING 605
SWIDTH 500 0
DWIDTH 5 0
BBX 5 6 1 0
BITMAP
E8
10
60
10
10
E0
ENDCHAR
STARTCHAR char223
ENCODING 606
SWIDTH 500 0
DWIDTH 5 0
BBX 4 6 1 0
BITMAP
60
90
A0
90
90
60
ENDCHAR
STARTCHAR uni025F
ENCODING 607
SWIDTH 500 0
DWIDTH 5 0
BBX 4 7 1 -2
BITMAP
60
20
30
60
20
20
C0
ENDCHAR
STARTCHAR uni0260
ENCODING 608
SWIDTH 500 0
DWIDTH 5 0
BBX 5 8 1 -2
BITMAP
08
70
90
90
B0
50
10
60
ENDCHAR
STARTCHAR uni0261
ENCODING 609
SWIDTH 500 0
DWIDTH 5 0
BBX 4 7 1 -2
BITMAP
70
90
90
B0
50
10
60
ENDCHAR
STARTCHAR uni0262
ENCODING 610
SWIDTH 500 0
DWIDTH 5 0
BBX 4 5 1 0
BITMAP
70
80
B0
90
70
ENDCHAR
STARTCHAR uni0263
ENCODING 611
SWIDTH 500 0
DWIDTH 5 0
BBX 4 7 1 -2
BITMAP
90
90
90
60
60
90
60
ENDCHAR
STARTCHAR uni0264
ENCODING 612
SWIDTH 500 0
DWIDTH 5 0
BBX 6 7 0 -2
BITMAP
84
48
48
30
30
48
30
ENDCHAR
STARTCHAR uni0265
ENCODING 613
SWIDTH 500 0
DWIDTH 5 0
BBX 4 7 1 0
BITMAP
90
90
90
90
70
10
10
ENDCHAR
STARTCHAR uni0266
ENCODING 614
SWIDTH 500 0
DWIDTH 5 0
BBX 4 8 1 0
BITMAP
60
80
80
E0
90
90
90
90
ENDCHAR
STARTCHAR uni0267
ENCODING 615
SWIDTH 500 0
DWIDTH 5 0
BBX 4 9 1 -1
BITMAP
60
80
80
E0
90
90
90
90
20
ENDCHAR
STARTCHAR uni0268
ENCODING 616
SWIDTH 500 0
DWIDTH 5 0
BBX 3 7 2 0
BITMAP
40
00
C0
40
E0
40
40
ENDCHAR
STARTCHAR uni0269
ENCODING 617
SWIDTH 500 0
DWIDTH 5 0
BBX 3 6 2 -1
BITMAP
C0
40
40
40
40
20
ENDCHAR
STARTCHAR uni026A
ENCODING 618
SWIDTH 500 0
DWIDTH 5 0
BBX 3 5 1 0
BITMAP
E0
40
40
40
E0
ENDCHAR
STARTCHAR uni026B
ENCODING 619
SWIDTH 500 0
DWIDTH 5 0
BBX 5 7 1 0
BITMAP
60
20
20
68
B0
20
20
ENDCHAR
STARTCHAR uni026C
ENCODING 620
SWIDTH 500 0
DWIDTH 5 0
BBX 4 7 1 0
BITMAP
60
20
60
A0
70
20
20
ENDCHAR
STARTCHAR uni026D
ENCODING 621
SWIDTH 500 0
DWIDTH 5 0
BBX 3 8 2 -1
BITMAP
C0
40
40
40
40
40
40
20
ENDCHAR
STARTCHAR LATIN
ENCODING 622
SWIDTH 500 0
DWIDTH 5 0
BBX 5 8 0 -1
BITMAP
80
F8
88
90
B0
88
48
30
ENDCHAR
STARTCHAR uni026F
ENCODING 623
SWIDTH 500 0
DWIDTH 5 0
BBX 4 5 1 0
BITMAP
90
90
90
F0
90
ENDCHAR
STARTCHAR uni0270
ENCODING 624
SWIDTH 500 0
DWIDTH 5 0
BBX 4 6 1 -1
BITMAP
90
90
90
F0
90
10
ENDCHAR
STARTCHAR uni0271
ENCODING 625
SWIDTH 500 0
DWIDTH 5 0
BBX 4 6 1 -1
BITMAP
90
F0
B0
90
90
20
ENDCHAR
STARTCHAR uni0272
ENCODING 626
SWIDTH 500 0
DWIDTH 5 0
BBX 5 6 0 -1
BITMAP
70
48
48
48
48
80
ENDCHAR
STARTCHAR uni0273
ENCODING 627
SWIDTH 500 0
DWIDTH 5 0
BBX 5 6 1 -1
BITMAP
E0
90
90
90
90
08
ENDCHAR
STARTCHAR GREEK
ENCODING 628
SWIDTH 500 0
DWIDTH 5 0
BBX 4 5 1 0
BITMAP
90
D0
B0
90
90
ENDCHAR
STARTCHAR LATIN
ENCODING 629
SWIDTH 500 0
DWIDTH 5 0
BBX 4 5 1 0
BITMAP
60
90
F0
90
60
ENDCHAR
STARTCHAR char230
ENCODING 630
SWIDTH 500 0
DWIDTH 5 0
BBX 6 5 1 0
BITMAP
78
94
9C
90
7C
ENDCHAR
STARTCHAR GREEK
ENCODING 631
SWIDTH 500 0
DWIDTH 5 0
BBX 5 5 0 0
BITMAP
70
88
88
A8
D8
ENDCHAR
STARTCHAR GREEK
ENCODING 632
SWIDTH 500 0
DWIDTH 5 0
BBX 5 7 0 0
BITMAP
20
70
A8
A8
A8
70
20
ENDCHAR
STARTCHAR uni0279
ENCODING 633
SWIDTH 500 0
DWIDTH 5 0
BBX 4 5 1 0
BITMAP
10
10
10
30
D0
ENDCHAR
STARTCHAR uni027A
ENCODING 634
SWIDTH 500 0
DWIDTH 5 0
BBX 4 6 1 0
BITMAP
10
10
10
10
30
D0
ENDCHAR
STARTCHAR uni027B
ENCODING 635
SWIDTH 500 0
DWIDTH 5 0
BBX 5 6 1 -1
BITMAP
10
10
10
30
D0
08
ENDCHAR
STARTCHAR uni027C
ENCODING 636
SWIDTH 500 0
DWIDTH 5 0
BBX 4 6 1 0
BITMAP
B0
C0
80
80
80
80
ENDCHAR
STARTCHAR uni027D
ENCODING 637
SWIDTH 500 0
DWIDTH 5 0
BBX 4 7 1 -1
BITMAP
B0
C0
80
80
80
80
40
ENDCHAR
STARTCHAR uni027E
ENCODING 638
SWIDTH 500 0
DWIDTH 5 0
BBX 4 5 1 0
BITMAP
60
90
80
80
80
ENDCHAR
STARTCHAR uni027F
ENCODING 639
SWIDTH 500 0
DWIDTH 5 0
BBX 4 5 1 0
BITMAP
60
90
10
10
10
ENDCHAR
STARTCHAR char1071
ENCODING 640
SWIDTH 500 0
DWIDTH 5 0
BBX 4 6 1 0
BITMAP
70
90
90
70
90
90
ENDCHAR
STARTCHAR char1071
ENCODING 641
SWIDTH 500 0
DWIDTH 5 0
BBX 4 6 1 0
BITMAP
90
90
E0
90
90
E0
ENDCHAR
STARTCHAR uni0282
ENCODING 642
SWIDTH 500 0
DWIDTH 5 0
BBX 4 7 1 -2
BITMAP
70
80
60
10
E0
80
40
ENDCHAR
STARTCHAR uni0283
ENCODING 643
SWIDTH 500 0
DWIDTH 5 0
BBX 5 8 0 -1
BITMAP
18
20
20
20
20
20
20
C0
ENDCHAR
STARTCHAR uni0284
ENCODING 644
SWIDTH 500 0
DWIDTH 5 0
BBX 5 8 0 -1
BITMAP
18
20
20
70
20
20
20
C0
ENDCHAR
STARTCHAR uni0285
ENCODING 645
SWIDTH 500 0
DWIDTH 5 0
BBX 3 7 1 -1
BITMAP
80
40
40
40
40
40
20
ENDCHAR
STARTCHAR uni0286
ENCODING 646
SWIDTH 500 0
DWIDTH 5 0
BBX 5 8 0 -1
BITMAP
10
20
20
20
20
60
B0
48
ENDCHAR
STARTCHAR uni0287
ENCODING 647
SWIDTH 500 0
DWIDTH 5 0
BBX 4 7 1 0
BITMAP
C0
20
20
70
20
20
20
ENDCHAR
STARTCHAR uni0288
ENCODING 648
SWIDTH 500 0
DWIDTH 5 0
BBX 4 5 1 0
BITMAP
90
F0
90
90
70
ENDCHAR
STARTCHAR uni0289
ENCODING 649
SWIDTH 500 0
DWIDTH 5 0
BBX 4 5 1 0
BITMAP
90
60
90
90
70
ENDCHAR
STARTCHAR uni028A
ENCODING 650
SWIDTH 500 0
DWIDTH 5 0
BBX 4 5 1 0
BITMAP
A0
90
90
60
60
ENDCHAR
STARTCHAR uni028B
ENCODING 651
SWIDTH 500 0
DWIDTH 5 0
BBX 4 5 1 0
BITMAP
60
60
90
90
90
ENDCHAR
STARTCHAR uni028C
ENCODING 652
SWIDTH 500 0
DWIDTH 5 0
BBX 6 5 0 0
BITMAP
30
30
48
48
84
ENDCHAR
STARTCHAR uni028D
ENCODING 653
SWIDTH 500 0
DWIDTH 5 0
BBX 4 5 1 0
BITMAP
90
F0
B0
90
90
ENDCHAR
STARTCHAR uni028E
ENCODING 654
SWIDTH 500 0
DWIDTH 5 0
BBX 4 7 1 -2
BITMAP
60
80
E0
90
90
90
90
ENDCHAR
STARTCHAR uni028F
ENCODING 655
SWIDTH 500 0
DWIDTH 5 0
BBX 5 4 0 0
BITMAP
88
50
20
20
ENDCHAR
STARTCHAR uni0290
ENCODING 656
SWIDTH 500 0
DWIDTH 5 0
BBX 4 7 1 -2
BITMAP
F0
20
40
80
F0
10
20
ENDCHAR
STARTCHAR uni0291
ENCODING 657
SWIDTH 500 0
DWIDTH 5 0
BBX 4 6 1 -1
BITMAP
F0
20
40
A0
F0
20
ENDCHAR
STARTCHAR uni0292
ENCODING 658
SWIDTH 500 0
DWIDTH 5 0
BBX 4 7 1 -2
BITMAP
F0
20
40
20
10
90
60
ENDCHAR
STARTCHAR uni0293
ENCODING 659
SWIDTH 500 0
DWIDTH 5 0
BBX 4 7 1 -2
BITMAP
F0
20
40
20
50
B0
60
ENDCHAR
STARTCHAR LATIN
ENCODING 660
SWIDTH 500 0
DWIDTH 5 0
BBX 5 7 0 0
BITMAP
70
88
08
10
20
20
20
ENDCHAR
STARTCHAR LATIN
ENCODING 661
SWIDTH 500 0
DWIDTH 5 0
BBX 5 7 0 0
BITMAP
70
88
80
40
20
20
20
ENDCHAR
STARTCHAR LATIN
ENCODING 662
SWIDTH 500 0
DWIDTH 5 0
BBX 5 7 0 0
BITMAP
20
20
20
10
08
88
70
ENDCHAR
STARTCHAR uni0297
ENCODING 663
SWIDTH 500 0
DWIDTH 5 0
BBX 4 7 1 -1
BITMAP
70
80
80
80
80
80
70
ENDCHAR
STARTCHAR LATIN
ENCODING 664
SWIDTH 500 0
DWIDTH 5 0
BBX 5 5 0 0
BITMAP
70
88
A8
88
70
ENDCHAR
STARTCHAR LATIN
ENCODING 665
SWIDTH 500 0
DWIDTH 5 0
BBX 4 5 1 0
BITMAP
E0
90
E0
90
E0
ENDCHAR
STARTCHAR LATIN
ENCODING 666
SWIDTH 500 0
DWIDTH 5 0
BBX 4 5 1 0
BITMAP
60
90
70
90
60
ENDCHAR
STARTCHAR uni029B
ENCODING 667
SWIDTH 500 0
DWIDTH 5 0
BBX 5 6 1 0
BITMAP
08
70
80
B0
90
70
ENDCHAR
STARTCHAR uni029C
ENCODING 668
SWIDTH 500 0
DWIDTH 5 0
BBX 4 5 1 0
BITMAP
90
90
F0
90
90
ENDCHAR
STARTCHAR uni029D
ENCODING 669
SWIDTH 500 0
DWIDTH 5 0
BBX 4 9 1 -2
BITMAP
20
00
60
20
20
20
70
A0
C0
ENDCHAR
STARTCHAR uni029E
ENCODING 670
SWIDTH 500 0
DWIDTH 5 0
BBX 4 7 1 0
BITMAP
90
90
70
50
90
10
10
ENDCHAR
STARTCHAR LATIN
ENCODING 671
SWIDTH 500 0
DWIDTH 5 0
BBX 4 5 1 0
BITMAP
80
80
80
80
F0
ENDCHAR
STARTCHAR uni02A0
ENCODING 672
SWIDTH 500 0
DWIDTH 5 0
BBX 5 8 1 -2
BITMAP
08
70
90
90
90
70
10
10
ENDCHAR
STARTCHAR LATIN
ENCODING 673
SWIDTH 500 0
DWIDTH 5 0
BBX 5 7 0 0
BITMAP
70
88
08
10
20
70
20
ENDCHAR
STARTCHAR LATIN
ENCODING 674
SWIDTH 500 0
DWIDTH 5 0
BBX 5 7 0 0
BITMAP
70
88
80
40
20
70
20
ENDCHAR
STARTCHAR LATIN
ENCODING 675
SWIDTH 500 0
DWIDTH 5 0
BBX 6 7 0 0
BITMAP
20
20
7C
A4
A8
B0
7C
ENDCHAR
STARTCHAR LATIN
ENCODING 676
SWIDTH 500 0
DWIDTH 5 0
BBX 6 8 0 -1
BITMAP
20
20
7C
A4
A8
A4
74
08
ENDCHAR
STARTCHAR LATIN
ENCODING 677
SWIDTH 500 0
DWIDTH 5 0
BBX 6 8 0 -1
BITMAP
20
20
7C
A4
A8
B4
7C
10
ENDCHAR
STARTCHAR LATIN
ENCODING 678
SWIDTH 500 0
DWIDTH 5 0
BBX 6 6 0 0
BITMAP
40
FC
60
58
44
38
ENDCHAR
STARTCHAR LATIN
ENCODING 679
SWIDTH 500 0
DWIDTH 5 0
BBX 5 9 0 -2
BITMAP
08
50
F0
50
50
50
30
10
20
ENDCHAR
STARTCHAR LATIN
ENCODING 680
SWIDTH 500 0
DWIDTH 5 0
BBX 6 7 0 -1
BITMAP
40
EC
50
58
54
3C
10
ENDCHAR
STARTCHAR LATIN
ENCODING 681
SWIDTH 500 0
DWIDTH 5 0
BBX 6 9 0 -2
BITMAP
20
40
40
F8
54
54
54
08
10
ENDCHAR
STARTCHAR LATIN
ENCODING 682
SWIDTH 500 0
DWIDTH 5 0
BBX 5 7 0 0
BITMAP
80
80
B8
C0
B0
88
F0
ENDCHAR
STARTCHAR LATIN
ENCODING 683
SWIDTH 500 0
DWIDTH 5 0
BBX 5 7 0 0
BITMAP
80
80
F8
90
A0
C0
F8
ENDCHAR
STARTCHAR LATIN
ENCODING 684
SWIDTH 500 0
DWIDTH 5 0
BBX 5 6 0 0
BITMAP
A8
A8
50
A8
A8
50
ENDCHAR
STARTCHAR LATIN
ENCODING 685
SWIDTH 500 0
DWIDTH 5 0
BBX 5 5 0 0
BITMAP
F8
88
00
F8
88
ENDCHAR
STARTCHAR uni02AE
ENCODING 686
SWIDTH 500 0
DWIDTH 5 0
BBX 5 7 0 0
BITMAP
88
48
48
48
38
08
08
ENDCHAR
STARTCHAR uni02AF
ENCODING 687
SWIDTH 500 0
DWIDTH 5 0
BBX 6 8 0 -1
BITMAP
88
48
48
48
38
08
08
04
ENDCHAR
STARTCHAR uni02C2
ENCODING 706
SWIDTH 500 0
DWIDTH 5 0
BBX 3 5 1 0
BITMAP
20
40
80
40
20
ENDCHAR
STARTCHAR uni02C3
ENCODING 707
SWIDTH 500 0
DWIDTH 5 0
BBX 3 5 1 0
BITMAP
80
40
20
40
80
ENDCHAR
STARTCHAR uni02C4
ENCODING 708
SWIDTH 500 0
DWIDTH 5 0
BBX 5 3 0 2
BITMAP
88
50
20
ENDCHAR
STARTCHAR uni02C5
ENCODING 709
SWIDTH 500 0
DWIDTH 5 0
BBX 5 3 0 2
BITMAP
20
50
88
ENDCHAR
STARTCHAR MODIFIER
ENCODING 710
SWIDTH 500 0
DWIDTH 5 0
BBX 5 3 0 5
BITMAP
20
50
88
ENDCHAR
STARTCHAR CARON
ENCODING 711
SWIDTH 500 0
DWIDTH 5 0
BBX 5 3 0 6
BITMAP
88
50
20
ENDCHAR
STARTCHAR MODIFIER
ENCODING 712
SWIDTH 500 0
DWIDTH 5 0
BBX 1 2 2 5
BITMAP
80
80
ENDCHAR
STARTCHAR MODIFIER
ENCODING 713
SWIDTH 500 0
DWIDTH 5 0
BBX 2 1 1 6
BITMAP
C0
ENDCHAR
STARTCHAR MODIFIER
ENCODING 714
SWIDTH 500 0
DWIDTH 5 0
BBX 2 2 2 5
BITMAP
40
80
ENDCHAR
STARTCHAR MODIFIER
ENCODING 715
SWIDTH 500 0
DWIDTH 5 0
BBX 2 2 2 5
BITMAP
80
40
ENDCHAR
STARTCHAR MODIFIER
ENCODING 720
SWIDTH 500 0
DWIDTH 5 0
BBX 3 6 1 0
BITMAP
E0
40
00
00
40
E0
ENDCHAR
STARTCHAR MODIFIER
ENCODING 721
SWIDTH 500 0
DWIDTH 5 0
BBX 3 2 1 2
BITMAP
E0
40
ENDCHAR
STARTCHAR BREVE
ENCODING 728
SWIDTH 500 0
DWIDTH 5 0
BBX 5 2 1 6
BITMAP
88
70
ENDCHAR
STARTCHAR DOT
ENCODING 729
SWIDTH 500 0
DWIDTH 5 0
BBX 2 2 2 7
BITMAP
C0
C0
ENDCHAR
STARTCHAR RING
ENCODING 730
SWIDTH 500 0
DWIDTH 5 0
BBX 3 3 1 5
BITMAP
40
A0
40
ENDCHAR
STARTCHAR OGONEK
ENCODING 731
SWIDTH 500 0
DWIDTH 5 0
BBX 2 3 2 -2
BITMAP
40
80
40
ENDCHAR
STARTCHAR SMALL
ENCODING 732
SWIDTH 500 0
DWIDTH 5 0
BBX 5 2 0 6
BITMAP
68
B0
ENDCHAR
STARTCHAR DOUBLE
ENCODING 733
SWIDTH 500 0
DWIDTH 5 0
BBX 4 3 1 6
BITMAP
50
50
A0
ENDCHAR
STARTCHAR MODIFIER
ENCODING 736
SWIDTH 500 0
DWIDTH 5 0
BBX 5 5 0 1
BITMAP
88
50
20
50
20
ENDCHAR
STARTCHAR MODIFIER
ENCODING 740
SWIDTH 500 0
DWIDTH 5 0
BBX 3 5 1 3
BITMAP
60
80
80
40
40
ENDCHAR
STARTCHAR MODIFIER
ENCODING 750
SWIDTH 500 0
DWIDTH 5 0
BBX 5 4 0 3
BITMAP
D8
D8
48
90
ENDCHAR
STARTCHAR COMBINING
ENCODING 768
SWIDTH 500 0
DWIDTH 5 0
BBX 2 2 1 7
BITMAP
80
40
ENDCHAR
STARTCHAR COMBINING
ENCODING 769
SWIDTH 500 0
DWIDTH 5 0
BBX 2 2 1 7
BITMAP
40
80
ENDCHAR
STARTCHAR COMBINING
ENCODING 770
SWIDTH 500 0
DWIDTH 5 0
BBX 4 2 0 7
BITMAP
60
90
ENDCHAR
STARTCHAR COMBINING
ENCODING 771
SWIDTH 500 0
DWIDTH 5 0
BBX 5 2 0 7
BITMAP
68
B0
ENDCHAR
STARTCHAR COMBINING
ENCODING 772
SWIDTH 500 0
DWIDTH 5 0
BBX 3 1 1 8
BITMAP
E0
ENDCHAR
STARTCHAR COMBINING
ENCODING 773
SWIDTH 500 0
DWIDTH 5 0
BBX 5 1 0 8
BITMAP
F8
ENDCHAR
STARTCHAR COMBINING
ENCODING 774
SWIDTH 500 0
DWIDTH 5 0
BBX 4 2 1 7
BITMAP
90
60
ENDCHAR
STARTCHAR COMBINING
ENCODING 775
SWIDTH 500 0
DWIDTH 5 0
BBX 1 1 2 8
BITMAP
80
ENDCHAR
STARTCHAR COMBINING
ENCODING 776
SWIDTH 500 0
DWIDTH 5 0
BBX 3 1 1 8
BITMAP
A0
ENDCHAR
STARTCHAR COMBINING
ENCODING 777
SWIDTH 500 0
DWIDTH 5 0
BBX 3 3 1 6
BITMAP
C0
20
40
ENDCHAR
STARTCHAR COMBINING
ENCODING 778
SWIDTH 500 0
DWIDTH 5 0
BBX 3 3 2 6
BITMAP
40
A0
40
ENDCHAR
STARTCHAR COMBINING
ENCODING 779
SWIDTH 500 0
DWIDTH 5 0
BBX 5 2 0 7
BITMAP
48
90
ENDCHAR
STARTCHAR COMBINING
ENCODING 780
SWIDTH 500 0
DWIDTH 5 0
BBX 3 2 1 7
BITMAP
A0
40
ENDCHAR
STARTCHAR COMBINING
ENCODING 781
SWIDTH 500 0
DWIDTH 5 0
BBX 1 2 2 7
BITMAP
80
80
ENDCHAR
STARTCHAR COMBINING
ENCODING 782
SWIDTH 500 0
DWIDTH 5 0
BBX 3 2 1 7
BITMAP
A0
A0
ENDCHAR
STARTCHAR COMBINING
ENCODING 784
SWIDTH 500 0
DWIDTH 5 0
BBX 5 3 0 6
BITMAP
20
88
70
ENDCHAR
STARTCHAR COMBINING
ENCODING 785
SWIDTH 500 0
DWIDTH 5 0
BBX 5 2 0 7
BITMAP
70
88
ENDCHAR
STARTCHAR COMBINING
ENCODING 786
SWIDTH 500 0
DWIDTH 5 0
BBX 2 3 1 6
BITMAP
40
80
C0
ENDCHAR
STARTCHAR COMBINING
ENCODING 787
SWIDTH 500 0
DWIDTH 5 0
BBX 2 3 1 6
BITMAP
C0
40
80
ENDCHAR
STARTCHAR COMBINING
ENCODING 788
SWIDTH 500 0
DWIDTH 5 0
BBX 2 3 1 6
BITMAP
C0
80
40
ENDCHAR
STARTCHAR COMBINING
ENCODING 789
SWIDTH 500 0
DWIDTH 5 0
BBX 2 3 1 6
BITMAP
C0
40
80
ENDCHAR
STARTCHAR COMBINING
ENCODING 794
SWIDTH 500 0
DWIDTH 5 0
BBX 4 3 1 6
BITMAP
F0
10
10
ENDCHAR
STARTCHAR COMBINING
ENCODING 796
SWIDTH 500 0
DWIDTH 5 0
BBX 2 3 1 -3
BITMAP
40
80
40
ENDCHAR
STARTCHAR COMBINING
ENCODING 799
SWIDTH 500 0
DWIDTH 5 0
BBX 3 3 1 -3
BITMAP
40
E0
40
ENDCHAR
STARTCHAR COMBINING
ENCODING 800
SWIDTH 500 0
DWIDTH 5 0
BBX 3 1 1 -2
BITMAP
E0
ENDCHAR
STARTCHAR COMBINING
ENCODING 804
SWIDTH 500 0
DWIDTH 5 0
BBX 3 1 1 -2
BITMAP
A0
ENDCHAR
STARTCHAR COMBINING
ENCODING 805
SWIDTH 500 0
DWIDTH 5 0
BBX 3 3 1 -3
BITMAP
40
A0
40
ENDCHAR
STARTCHAR COMBINING
ENCODING 810
SWIDTH 500 0
DWIDTH 5 0
BBX 3 2 1 -2
BITMAP
E0
A0
ENDCHAR
STARTCHAR COMBINING
ENCODING 812
SWIDTH 500 0
DWIDTH 5 0
BBX 3 2 1 -2
BITMAP
A0
40
ENDCHAR
STARTCHAR COMBINING
ENCODING 816
SWIDTH 500 0
DWIDTH 5 0
BBX 4 2 1 -3
BITMAP
50
A0
ENDCHAR
STARTCHAR COMBINING
ENCODING 825
SWIDTH 500 0
DWIDTH 5 0
BBX 2 3 2 -3
BITMAP
80
40
80
ENDCHAR
STARTCHAR COMBINING
ENCODING 826
SWIDTH 500 0
DWIDTH 5 0
BBX 3 2 1 -3
BITMAP
A0
E0
ENDCHAR
STARTCHAR COMBINING
ENCODING 827
SWIDTH 500 0
DWIDTH 5 0
BBX 3 3 1 -3
BITMAP
E0
A0
E0
ENDCHAR
STARTCHAR COMBINING
ENCODING 828
SWIDTH 500 0
DWIDTH 5 0
BBX 5 2 0 -3
BITMAP
50
A8
ENDCHAR
STARTCHAR COMBINING
ENCODING 835
SWIDTH 500 0
DWIDTH 5 0
BBX 2 4 1 3
BITMAP
C0
C0
40
80
ENDCHAR
STARTCHAR COMBINING
ENCODING 836
SWIDTH 500 0
DWIDTH 5 0
BBX 3 2 1 2
BITMAP
E0
40
ENDCHAR
STARTCHAR COMBINING
ENCODING 860
SWIDTH 500 0
DWIDTH 5 0
BBX 5 2 0 -1
BITMAP
88
70
ENDCHAR
STARTCHAR COMBINING
ENCODING 865
SWIDTH 500 0
DWIDTH 5 0
BBX 5 2 0 7
BITMAP
70
88
ENDCHAR
STARTCHAR GREEK
ENCODING 880
SWIDTH 500 0
DWIDTH 5 0
BBX 4 7 0 0
BITMAP
80
80
80
F0
80
80
80
ENDCHAR
STARTCHAR GREEK
ENCODING 881
SWIDTH 500 0
DWIDTH 5 0
BBX 5 6 0 0
BITMAP
80
40
40
78
40
40
ENDCHAR
STARTCHAR GREEK
ENCODING 882
SWIDTH 500 0
DWIDTH 5 0
BBX 5 6 0 0
BITMAP
F8
A8
20
20
20
20
ENDCHAR
STARTCHAR GREEK
ENCODING 883
SWIDTH 500 0
DWIDTH 5 0
BBX 5 5 0 0
BITMAP
F8
A8
20
20
20
ENDCHAR
STARTCHAR GREEK
ENCODING 884
SWIDTH 500 0
DWIDTH 5 0
BBX 3 2 1 6
BITMAP
60
C0
ENDCHAR
STARTCHAR GREEK
ENCODING 885
SWIDTH 500 0
DWIDTH 5 0
BBX 4 3 0 -1
BITMAP
30
60
C0
ENDCHAR
STARTCHAR uni0376
ENCODING 886
SWIDTH 500 0
DWIDTH 5 0
BBX 4 6 1 0
BITMAP
90
B0
B0
D0
D0
90
ENDCHAR
STARTCHAR GREEK
ENCODING 887
SWIDTH 500 0
DWIDTH 5 0
BBX 5 6 1 -1
BITMAP
90
B0
D0
90
90
08
ENDCHAR
STARTCHAR GREEK
ENCODING 890
SWIDTH 500 0
DWIDTH 5 0
BBX 2 2 1 -2
BITMAP
80
C0
ENDCHAR
STARTCHAR GREEK
ENCODING 891
SWIDTH 500 0
DWIDTH 5 0
BBX 5 5 0 0
BITMAP
70
88
08
88
70
ENDCHAR
STARTCHAR GREEK
ENCODING 892
SWIDTH 500 0
DWIDTH 5 0
BBX 5 5 0 0
BITMAP
70
88
A0
88
70
ENDCHAR
STARTCHAR GREEK
ENCODING 893
SWIDTH 500 0
DWIDTH 5 0
BBX 5 5 0 0
BITMAP
70
88
28
88
70
ENDCHAR
STARTCHAR uni037E
ENCODING 894
SWIDTH 500 0
DWIDTH 5 0
BBX 2 6 1 -1
BITMAP
40
40
00
40
40
80
ENDCHAR
STARTCHAR uni037F
ENCODING 895
SWIDTH 500 0
DWIDTH 5 0
BBX 6 3 0 1
BITMAP
FC
FC
FC
ENDCHAR
STARTCHAR uni0380
ENCODING 896
SWIDTH 500 0
DWIDTH 5 0
BBX 5 3 0 0
BITMAP
F8
F8
F8
ENDCHAR
STARTCHAR uni0381
ENCODING 897
SWIDTH 500 0
DWIDTH 5 0
BBX 5 3 0 0
BITMAP
A8
50
A8
ENDCHAR
STARTCHAR GREEK
ENCODING 900
SWIDTH 500 0
DWIDTH 5 0
BBX 2 3 2 5
BITMAP
40
C0
80
ENDCHAR
STARTCHAR GREEK
ENCODING 901
SWIDTH 500 0
DWIDTH 5 0
BBX 6 3 0 5
BITMAP
10
B4
20
ENDCHAR
STARTCHAR GREEK
ENCODING 902
SWIDTH 500 0
DWIDTH 5 0
BBX 4 9 1 0
BITMAP
20
40
00
60
90
90
F0
90
90
ENDCHAR
STARTCHAR GREEK
ENCODING 903
SWIDTH 500 0
DWIDTH 5 0
BBX 2 2 2 3
BITMAP
C0
C0
ENDCHAR
STARTCHAR char201
ENCODING 904
SWIDTH 500 0
DWIDTH 5 0
BBX 4 8 1 0
BITMAP
20
40
F0
80
E0
80
80
F0
ENDCHAR
STARTCHAR GREEK
ENCODING 905
SWIDTH 500 0
DWIDTH 5 0
BBX 5 7 0 0
BITMAP
20
48
C8
78
48
48
48
ENDCHAR
STARTCHAR GREEK
ENCODING 906
SWIDTH 500 0
DWIDTH 5 0
BBX 4 7 0 0
BITMAP
20
70
A0
20
20
20
70
ENDCHAR
STARTCHAR GREEK
ENCODING 908
SWIDTH 500 0
DWIDTH 5 0
BBX 5 8 0 0
BITMAP
40
80
30
48
48
48
48
30
ENDCHAR
STARTCHAR GREEK
ENCODING 910
SWIDTH 500 0
DWIDTH 5 0
BBX 5 7 0 0
BITMAP
40
A8
28
28
10
10
10
ENDCHAR
STARTCHAR GREEK
ENCODING 911
SWIDTH 500 0
DWIDTH 5 0
BBX 5 8 0 0
BITMAP
40
80
70
88
88
88
50
D8
ENDCHAR
STARTCHAR GREEK
ENCODING 912
SWIDTH 500 0
DWIDTH 5 0
BBX 6 9 0 0
BITMAP
10
B4
20
00
20
20
20
20
20
ENDCHAR
STARTCHAR GREEK
ENCODING 913
SWIDTH 500 0
DWIDTH 5 0
BBX 4 6 1 0
BITMAP
60
90
90
F0
90
90
ENDCHAR
STARTCHAR Beta
ENCODING 914
SWIDTH 500 0
DWIDTH 5 0
BBX 4 6 1 0
BITMAP
E0
90
E0
90
90
E0
ENDCHAR
STARTCHAR GREEK
ENCODING 915
SWIDTH 500 0
DWIDTH 5 0
BBX 4 5 1 0
BITMAP
F0
80
80
80
80
ENDCHAR
STARTCHAR GREEK
ENCODING 916
SWIDTH 500 0
DWIDTH 5 0
BBX 5 6 0 0
BITMAP
20
20
50
50
88
F8
ENDCHAR
STARTCHAR Epsilon
ENCODING 917
SWIDTH 500 0
DWIDTH 5 0
BBX 4 6 1 0
BITMAP
F0
80
E0
80
80
F0
ENDCHAR
STARTCHAR Zeta
ENCODING 918
SWIDTH 500 0
DWIDTH 5 0
BBX 4 6 1 0
BITMAP
F0
10
20
40
80
F0
ENDCHAR
STARTCHAR Eta
ENCODING 919
SWIDTH 500 0
DWIDTH 5 0
BBX 4 6 1 0
BITMAP
90
90
F0
90
90
90
ENDCHAR
STARTCHAR GREEK
ENCODING 920
SWIDTH 500 0
DWIDTH 5 0
BBX 4 6 1 0
BITMAP
60
90
B0
D0
90
60
ENDCHAR
STARTCHAR GREEK
ENCODING 921
SWIDTH 500 0
DWIDTH 5 0
BBX 3 6 1 0
BITMAP
E0
40
40
40
40
E0
ENDCHAR
STARTCHAR Kappa
ENCODING 922
SWIDTH 500 0
DWIDTH 5 0
BBX 4 6 1 0
BITMAP
90
A0
C0
A0
90
90
ENDCHAR
STARTCHAR GREEK
ENCODING 923
SWIDTH 500 0
DWIDTH 5 0
BBX 5 6 0 0
BITMAP
20
20
50
50
88
88
ENDCHAR
STARTCHAR Mu
ENCODING 924
SWIDTH 500 0
DWIDTH 5 0
BBX 4 6 1 0
BITMAP
90
F0
B0
90
90
90
ENDCHAR
STARTCHAR Nu
ENCODING 925
SWIDTH 500 0
DWIDTH 5 0
BBX 4 6 1 0
BITMAP
90
D0
D0
B0
B0
90
ENDCHAR
STARTCHAR GREEK
ENCODING 926
SWIDTH 500 0
DWIDTH 5 0
BBX 5 5 0 0
BITMAP
F8
00
70
00
F8
ENDCHAR
STARTCHAR GREEK
ENCODING 927
SWIDTH 500 0
DWIDTH 5 0
BBX 4 6 1 0
BITMAP
60
90
90
90
90
60
ENDCHAR
STARTCHAR char1055
ENCODING 928
SWIDTH 500 0
DWIDTH 5 0
BBX 4 6 1 0
BITMAP
F0
90
90
90
90
90
ENDCHAR
STARTCHAR Rho
ENCODING 929
SWIDTH 500 0
DWIDTH 5 0
BBX 4 6 1 0
BITMAP
E0
90
90
E0
80
80
ENDCHAR
STARTCHAR GREEK
ENCODING 931
SWIDTH 500 0
DWIDTH 5 0
BBX 5 6 0 0
BITMAP
F8
40
20
40
80
F8
ENDCHAR
STARTCHAR GREEK
ENCODING 932
SWIDTH 500 0
DWIDTH 5 0
BBX 5 6 0 0
BITMAP
F8
20
20
20
20
20
ENDCHAR
STARTCHAR Upsilon
ENCODING 933
SWIDTH 500 0
DWIDTH 5 0
BBX 5 6 0 0
BITMAP
88
88
50
20
20
20
ENDCHAR
STARTCHAR GREEK
ENCODING 934
SWIDTH 500 0
DWIDTH 5 0
BBX 5 7 0 0
BITMAP
20
70
A8
A8
A8
70
20
ENDCHAR
STARTCHAR Chi
ENCODING 935
SWIDTH 500 0
DWIDTH 5 0
BBX 4 6 1 0
BITMAP
90
90
60
90
90
90
ENDCHAR
STARTCHAR GREEK
ENCODING 936
SWIDTH 500 0
DWIDTH 5 0
BBX 5 6 0 0
BITMAP
A8
A8
A8
70
20
20
ENDCHAR
STARTCHAR GREEK
ENCODING 937
SWIDTH 500 0
DWIDTH 5 0
BBX 5 6 0 0
BITMAP
70
88
88
88
50
D8
ENDCHAR
STARTCHAR GREEK
ENCODING 938
SWIDTH 500 0
DWIDTH 5 0
BBX 3 7 1 0
BITMAP
A0
00
40
40
40
40
40
ENDCHAR
STARTCHAR GREEK
ENCODING 939
SWIDTH 500 0
DWIDTH 5 0
BBX 5 8 0 0
BITMAP
50
00
88
88
50
20
20
20
ENDCHAR
STARTCHAR char225
ENCODING 940
SWIDTH 500 0
DWIDTH 5 0
BBX 4 8 1 0
BITMAP
20
40
00
70
90
90
B0
50
ENDCHAR
STARTCHAR GREEK
ENCODING 941
SWIDTH 500 0
DWIDTH 5 0
BBX 4 8 1 0
BITMAP
20
40
00
70
80
E0
80
70
ENDCHAR
STARTCHAR etatonos
ENCODING 942
SWIDTH 500 0
DWIDTH 5 0
BBX 4 9 1 -1
BITMAP
20
40
00
E0
90
90
90
90
10
ENDCHAR
STARTCHAR GREEK
ENCODING 943
SWIDTH 500 0
DWIDTH 5 0
BBX 3 8 1 0
BITMAP
20
40
00
C0
40
40
40
40
ENDCHAR
STARTCHAR GREEK
ENCODING 944
SWIDTH 500 0
DWIDTH 5 0
BBX 6 8 0 0
BITMAP
10
B4
20
48
48
48
48
38
ENDCHAR
STARTCHAR alpha
ENCODING 945
SWIDTH 500 0
DWIDTH 5 0
BBX 4 5 1 0
BITMAP
70
90
90
B0
50
ENDCHAR
STARTCHAR char223
ENCODING 946
SWIDTH 500 0
DWIDTH 5 0
BBX 4 7 1 -1
BITMAP
60
90
A0
90
90
A0
80
ENDCHAR
STARTCHAR gamma
ENCODING 947
SWIDTH 500 0
DWIDTH 5 0
BBX 4 7 1 -2
BITMAP
90
90
50
60
50
50
20
ENDCHAR
STARTCHAR GREEK
ENCODING 948
SWIDTH 500 0
DWIDTH 5 0
BBX 4 7 1 0
BITMAP
F0
80
60
90
90
90
60
ENDCHAR
STARTCHAR GREEK
ENCODING 949
SWIDTH 500 0
DWIDTH 5 0
BBX 4 5 1 0
BITMAP
70
80
E0
80
70
ENDCHAR
STARTCHAR GREEK
ENCODING 950
SWIDTH 500 0
DWIDTH 5 0
BBX 4 7 1 -1
BITMAP
F0
20
40
80
80
70
20
ENDCHAR
STARTCHAR GREEK
ENCODING 951
SWIDTH 500 0
DWIDTH 5 0
BBX 4 6 1 -1
BITMAP
E0
90
90
90
90
10
ENDCHAR
STARTCHAR GREEK
ENCODING 952
SWIDTH 500 0
DWIDTH 5 0
BBX 4 5 1 0
BITMAP
60
90
F0
90
60
ENDCHAR
STARTCHAR GREEK
ENCODING 953
SWIDTH 500 0
DWIDTH 5 0
BBX 2 5 2 0
BITMAP
C0
40
40
40
40
ENDCHAR
STARTCHAR kappa
ENCODING 954
SWIDTH 500 0
DWIDTH 5 0
BBX 4 5 1 0
BITMAP
90
A0
E0
90
90
ENDCHAR
STARTCHAR GREEK
ENCODING 955
SWIDTH 500 0
DWIDTH 5 0
BBX 4 7 1 0
BITMAP
80
80
40
60
60
90
90
ENDCHAR
STARTCHAR uni03BC
ENCODING 956
SWIDTH 500 0
DWIDTH 5 0
BBX 4 6 1 -1
BITMAP
90
90
90
90
E0
80
ENDCHAR
STARTCHAR nu
ENCODING 957
SWIDTH 500 0
DWIDTH 5 0
BBX 4 5 1 0
BITMAP
90
90
90
60
60
ENDCHAR
STARTCHAR GREEK
ENCODING 958
SWIDTH 500 0
DWIDTH 5 0
BBX 4 8 1 -2
BITMAP
60
90
40
80
80
60
10
20
ENDCHAR
STARTCHAR GREEK
ENCODING 959
SWIDTH 500 0
DWIDTH 5 0
BBX 4 5 1 0
BITMAP
60
90
90
90
60
ENDCHAR
STARTCHAR char960
ENCODING 960
SWIDTH 500 0
DWIDTH 5 0
BBX 5 5 1 0
BITMAP
F8
50
50
50
50
ENDCHAR
STARTCHAR rho
ENCODING 961
SWIDTH 500 0
DWIDTH 5 0
BBX 4 8 1 -3
BITMAP
60
90
90
90
E0
80
80
80
ENDCHAR
STARTCHAR char231
ENCODING 962
SWIDTH 500 0
DWIDTH 5 0
BBX 4 7 1 -2
BITMAP
70
80
80
80
70
20
40
ENDCHAR
STARTCHAR char240
ENCODING 963
SWIDTH 500 0
DWIDTH 5 0
BBX 5 5 1 0
BITMAP
78
90
90
90
60
ENDCHAR
STARTCHAR GREEK
ENCODING 964
SWIDTH 500 0
DWIDTH 5 0
BBX 4 5 1 0
BITMAP
F0
40
40
40
20
ENDCHAR
STARTCHAR upsilon
ENCODING 965
SWIDTH 500 0
DWIDTH 5 0
BBX 4 5 1 0
BITMAP
A0
90
90
90
60
ENDCHAR
STARTCHAR GREEK
ENCODING 966
SWIDTH 500 0
DWIDTH 5 0
BBX 5 7 1 -2
BITMAP
B0
A8
A8
A8
70
20
20
ENDCHAR
STARTCHAR chi
ENCODING 967
SWIDTH 500 0
DWIDTH 5 0
BBX 4 5 1 0
BITMAP
90
90
60
90
90
ENDCHAR
STARTCHAR GREEK
ENCODING 968
SWIDTH 500 0
DWIDTH 5 0
BBX 5 7 1 -2
BITMAP
A8
A8
A8
70
20
20
20
ENDCHAR
STARTCHAR GREEK
ENCODING 969
SWIDTH 500 0
DWIDTH 5 0
BBX 5 5 1 0
BITMAP
50
88
A8
A8
50
ENDCHAR
STARTCHAR GREEK
ENCODING 970
SWIDTH 500 0
DWIDTH 5 0
BBX 3 7 2 0
BITMAP
A0
00
C0
40
40
40
40
ENDCHAR
STARTCHAR char252
ENCODING 971
SWIDTH 500 0
DWIDTH 5 0
BBX 4 7 1 0
BITMAP
A0
00
90
90
90
90
70
ENDCHAR
STARTCHAR char243
ENCODING 972
SWIDTH 500 0
DWIDTH 5 0
BBX 4 8 1 0
BITMAP
10
20
00
60
90
90
90
60
ENDCHAR
STARTCHAR char250
ENCODING 973
SWIDTH 500 0
DWIDTH 5 0
BBX 4 8 1 0
BITMAP
20
40
00
90
90
90
90
70
ENDCHAR
STARTCHAR GREEK
ENCODING 974
SWIDTH 500 0
DWIDTH 5 0
BBX 5 8 1 0
BITMAP
20
40
00
50
88
A8
D8
88
ENDCHAR
STARTCHAR uni03CF
ENCODING 975
SWIDTH 500 0
DWIDTH 5 0
BBX 4 7 1 -1
BITMAP
90
A0
C0
A0
90
90
20
ENDCHAR
STARTCHAR GREEK
ENCODING 976
SWIDTH 500 0
DWIDTH 5 0
BBX 4 6 1 0
BITMAP
60
90
E0
90
90
60
ENDCHAR
STARTCHAR GREEK
ENCODING 977
SWIDTH 500 0
DWIDTH 5 0
BBX 6 6 0 0
BITMAP
30
48
5C
E8
48
30
ENDCHAR
STARTCHAR Upsilon1
ENCODING 978
SWIDTH 500 0
DWIDTH 5 0
BBX 6 6 0 0
BITMAP
88
8C
50
20
20
20
ENDCHAR
STARTCHAR uni03D3
ENCODING 979
SWIDTH 500 0
DWIDTH 5 0
BBX 6 7 0 0
BITMAP
40
88
8C
50
20
20
20
ENDCHAR
STARTCHAR uni03D4
ENCODING 980
SWIDTH 500 0
DWIDTH 5 0
BBX 6 8 0 0
BITMAP
50
00
88
8C
50
20
20
20
ENDCHAR
STARTCHAR GREEK
ENCODING 981
SWIDTH 500 0
DWIDTH 5 0
BBX 5 9 1 -2
BITMAP
20
20
70
A8
A8
A8
70
20
20
ENDCHAR
STARTCHAR GREEK
ENCODING 982
SWIDTH 500 0
DWIDTH 5 0
BBX 5 5 1 0
BITMAP
F8
88
A8
D8
88
ENDCHAR
STARTCHAR uni03D7
ENCODING 983
SWIDTH 500 0
DWIDTH 5 0
BBX 5 6 1 -1
BITMAP
90
90
60
90
98
20
ENDCHAR
STARTCHAR GREEK
ENCODING 984
SWIDTH 500 0
DWIDTH 5 0
BBX 5 8 0 -2
BITMAP
70
88
88
88
88
70
20
20
ENDCHAR
STARTCHAR GREEK
ENCODING 985
SWIDTH 500 0
DWIDTH 5 0
BBX 5 7 0 -2
BITMAP
70
88
88
88
70
20
20
ENDCHAR
STARTCHAR GREEK
ENCODING 986
SWIDTH 500 0
DWIDTH 5 0
BBX 5 8 1 -2
BITMAP
70
80
80
80
80
70
08
30
ENDCHAR
STARTCHAR GREEK
ENCODING 987
SWIDTH 500 0
DWIDTH 5 0
BBX 5 7 1 -2
BITMAP
70
80
80
80
70
08
30
ENDCHAR
STARTCHAR uni03DC
ENCODING 988
SWIDTH 500 0
DWIDTH 5 0
BBX 4 6 1 0
BITMAP
F0
80
F0
90
80
80
ENDCHAR
STARTCHAR uni03DD
ENCODING 989
SWIDTH 500 0
DWIDTH 5 0
BBX 4 6 1 -1
BITMAP
F0
80
E0
A0
80
80
ENDCHAR
STARTCHAR GREEK
ENCODING 990
SWIDTH 500 0
DWIDTH 5 0
BBX 6 6 0 -1
BITMAP
80
48
58
68
48
04
ENDCHAR
STARTCHAR GREEK
ENCODING 991
SWIDTH 500 0
DWIDTH 5 0
BBX 3 7 1 -1
BITMAP
20
40
80
E0
20
40
80
ENDCHAR
STARTCHAR GREEK
ENCODING 992
SWIDTH 500 0
DWIDTH 5 0
BBX 4 7 1 -1
BITMAP
40
20
60
90
30
50
10
ENDCHAR
STARTCHAR GREEK
ENCODING 993
SWIDTH 500 0
DWIDTH 5 0
BBX 4 7 1 -1
BITMAP
40
20
60
90
30
50
10
ENDCHAR
STARTCHAR COPTIC
ENCODING 994
SWIDTH 500 0
DWIDTH 5 0
BBX 5 7 1 -1
BITMAP
A8
A8
A8
A8
58
08
F0
ENDCHAR
STARTCHAR COPTIC
ENCODING 995
SWIDTH 500 0
DWIDTH 5 0
BBX 5 6 1 -2
BITMAP
A8
A8
A8
58
08
F0
ENDCHAR
STARTCHAR COPTIC
ENCODING 996
SWIDTH 500 0
DWIDTH 5 0
BBX 4 7 1 0
BITMAP
50
90
90
70
10
10
10
ENDCHAR
STARTCHAR COPTIC
ENCODING 997
SWIDTH 500 0
DWIDTH 5 0
BBX 4 6 1 0
BITMAP
50
90
90
70
10
10
ENDCHAR
STARTCHAR COPTIC
ENCODING 998
SWIDTH 500 0
DWIDTH 5 0
BBX 4 9 1 -2
BITMAP
80
80
80
E0
90
90
90
10
E0
ENDCHAR
STARTCHAR COPTIC
ENCODING 999
SWIDTH 500 0
DWIDTH 5 0
BBX 5 7 1 -1
BITMAP
10
70
A8
48
08
70
80
ENDCHAR
STARTCHAR uni03E8
ENCODING 1000
SWIDTH 500 0
DWIDTH 5 0
BBX 4 6 1 0
BITMAP
E0
10
60
80
90
60
ENDCHAR
STARTCHAR uni03E9
ENCODING 1001
SWIDTH 500 0
DWIDTH 5 0
BBX 4 6 1 0
BITMAP
E0
10
60
80
80
70
ENDCHAR
STARTCHAR COPTIC
ENCODING 1002
SWIDTH 500 0
DWIDTH 5 0
BBX 5 7 1 0
BITMAP
50
A8
20
50
50
88
F8
ENDCHAR
STARTCHAR COPTIC
ENCODING 1003
SWIDTH 500 0
DWIDTH 5 0
BBX 5 5 0 0
BITMAP
50
A8
20
50
70
ENDCHAR
STARTCHAR COPTIC
ENCODING 1004
SWIDTH 500 0
DWIDTH 5 0
BBX 4 7 1 0
BITMAP
70
80
E0
90
90
90
60
ENDCHAR
STARTCHAR COPTIC
ENCODING 1005
SWIDTH 500 0
DWIDTH 5 0
BBX 4 6 1 0
BITMAP
60
80
A0
90
90
60
ENDCHAR
STARTCHAR COPTIC
ENCODING 1006
SWIDTH 500 0
DWIDTH 5 0
BBX 5 6 0 0
BITMAP
20
70
A8
20
20
20
ENDCHAR
STARTCHAR COPTIC
ENCODING 1007
SWIDTH 500 0
DWIDTH 5 0
BBX 5 6 0 0
BITMAP
30
20
F8
A0
20
60
ENDCHAR
STARTCHAR uni03F0
ENCODING 1008
SWIDTH 500 0
DWIDTH 5 0
BBX 4 5 2 0
BITMAP
90
A0
60
50
90
ENDCHAR
STARTCHAR GREEK
ENCODING 1009
SWIDTH 500 0
DWIDTH 5 0
BBX 4 8 1 -3
BITMAP
60
90
90
90
E0
80
60
10
ENDCHAR
STARTCHAR uni03F2
ENCODING 1010
SWIDTH 500 0
DWIDTH 5 0
BBX 4 5 1 0
BITMAP
70
80
80
80
70
ENDCHAR
STARTCHAR uni03F3
ENCODING 1011
SWIDTH 500 0
DWIDTH 5 0
BBX 3 9 1 -2
BITMAP
20
00
60
20
20
20
20
20
C0
ENDCHAR
STARTCHAR GREEK
ENCODING 1012
SWIDTH 500 0
DWIDTH 5 0
BBX 4 6 1 0
BITMAP
60
90
B0
D0
90
60
ENDCHAR
STARTCHAR GREEK
ENCODING 1013
SWIDTH 500 0
DWIDTH 5 0
BBX 4 5 1 0
BITMAP
70
80
E0
80
70
ENDCHAR
STARTCHAR GREEK
ENCODING 1014
SWIDTH 500 0
DWIDTH 5 0
BBX 4 5 1 0
BITMAP
E0
10
70
10
E0
ENDCHAR
STARTCHAR GREEK
ENCODING 1015
SWIDTH 500 0
DWIDTH 5 0
BBX 4 6 1 0
BITMAP
80
E0
90
90
E0
80
ENDCHAR
STARTCHAR GREEK
ENCODING 1016
SWIDTH 500 0
DWIDTH 5 0
BBX 4 7 1 -1
BITMAP
80
E0
90
90
E0
80
80
ENDCHAR
STARTCHAR uni03F9
ENCODING 1017
SWIDTH 500 0
DWIDTH 5 0
BBX 4 6 1 0
BITMAP
70
80
80
80
80
70
ENDCHAR
STARTCHAR uni03FA
ENCODING 1018
SWIDTH 500 0
DWIDTH 5 0
BBX 4 6 1 0
BITMAP
90
F0
B0
90
90
90
ENDCHAR
STARTCHAR GREEK
ENCODING 1019
SWIDTH 500 0
DWIDTH 5 0
BBX 4 6 1 -2
BITMAP
90
F0
B0
90
80
80
ENDCHAR
STARTCHAR uni03FC
ENCODING 1020
SWIDTH 500 0
DWIDTH 5 0
BBX 4 8 1 -3
BITMAP
60
90
90
90
E0
80
C0
80
ENDCHAR
STARTCHAR uni03FD
ENCODING 1021
SWIDTH 500 0
DWIDTH 5 0
BBX 5 6 1 0
BITMAP
70
88
08
08
88
70
ENDCHAR
STARTCHAR uni03FE
ENCODING 1022
SWIDTH 500 0
DWIDTH 5 0
BBX 4 6 1 0
BITMAP
70
80
A0
80
80
70
ENDCHAR
STARTCHAR uni03FF
ENCODING 1023
SWIDTH 500 0
DWIDTH 5 0
BBX 4 6 1 0
BITMAP
E0
10
50
10
10
E0
ENDCHAR
STARTCHAR char203
ENCODING 1024
SWIDTH 500 0
DWIDTH 5 0
BBX 4 8 1 0
BITMAP
40
20
F0
80
E0
80
80
F0
ENDCHAR
STARTCHAR char203
ENCODING 1025
SWIDTH 500 0
DWIDTH 5 0
BBX 4 8 1 0
BITMAP
A0
00
F0
80
E0
80
80
F0
ENDCHAR
STARTCHAR char1026
ENCODING 1026
SWIDTH 500 0
DWIDTH 5 0
BBX 5 8 0 -1
BITMAP
E0
40
70
48
48
48
48
10
ENDCHAR
STARTCHAR char1027
ENCODING 1027
SWIDTH 500 0
DWIDTH 5 0
BBX 4 8 1 0
BITMAP
20
40
F0
80
80
80
80
80
ENDCHAR
STARTCHAR char1028
ENCODING 1028
SWIDTH 500 0
DWIDTH 5 0
BBX 4 6 1 0
BITMAP
60
90
C0
80
90
60
ENDCHAR
STARTCHAR char1029
ENCODING 1029
SWIDTH 500 0
DWIDTH 5 0
BBX 4 6 1 0
BITMAP
70
80
60
10
10
E0
ENDCHAR
STARTCHAR char1030
ENCODING 1030
SWIDTH 500 0
DWIDTH 5 0
BBX 1 6 2 0
BITMAP
80
80
80
80
80
80
ENDCHAR
STARTCHAR char1031
ENCODING 1031
SWIDTH 500 0
DWIDTH 5 0
BBX 3 7 1 0
BITMAP
A0
40
40
40
40
40
40
ENDCHAR
STARTCHAR char1032
ENCODING 1032
SWIDTH 500 0
DWIDTH 5 0
BBX 4 6 1 0
BITMAP
70
10
10
10
90
60
ENDCHAR
STARTCHAR char1033
ENCODING 1033
SWIDTH 500 0
DWIDTH 5 0
BBX 6 6 0 0
BITMAP
30
50
58
54
54
98
ENDCHAR
STARTCHAR char1034
ENCODING 1034
SWIDTH 500 0
DWIDTH 5 0
BBX 5 6 1 0
BITMAP
A0
A0
F0
A8
A8
B0
ENDCHAR
STARTCHAR char1035
ENCODING 1035
SWIDTH 500 0
DWIDTH 5 0
BBX 5 7 0 0
BITMAP
F0
40
70
48
48
48
48
ENDCHAR
STARTCHAR char1036
ENCODING 1036
SWIDTH 500 0
DWIDTH 5 0
BBX 4 7 1 0
BITMAP
20
D0
A0
C0
A0
90
90
ENDCHAR
STARTCHAR char1080
ENCODING 1037
SWIDTH 500 0
DWIDTH 5 0
BBX 4 8 1 0
BITMAP
40
20
90
B0
B0
D0
D0
90
ENDCHAR
STARTCHAR char1038
ENCODING 1038
SWIDTH 500 0
DWIDTH 5 0
BBX 4 8 1 0
BITMAP
50
20
90
90
90
70
10
60
ENDCHAR
STARTCHAR char1039
ENCODING 1039
SWIDTH 500 0
DWIDTH 5 0
BBX 5 7 0 -1
BITMAP
88
88
88
88
F8
20
20
ENDCHAR
STARTCHAR char1040
ENCODING 1040
SWIDTH 500 0
DWIDTH 5 0
BBX 4 6 1 0
BITMAP
60
90
90
F0
90
90
ENDCHAR
STARTCHAR char1041
ENCODING 1041
SWIDTH 500 0
DWIDTH 5 0
BBX 4 7 1 0
BITMAP
E0
80
E0
90
90
90
E0
ENDCHAR
STARTCHAR char1042
ENCODING 1042
SWIDTH 500 0
DWIDTH 5 0
BBX 4 6 1 0
BITMAP
E0
90
E0
90
90
E0
ENDCHAR
STARTCHAR char1043
ENCODING 1043
SWIDTH 500 0
DWIDTH 5 0
BBX 4 6 1 0
BITMAP
F0
80
80
80
80
80
ENDCHAR
STARTCHAR char1044
ENCODING 1044
SWIDTH 500 0
DWIDTH 5 0
BBX 5 7 0 -1
BITMAP
30
50
50
50
50
F8
88
ENDCHAR
STARTCHAR uni0415
ENCODING 1045
SWIDTH 500 0
DWIDTH 5 0
BBX 4 6 1 0
BITMAP
F0
80
E0
80
80
F0
ENDCHAR
STARTCHAR uni0416
ENCODING 1046
SWIDTH 500 0
DWIDTH 5 0
BBX 5 6 0 0
BITMAP
A8
A8
70
A8
A8
A8
ENDCHAR
STARTCHAR uni0417
ENCODING 1047
SWIDTH 500 0
DWIDTH 5 0
BBX 4 6 1 0
BITMAP
60
90
20
10
90
60
ENDCHAR
STARTCHAR char1080
ENCODING 1048
SWIDTH 500 0
DWIDTH 5 0
BBX 4 6 1 0
BITMAP
90
B0
B0
D0
D0
90
ENDCHAR
STARTCHAR char1080
ENCODING 1049
SWIDTH 500 0
DWIDTH 5 0
BBX 4 8 1 0
BITMAP
50
20
90
B0
B0
D0
D0
90
ENDCHAR
STARTCHAR uni041A
ENCODING 1050
SWIDTH 500 0
DWIDTH 5 0
BBX 4 6 1 0
BITMAP
90
A0
C0
A0
90
90
ENDCHAR
STARTCHAR char1051
ENCODING 1051
SWIDTH 500 0
DWIDTH 5 0
BBX 4 6 1 0
BITMAP
70
50
50
50
50
90
ENDCHAR
STARTCHAR uni041C
ENCODING 1052
SWIDTH 500 0
DWIDTH 5 0
BBX 4 6 1 0
BITMAP
90
F0
B0
90
90
90
ENDCHAR
STARTCHAR uni041D
ENCODING 1053
SWIDTH 500 0
DWIDTH 5 0
BBX 4 6 1 0
BITMAP
90
90
F0
90
90
90
ENDCHAR
STARTCHAR uni041E
ENCODING 1054
SWIDTH 500 0
DWIDTH 5 0
BBX 4 6 1 0
BITMAP
60
90
90
90
90
60
ENDCHAR
STARTCHAR char1055
ENCODING 1055
SWIDTH 500 0
DWIDTH 5 0
BBX 4 6 1 0
BITMAP
F0
90
90
90
90
90
ENDCHAR
STARTCHAR char1104
ENCODING 1056
SWIDTH 500 0
DWIDTH 5 0
BBX 4 6 1 0
BITMAP
E0
90
90
E0
80
80
ENDCHAR
STARTCHAR uni0421
ENCODING 1057
SWIDTH 500 0
DWIDTH 5 0
BBX 4 6 1 0
BITMAP
70
80
80
80
80
70
ENDCHAR
STARTCHAR uni0422
ENCODING 1058
SWIDTH 500 0
DWIDTH 5 0
BBX 3 6 2 0
BITMAP
E0
40
40
40
40
40
ENDCHAR
STARTCHAR uni0423
ENCODING 1059
SWIDTH 500 0
DWIDTH 5 0
BBX 4 6 1 0
BITMAP
90
90
90
60
20
C0
ENDCHAR
STARTCHAR char1060
ENCODING 1060
SWIDTH 500 0
DWIDTH 5 0
BBX 5 8 0 -1
BITMAP
20
70
A8
A8
A8
A8
70
20
ENDCHAR
STARTCHAR uni0425
ENCODING 1061
SWIDTH 500 0
DWIDTH 5 0
BBX 4 6 1 0
BITMAP
90
90
60
90
90
90
ENDCHAR
STARTCHAR char1062
ENCODING 1062
SWIDTH 500 0
DWIDTH 5 0
BBX 4 7 1 -1
BITMAP
A0
A0
A0
A0
A0
F0
10
ENDCHAR
STARTCHAR char1063
ENCODING 1063
SWIDTH 500 0
DWIDTH 5 0
BBX 4 6 0 0
BITMAP
90
90
70
10
10
10
ENDCHAR
STARTCHAR char1064
ENCODING 1064
SWIDTH 500 0
DWIDTH 5 0
BBX 5 6 0 0
BITMAP
A8
A8
A8
A8
A8
F0
ENDCHAR
STARTCHAR char1065
ENCODING 1065
SWIDTH 500 0
DWIDTH 5 0
BBX 6 7 0 -1
BITMAP
A8
A8
A8
A8
A8
7C
04
ENDCHAR
STARTCHAR char1066
ENCODING 1066
SWIDTH 500 0
DWIDTH 5 0
BBX 4 6 0 0
BITMAP
C0
40
40
60
50
60
ENDCHAR
STARTCHAR char1067
ENCODING 1067
SWIDTH 500 0
DWIDTH 5 0
BBX 4 6 1 0
BITMAP
90
90
90
D0
B0
D0
ENDCHAR
STARTCHAR char1068
ENCODING 1068
SWIDTH 500 0
DWIDTH 5 0
BBX 4 6 1 0
BITMAP
80
80
80
E0
90
E0
ENDCHAR
STARTCHAR uni042D
ENCODING 1069
SWIDTH 500 0
DWIDTH 5 0
BBX 4 6 1 0
BITMAP
60
90
30
10
90
60
ENDCHAR
STARTCHAR char1070
ENCODING 1070
SWIDTH 500 0
DWIDTH 5 0
BBX 5 6 1 0
BITMAP
90
A8
E8
A8
A8
90
ENDCHAR
STARTCHAR char1071
ENCODING 1071
SWIDTH 500 0
DWIDTH 5 0
BBX 4 6 1 0
BITMAP
70
90
90
70
90
90
ENDCHAR
STARTCHAR uni0430
ENCODING 1072
SWIDTH 500 0
DWIDTH 5 0
BBX 4 5 1 0
BITMAP
70
90
90
B0
50
ENDCHAR
STARTCHAR char1073
ENCODING 1073
SWIDTH 500 0
DWIDTH 5 0
BBX 4 7 1 0
BITMAP
10
60
80
E0
90
90
E0
ENDCHAR
STARTCHAR char1074
ENCODING 1074
SWIDTH 500 0
DWIDTH 5 0
BBX 4 5 1 0
BITMAP
E0
90
E0
90
E0
ENDCHAR
STARTCHAR char1075
ENCODING 1075
SWIDTH 500 0
DWIDTH 5 0
BBX 4 5 1 0
BITMAP
F0
80
80
80
80
ENDCHAR
STARTCHAR char1044
ENCODING 1076
SWIDTH 500 0
DWIDTH 5 0
BBX 5 7 0 -1
BITMAP
30
50
50
50
50
F8
88
ENDCHAR
STARTCHAR uni0435
ENCODING 1077
SWIDTH 500 0
DWIDTH 5 0
BBX 4 5 1 0
BITMAP
60
90
F0
80
70
ENDCHAR
STARTCHAR uni0436
ENCODING 1078
SWIDTH 500 0
DWIDTH 5 0
BBX 5 5 0 0
BITMAP
A8
A8
70
A8
A8
ENDCHAR
STARTCHAR uni0437
ENCODING 1079
SWIDTH 500 0
DWIDTH 5 0
BBX 4 5 1 0
BITMAP
60
90
20
90
60
ENDCHAR
STARTCHAR char1080
ENCODING 1080
SWIDTH 500 0
DWIDTH 5 0
BBX 4 5 1 0
BITMAP
90
B0
F0
D0
90
ENDCHAR
STARTCHAR char1080
ENCODING 1081
SWIDTH 500 0
DWIDTH 5 0
BBX 4 7 1 0
BITMAP
50
20
90
B0
F0
D0
90
ENDCHAR
STARTCHAR uni043A
ENCODING 1082
SWIDTH 500 0
DWIDTH 5 0
BBX 4 5 1 0
BITMAP
90
A0
E0
90
90
ENDCHAR
STARTCHAR char1051
ENCODING 1083
SWIDTH 500 0
DWIDTH 5 0
BBX 4 5 1 0
BITMAP
70
50
50
50
90
ENDCHAR
STARTCHAR uni043C
ENCODING 1084
SWIDTH 500 0
DWIDTH 5 0
BBX 4 5 1 0
BITMAP
90
F0
B0
90
90
ENDCHAR
STARTCHAR uni043D
ENCODING 1085
SWIDTH 500 0
DWIDTH 5 0
BBX 4 5 1 0
BITMAP
90
90
F0
90
90
ENDCHAR
STARTCHAR uni043E
ENCODING 1086
SWIDTH 500 0
DWIDTH 5 0
BBX 4 5 1 0
BITMAP
60
90
90
90
60
ENDCHAR
STARTCHAR uni043F
ENCODING 1087
SWIDTH 500 0
DWIDTH 5 0
BBX 4 5 1 0
BITMAP
F0
90
90
90
90
ENDCHAR
STARTCHAR uni0440
ENCODING 1088
SWIDTH 500 0
DWIDTH 5 0
BBX 4 7 1 -2
BITMAP
E0
90
90
90
E0
80
80
ENDCHAR
STARTCHAR uni0441
ENCODING 1089
SWIDTH 500 0
DWIDTH 5 0
BBX 4 5 1 0
BITMAP
70
80
80
80
70
ENDCHAR
STARTCHAR uni0442
ENCODING 1090
SWIDTH 500 0
DWIDTH 5 0
BBX 3 5 2 0
BITMAP
E0
40
40
40
40
ENDCHAR
STARTCHAR uni0443
ENCODING 1091
SWIDTH 500 0
DWIDTH 5 0
BBX 4 6 1 -2
BITMAP
90
90
90
60
20
C0
ENDCHAR
STARTCHAR char1060
ENCODING 1092
SWIDTH 500 0
DWIDTH 5 0
BBX 5 7 0 -1
BITMAP
20
70
A8
A8
A8
70
20
ENDCHAR
STARTCHAR uni0445
ENCODING 1093
SWIDTH 500 0
DWIDTH 5 0
BBX 4 5 1 0
BITMAP
90
90
60
90
90
ENDCHAR
STARTCHAR char1062
ENCODING 1094
SWIDTH 500 0
DWIDTH 5 0
BBX 4 6 1 -1
BITMAP
A0
A0
A0
A0
F0
10
ENDCHAR
STARTCHAR char1063
ENCODING 1095
SWIDTH 500 0
DWIDTH 5 0
BBX 4 5 0 0
BITMAP
90
90
70
10
10
ENDCHAR
STARTCHAR char1064
ENCODING 1096
SWIDTH 500 0
DWIDTH 5 0
BBX 5 5 0 0
BITMAP
A8
A8
A8
A8
F0
ENDCHAR
STARTCHAR char1065
ENCODING 1097
SWIDTH 500 0
DWIDTH 5 0
BBX 6 6 0 -1
BITMAP
A8
A8
A8
A8
7C
04
ENDCHAR
STARTCHAR char1066
ENCODING 1098
SWIDTH 500 0
DWIDTH 5 0
BBX 4 5 1 0
BITMAP
C0
40
60
50
60
ENDCHAR
STARTCHAR char1067
ENCODING 1099
SWIDTH 500 0
DWIDTH 5 0
BBX 4 5 1 0
BITMAP
90
90
D0
B0
D0
ENDCHAR
STARTCHAR soft
ENCODING 1100
SWIDTH 500 0
DWIDTH 5 0
BBX 4 5 1 0
BITMAP
80
80
E0
90
E0
ENDCHAR
STARTCHAR uni044D
ENCODING 1101
SWIDTH 500 0
DWIDTH 5 0
BBX 4 5 1 0
BITMAP
60
90
30
90
60
ENDCHAR
STARTCHAR char1070
ENCODING 1102
SWIDTH 500 0
DWIDTH 5 0
BBX 5 5 1 0
BITMAP
90
A8
E8
A8
90
ENDCHAR
STARTCHAR char1071
ENCODING 1103
SWIDTH 500 0
DWIDTH 5 0
BBX 4 5 1 0
BITMAP
70
90
70
90
90
ENDCHAR
STARTCHAR uni0450
ENCODING 1104
SWIDTH 500 0
DWIDTH 5 0
BBX 4 8 1 0
BITMAP
40
20
00
60
90
F0
80
70
ENDCHAR
STARTCHAR uni0451
ENCODING 1105
SWIDTH 500 0
DWIDTH 5 0
BBX 4 7 1 0
BITMAP
A0
00
60
90
F0
80
70
ENDCHAR
STARTCHAR char1026
ENCODING 1106
SWIDTH 500 0
DWIDTH 5 0
BBX 5 7 0 -1
BITMAP
40
E0
40
70
48
48
10
ENDCHAR
STARTCHAR char1027
ENCODING 1107
SWIDTH 500 0
DWIDTH 5 0
BBX 4 7 1 0
BITMAP
20
40
F0
80
80
80
80
ENDCHAR
STARTCHAR char1028
ENCODING 1108
SWIDTH 500 0
DWIDTH 5 0
BBX 4 5 1 0
BITMAP
60
90
C0
90
60
ENDCHAR
STARTCHAR uni0455
ENCODING 1109
SWIDTH 500 0
DWIDTH 5 0
BBX 4 5 1 0
BITMAP
70
80
60
10
E0
ENDCHAR
STARTCHAR uni0456
ENCODING 1110
SWIDTH 500 0
DWIDTH 5 0
BBX 2 7 2 0
BITMAP
40
00
C0
40
40
40
40
ENDCHAR
STARTCHAR uni0457
ENCODING 1111
SWIDTH 500 0
DWIDTH 5 0
BBX 3 7 2 0
BITMAP
A0
00
C0
40
40
40
40
ENDCHAR
STARTCHAR uni0458
ENCODING 1112
SWIDTH 500 0
DWIDTH 5 0
BBX 3 9 1 -2
BITMAP
20
00
60
20
20
20
20
20
C0
ENDCHAR
STARTCHAR CYRILLIC
ENCODING 1113
SWIDTH 500 0
DWIDTH 5 0
BBX 6 5 0 0
BITMAP
30
50
58
54
98
ENDCHAR
STARTCHAR CYRILLIC
ENCODING 1114
SWIDTH 500 0
DWIDTH 5 0
BBX 5 5 0 0
BITMAP
A0
A0
F0
A8
B0
ENDCHAR
STARTCHAR CYRILLIC
ENCODING 1115
SWIDTH 500 0
DWIDTH 5 0
BBX 5 7 0 0
BITMAP
40
40
F0
40
70
48
48
ENDCHAR
STARTCHAR CYRILLIC
ENCODING 1116
SWIDTH 500 0
DWIDTH 5 0
BBX 4 8 0 0
BITMAP
10
20
00
90
A0
E0
90
90
ENDCHAR
STARTCHAR CYRILLIC
ENCODING 1117
SWIDTH 500 0
DWIDTH 5 0
BBX 4 8 0 0
BITMAP
40
20
00
90
B0
B0
D0
90
ENDCHAR
STARTCHAR uni045E
ENCODING 1118
SWIDTH 500 0
DWIDTH 5 0
BBX 4 10 1 -2
BITMAP
90
60
00
90
90
90
90
70
10
60
ENDCHAR
STARTCHAR uni045F
ENCODING 1119
SWIDTH 500 0
DWIDTH 5 0
BBX 5 7 1 -2
BITMAP
88
88
88
88
70
20
20
ENDCHAR
STARTCHAR CYRILLIC
ENCODING 1120
SWIDTH 500 0
DWIDTH 5 0
BBX 5 7 0 0
BITMAP
A8
A8
A8
A8
A8
A8
50
ENDCHAR
STARTCHAR CYRILLIC
ENCODING 1121
SWIDTH 500 0
DWIDTH 5 0
BBX 5 5 0 0
BITMAP
A8
A8
A8
A8
50
ENDCHAR
STARTCHAR char1122
ENCODING 1122
SWIDTH 500 0
DWIDTH 5 0
BBX 5 7 0 0
BITMAP
40
E0
40
70
48
48
70
ENDCHAR
STARTCHAR char1123
ENCODING 1123
SWIDTH 500 0
DWIDTH 5 0
BBX 5 6 0 0
BITMAP
40
E0
40
70
48
70
ENDCHAR
STARTCHAR CYRILLIC
ENCODING 1124
SWIDTH 500 0
DWIDTH 5 0
BBX 5 7 0 0
BITMAP
90
A8
A0
F0
A0
A8
90
ENDCHAR
STARTCHAR CYRILLIC
ENCODING 1125
SWIDTH 500 0
DWIDTH 5 0
BBX 5 5 0 0
BITMAP
98
A0
F0
A0
98
ENDCHAR
STARTCHAR char1126
ENCODING 1126
SWIDTH 500 0
DWIDTH 5 0
BBX 5 6 1 0
BITMAP
20
20
50
70
A8
A8
ENDCHAR
STARTCHAR char1127
ENCODING 1127
SWIDTH 500 0
DWIDTH 5 0
BBX 5 5 1 0
BITMAP
20
50
70
A8
A8
ENDCHAR
STARTCHAR char1128
ENCODING 1128
SWIDTH 500 0
DWIDTH 5 0
BBX 5 6 1 0
BITMAP
A0
A0
D0
F0
A8
A8
ENDCHAR
STARTCHAR char1129
ENCODING 1129
SWIDTH 500 0
DWIDTH 5 0
BBX 5 5 1 0
BITMAP
A0
D0
F0
A8
A8
ENDCHAR
STARTCHAR CYRILLIC
ENCODING 1130
SWIDTH 500 0
DWIDTH 5 0
BBX 5 7 0 0
BITMAP
F8
88
50
70
A8
A8
A8
ENDCHAR
STARTCHAR CYRILLIC
ENCODING 1131
SWIDTH 500 0
DWIDTH 5 0
BBX 5 5 0 0
BITMAP
70
50
20
70
A8
ENDCHAR
STARTCHAR CYRILLIC
ENCODING 1132
SWIDTH 500 0
DWIDTH 5 0
BBX 5 7 0 0
BITMAP
F0
D0
A0
F0
A8
A8
A8
ENDCHAR
STARTCHAR CYRILLIC
ENCODING 1133
SWIDTH 500 0
DWIDTH 5 0
BBX 5 5 0 0
BITMAP
F0
D0
A0
F0
A8
ENDCHAR
STARTCHAR CYRILLIC
ENCODING 1134
SWIDTH 500 0
DWIDTH 5 0
BBX 4 11 1 -2
BITMAP
A0
40
00
E0
10
60
10
10
60
80
60
ENDCHAR
STARTCHAR CYRILLIC
ENCODING 1135
SWIDTH 500 0
DWIDTH 5 0
BBX 4 10 1 -2
BITMAP
A0
40
00
E0
10
60
10
60
80
40
ENDCHAR
STARTCHAR CYRILLIC
ENCODING 1136
SWIDTH 500 0
DWIDTH 5 0
BBX 5 7 0 0
BITMAP
A8
A8
A8
A8
70
20
20
ENDCHAR
STARTCHAR CYRILLIC
ENCODING 1137
SWIDTH 500 0
DWIDTH 5 0
BBX 5 6 0 0
BITMAP
A8
A8
A8
70
20
20
ENDCHAR
STARTCHAR CYRILLIC
ENCODING 1138
SWIDTH 500 0
DWIDTH 5 0
BBX 4 7 1 0
BITMAP
60
90
90
F0
90
90
60
ENDCHAR
STARTCHAR CYRILLIC
ENCODING 1139
SWIDTH 500 0
DWIDTH 5 0
BBX 4 5 1 0
BITMAP
60
90
F0
90
60
ENDCHAR
STARTCHAR char1140
ENCODING 1140
SWIDTH 500 0
DWIDTH 5 0
BBX 5 6 1 0
BITMAP
90
98
90
60
60
60
ENDCHAR
STARTCHAR char1141
ENCODING 1141
SWIDTH 500 0
DWIDTH 5 0
BBX 5 5 1 0
BITMAP
90
98
90
60
60
ENDCHAR
STARTCHAR char1142
ENCODING 1142
SWIDTH 500 0
DWIDTH 5 0
BBX 5 8 1 0
BITMAP
A0
50
90
98
90
60
60
60
ENDCHAR
STARTCHAR char1143
ENCODING 1143
SWIDTH 500 0
DWIDTH 5 0
BBX 5 7 1 0
BITMAP
A0
50
90
98
90
60
60
ENDCHAR
STARTCHAR CYRILLIC
ENCODING 1144
SWIDTH 500 0
DWIDTH 5 0
BBX 5 9 0 -2
BITMAP
40
A0
A0
A8
A8
A8
58
08
30
ENDCHAR
STARTCHAR CYRILLIC
ENCODING 1145
SWIDTH 500 0
DWIDTH 5 0
BBX 5 7 0 -2
BITMAP
40
A8
A8
A8
58
08
30
ENDCHAR
STARTCHAR CYRILLIC
ENCODING 1146
SWIDTH 500 0
DWIDTH 5 0
BBX 5 9 0 -1
BITMAP
20
70
A8
88
88
88
A8
70
20
ENDCHAR
STARTCHAR CYRILLIC
ENCODING 1147
SWIDTH 500 0
DWIDTH 5 0
BBX 5 7 0 -1
BITMAP
20
70
A8
88
A8
70
20
ENDCHAR
STARTCHAR CYRILLIC
ENCODING 1148
SWIDTH 500 0
DWIDTH 5 0
BBX 5 9 0 0
BITMAP
60
90
08
20
88
88
88
A8
50
ENDCHAR
STARTCHAR CYRILLIC
ENCODING 1149
SWIDTH 500 0
DWIDTH 5 0
BBX 5 8 0 0
BITMAP
60
90
08
20
88
88
A8
50
ENDCHAR
STARTCHAR CYRILLIC
ENCODING 1150
SWIDTH 500 0
DWIDTH 5 0
BBX 5 9 0 0
BITMAP
F8
A8
00
A8
A8
A8
A8
A8
50
ENDCHAR
STARTCHAR CYRILLIC
ENCODING 1151
SWIDTH 500 0
DWIDTH 5 0
BBX 5 8 0 0
BITMAP
F8
A8
00
A8
A8
A8
A8
50
ENDCHAR
STARTCHAR uni0480
ENCODING 1152
SWIDTH 500 0
DWIDTH 5 0
BBX 4 8 1 -2
BITMAP
70
80
80
80
80
60
20
70
ENDCHAR
STARTCHAR uni0481
ENCODING 1153
SWIDTH 500 0
DWIDTH 5 0
BBX 4 7 1 -2
BITMAP
70
80
80
80
60
20
70
ENDCHAR
STARTCHAR CYRILLIC
ENCODING 1154
SWIDTH 500 0
DWIDTH 5 0
BBX 4 8 0 0
BITMAP
10
10
60
30
C0
60
80
80
ENDCHAR
STARTCHAR char1155
ENCODING 1155
SWIDTH 500 0
DWIDTH 5 0
BBX 4 3 2 4
BITMAP
10
60
80
ENDCHAR
STARTCHAR uni0484
ENCODING 1156
SWIDTH 500 0
DWIDTH 5 0
BBX 4 8 1 0
BITMAP
10
F0
00
60
90
90
90
60
ENDCHAR
STARTCHAR uni0485
ENCODING 1157
SWIDTH 500 0
DWIDTH 5 0
BBX 4 8 1 0
BITMAP
20
D0
00
60
90
90
90
60
ENDCHAR
STARTCHAR uni0486
ENCODING 1158
SWIDTH 500 0
DWIDTH 5 0
BBX 4 8 1 0
BITMAP
40
40
00
60
90
90
90
60
ENDCHAR
STARTCHAR uni0487
ENCODING 1159
SWIDTH 500 0
DWIDTH 5 0
BBX 4 8 1 0
BITMAP
20
20
00
60
90
90
90
60
ENDCHAR
STARTCHAR uni0488
ENCODING 1160
SWIDTH 500 0
DWIDTH 5 0
BBX 4 8 1 0
BITMAP
40
B0
00
60
90
90
90
60
ENDCHAR
STARTCHAR char1161
ENCODING 1161
SWIDTH 500 0
DWIDTH 5 0
BBX 7 5 0 0
BITMAP
14
40
BE
A0
54
ENDCHAR
STARTCHAR char1161
ENCODING 1162
SWIDTH 500 0
DWIDTH 5 0
BBX 7 5 0 0
BITMAP
14
40
A2
A0
54
ENDCHAR
STARTCHAR char1080
ENCODING 1163
SWIDTH 500 0
DWIDTH 5 0
BBX 5 9 1 -1
BITMAP
50
20
90
B0
B0
D0
D0
98
10
ENDCHAR
STARTCHAR char1080
ENCODING 1164
SWIDTH 500 0
DWIDTH 5 0
BBX 5 8 1 -1
BITMAP
50
20
90
B0
F0
D0
98
10
ENDCHAR
STARTCHAR char1068
ENCODING 1165
SWIDTH 500 0
DWIDTH 5 0
BBX 5 6 0 0
BITMAP
40
E0
40
70
48
70
ENDCHAR
STARTCHAR uni048E
ENCODING 1166
SWIDTH 500 0
DWIDTH 5 0
BBX 5 6 1 0
BITMAP
E0
90
B0
F0
88
80
ENDCHAR
STARTCHAR uni048F
ENCODING 1167
SWIDTH 500 0
DWIDTH 5 0
BBX 5 7 1 -2
BITMAP
E0
90
90
B0
F0
88
80
ENDCHAR
STARTCHAR char1027
ENCODING 1168
SWIDTH 500 0
DWIDTH 5 0
BBX 4 7 1 0
BITMAP
10
F0
80
80
80
80
80
ENDCHAR
STARTCHAR char1075
ENCODING 1169
SWIDTH 500 0
DWIDTH 5 0
BBX 4 6 1 0
BITMAP
10
F0
80
80
80
80
ENDCHAR
STARTCHAR uni0492
ENCODING 1170
SWIDTH 500 0
DWIDTH 5 0
BBX 5 6 0 0
BITMAP
78
40
F0
40
40
40
ENDCHAR
STARTCHAR uni0493
ENCODING 1171
SWIDTH 500 0
DWIDTH 5 0
BBX 5 5 0 0
BITMAP
78
40
F0
40
40
ENDCHAR
STARTCHAR char1026
ENCODING 1172
SWIDTH 500 0
DWIDTH 5 0
BBX 4 7 1 -1
BITMAP
E0
80
E0
90
90
90
20
ENDCHAR
STARTCHAR char1026
ENCODING 1173
SWIDTH 500 0
DWIDTH 5 0
BBX 4 6 1 -1
BITMAP
C0
80
E0
90
90
20
ENDCHAR
STARTCHAR uni0496
ENCODING 1174
SWIDTH 500 0
DWIDTH 5 0
BBX 6 7 0 -1
BITMAP
A8
A8
70
A8
A8
AC
04
ENDCHAR
STARTCHAR uni0497
ENCODING 1175
SWIDTH 500 0
DWIDTH 5 0
BBX 6 6 0 -1
BITMAP
A8
A8
70
A8
AC
04
ENDCHAR
STARTCHAR uni0498
ENCODING 1176
SWIDTH 500 0
DWIDTH 5 0
BBX 4 8 1 -2
BITMAP
60
90
20
10
90
60
20
40
ENDCHAR
STARTCHAR uni0499
ENCODING 1177
SWIDTH 500 0
DWIDTH 5 0
BBX 4 7 1 -2
BITMAP
60
90
20
90
60
20
40
ENDCHAR
STARTCHAR uni049A
ENCODING 1178
SWIDTH 500 0
DWIDTH 5 0
BBX 5 7 1 -1
BITMAP
90
A0
C0
A0
90
98
08
ENDCHAR
STARTCHAR uni049B
ENCODING 1179
SWIDTH 500 0
DWIDTH 5 0
BBX 5 6 1 -1
BITMAP
90
A0
E0
90
98
08
ENDCHAR
STARTCHAR uni049C
ENCODING 1180
SWIDTH 500 0
DWIDTH 5 0
BBX 4 6 1 0
BITMAP
90
A0
E0
F0
90
90
ENDCHAR
STARTCHAR uni049D
ENCODING 1181
SWIDTH 500 0
DWIDTH 5 0
BBX 4 5 1 0
BITMAP
90
E0
E0
D0
90
ENDCHAR
STARTCHAR uni049E
ENCODING 1182
SWIDTH 500 0
DWIDTH 5 0
BBX 5 6 0 0
BITMAP
48
F0
60
50
48
48
ENDCHAR
STARTCHAR uni049F
ENCODING 1183
SWIDTH 500 0
DWIDTH 5 0
BBX 5 5 0 0
BITMAP
48
F0
70
48
48
ENDCHAR
STARTCHAR uni04A0
ENCODING 1184
SWIDTH 500 0
DWIDTH 5 0
BBX 5 6 0 0
BITMAP
C8
50
60
50
48
48
ENDCHAR
STARTCHAR uni04A1
ENCODING 1185
SWIDTH 500 0
DWIDTH 5 0
BBX 5 5 0 0
BITMAP
C8
50
70
48
48
ENDCHAR
STARTCHAR uni04A2
ENCODING 1186
SWIDTH 500 0
DWIDTH 5 0
BBX 5 7 1 -1
BITMAP
90
90
F0
90
90
98
08
ENDCHAR
STARTCHAR uni04A3
ENCODING 1187
SWIDTH 500 0
DWIDTH 5 0
BBX 5 6 1 -1
BITMAP
90
90
F0
90
98
08
ENDCHAR
STARTCHAR uni04A4
ENCODING 1188
SWIDTH 500 0
DWIDTH 5 0
BBX 5 6 1 0
BITMAP
98
90
F0
90
90
90
ENDCHAR
STARTCHAR uni04A5
ENCODING 1189
SWIDTH 500 0
DWIDTH 5 0
BBX 5 5 1 0
BITMAP
98
90
F0
90
90
ENDCHAR
STARTCHAR char1055
ENCODING 1190
SWIDTH 500 0
DWIDTH 5 0
BBX 6 8 1 -2
BITMAP
F0
90
90
90
98
94
04
08
ENDCHAR
STARTCHAR uni04A7
ENCODING 1191
SWIDTH 500 0
DWIDTH 5 0
BBX 6 7 1 -2
BITMAP
F0
90
90
98
94
04
08
ENDCHAR
STARTCHAR char1060
ENCODING 1192
SWIDTH 500 0
DWIDTH 5 0
BBX 5 7 0 -1
BITMAP
40
90
A8
A8
A8
70
18
ENDCHAR
STARTCHAR char1060
ENCODING 1193
SWIDTH 500 0
DWIDTH 5 0
BBX 5 6 0 -1
BITMAP
40
90
A8
A8
70
18
ENDCHAR
STARTCHAR uni04AA
ENCODING 1194
SWIDTH 500 0
DWIDTH 5 0
BBX 4 8 1 -2
BITMAP
70
80
80
80
80
70
20
60
ENDCHAR
STARTCHAR uni04AB
ENCODING 1195
SWIDTH 500 0
DWIDTH 5 0
BBX 4 7 1 -2
BITMAP
70
80
80
80
70
20
60
ENDCHAR
STARTCHAR uni04AC
ENCODING 1196
SWIDTH 500 0
DWIDTH 5 0
BBX 5 7 0 -1
BITMAP
F8
20
20
20
20
30
10
ENDCHAR
STARTCHAR uni04AD
ENCODING 1197
SWIDTH 500 0
DWIDTH 5 0
BBX 5 6 0 -1
BITMAP
F8
20
20
20
30
10
ENDCHAR
STARTCHAR uni04AE
ENCODING 1198
SWIDTH 500 0
DWIDTH 5 0
BBX 5 6 0 0
BITMAP
88
50
20
20
20
20
ENDCHAR
STARTCHAR uni04AF
ENCODING 1199
SWIDTH 500 0
DWIDTH 5 0
BBX 5 6 0 -2
BITMAP
88
50
20
20
20
20
ENDCHAR
STARTCHAR uni04B0
ENCODING 1200
SWIDTH 500 0
DWIDTH 5 0
BBX 5 6 0 0
BITMAP
88
50
20
70
20
20
ENDCHAR
STARTCHAR uni04B1
ENCODING 1201
SWIDTH 500 0
DWIDTH 5 0
BBX 5 6 0 -2
BITMAP
88
50
20
70
20
20
ENDCHAR
STARTCHAR uni04B2
ENCODING 1202
SWIDTH 500 0
DWIDTH 5 0
BBX 5 7 1 -1
BITMAP
90
90
60
90
90
98
08
ENDCHAR
STARTCHAR uni04B3
ENCODING 1203
SWIDTH 500 0
DWIDTH 5 0
BBX 5 6 1 -1
BITMAP
90
90
60
90
98
08
ENDCHAR
STARTCHAR uni04B4
ENCODING 1204
SWIDTH 500 0
DWIDTH 5 0
BBX 6 7 0 -1
BITMAP
E8
48
48
48
48
7C
04
ENDCHAR
STARTCHAR uni04B5
ENCODING 1205
SWIDTH 500 0
DWIDTH 5 0
BBX 6 6 0 -1
BITMAP
E8
48
48
48
7C
04
ENDCHAR
STARTCHAR char1063
ENCODING 1206
SWIDTH 500 0
DWIDTH 5 0
BBX 5 7 0 -1
BITMAP
90
90
70
10
10
38
08
ENDCHAR
STARTCHAR char1063
ENCODING 1207
SWIDTH 500 0
DWIDTH 5 0
BBX 5 6 0 -1
BITMAP
90
90
70
10
30
08
ENDCHAR
STARTCHAR char1063
ENCODING 1208
SWIDTH 500 0
DWIDTH 5 0
BBX 4 6 0 0
BITMAP
90
90
F0
50
10
10
ENDCHAR
STARTCHAR char1063
ENCODING 1209
SWIDTH 500 0
DWIDTH 5 0
BBX 4 5 0 0
BITMAP
90
90
F0
50
10
ENDCHAR
STARTCHAR uni04BA
ENCODING 1210
SWIDTH 500 0
DWIDTH 5 0
BBX 4 7 1 0
BITMAP
80
80
A0
D0
90
90
90
ENDCHAR
STARTCHAR uni04BB
ENCODING 1211
SWIDTH 500 0
DWIDTH 5 0
BBX 4 7 1 0
BITMAP
80
80
E0
90
90
90
90
ENDCHAR
STARTCHAR uni04BC
ENCODING 1212
SWIDTH 500 0
DWIDTH 5 0
BBX 5 6 0 0
BITMAP
30
48
C8
78
40
38
ENDCHAR
STARTCHAR uni04BD
ENCODING 1213
SWIDTH 500 0
DWIDTH 5 0
BBX 5 5 0 0
BITMAP
30
C8
78
40
38
ENDCHAR
STARTCHAR uni04BE
ENCODING 1214
SWIDTH 500 0
DWIDTH 5 0
BBX 5 7 0 -1
BITMAP
30
48
C8
78
40
38
10
ENDCHAR
STARTCHAR uni04BF
ENCODING 1215
SWIDTH 500 0
DWIDTH 5 0
BBX 5 6 0 -1
BITMAP
30
C8
78
40
38
10
ENDCHAR
STARTCHAR char1030
ENCODING 1216
SWIDTH 500 0
DWIDTH 5 0
BBX 1 6 2 0
BITMAP
80
80
80
80
80
80
ENDCHAR
STARTCHAR uni04C1
ENCODING 1217
SWIDTH 500 0
DWIDTH 5 0
BBX 5 8 0 0
BITMAP
50
20
88
A8
70
A8
A8
A8
ENDCHAR
STARTCHAR uni04C2
ENCODING 1218
SWIDTH 500 0
DWIDTH 5 0
BBX 5 8 0 0
BITMAP
50
20
00
A8
A8
70
A8
A8
ENDCHAR
STARTCHAR uni04C3
ENCODING 1219
SWIDTH 500 0
DWIDTH 5 0
BBX 4 7 1 -1
BITMAP
90
A0
C0
A0
90
90
20
ENDCHAR
STARTCHAR uni04C4
ENCODING 1220
SWIDTH 500 0
DWIDTH 5 0
BBX 4 6 1 -1
BITMAP
90
A0
E0
90
90
20
ENDCHAR
STARTCHAR char1051
ENCODING 1221
SWIDTH 500 0
DWIDTH 5 0
BBX 5 7 1 -1
BITMAP
70
50
50
50
50
98
08
ENDCHAR
STARTCHAR char1051
ENCODING 1222
SWIDTH 500 0
DWIDTH 5 0
BBX 5 6 1 -1
BITMAP
70
50
50
50
98
08
ENDCHAR
STARTCHAR uni04C7
ENCODING 1223
SWIDTH 500 0
DWIDTH 5 0
BBX 4 7 1 -1
BITMAP
90
90
F0
90
90
90
20
ENDCHAR
STARTCHAR uni04C8
ENCODING 1224
SWIDTH 500 0
DWIDTH 5 0
BBX 4 6 1 -1
BITMAP
90
90
F0
90
90
20
ENDCHAR
STARTCHAR uni04C9
ENCODING 1225
SWIDTH 500 0
DWIDTH 5 0
BBX 5 7 1 -1
BITMAP
90
90
F0
90
90
98
10
ENDCHAR
STARTCHAR uni04CA
ENCODING 1226
SWIDTH 500 0
DWIDTH 5 0
BBX 5 6 1 -1
BITMAP
90
90
F0
90
98
10
ENDCHAR
STARTCHAR char1063
ENCODING 1227
SWIDTH 500 0
DWIDTH 5 0
BBX 4 7 0 -1
BITMAP
90
90
70
10
10
30
20
ENDCHAR
STARTCHAR char1063
ENCODING 1228
SWIDTH 500 0
DWIDTH 5 0
BBX 4 6 0 -1
BITMAP
90
90
70
10
30
20
ENDCHAR
STARTCHAR uni04CD
ENCODING 1229
SWIDTH 500 0
DWIDTH 5 0
BBX 5 7 1 -1
BITMAP
90
F0
B0
90
90
98
10
ENDCHAR
STARTCHAR uni04CE
ENCODING 1230
SWIDTH 500 0
DWIDTH 5 0
BBX 5 6 1 -1
BITMAP
90
F0
B0
90
98
10
ENDCHAR
STARTCHAR char1030
ENCODING 1231
SWIDTH 500 0
DWIDTH 5 0
BBX 3 6 1 0
BITMAP
40
40
40
E0
40
40
ENDCHAR
STARTCHAR char1040
ENCODING 1232
SWIDTH 500 0
DWIDTH 5 0
BBX 4 8 1 0
BITMAP
90
60
60
90
90
F0
90
90
ENDCHAR
STARTCHAR uni04D1
ENCODING 1233
SWIDTH 500 0
DWIDTH 5 0
BBX 4 8 1 0
BITMAP
90
60
00
70
90
90
B0
50
ENDCHAR
STARTCHAR char1040
ENCODING 1234
SWIDTH 500 0
DWIDTH 5 0
BBX 4 8 1 0
BITMAP
90
00
60
90
90
F0
90
90
ENDCHAR
STARTCHAR uni04D3
ENCODING 1235
SWIDTH 500 0
DWIDTH 5 0
BBX 4 7 1 0
BITMAP
90
00
70
90
90
B0
50
ENDCHAR
STARTCHAR char198
ENCODING 1236
SWIDTH 500 0
DWIDTH 5 0
BBX 6 6 0 0
BITMAP
7C
90
98
F0
90
9C
ENDCHAR
STARTCHAR uni04D5
ENCODING 1237
SWIDTH 500 0
DWIDTH 5 0
BBX 5 5 1 0
BITMAP
70
A8
B8
A0
78
ENDCHAR
STARTCHAR uni04D6
ENCODING 1238
SWIDTH 500 0
DWIDTH 5 0
BBX 4 8 1 0
BITMAP
90
60
F0
80
E0
80
80
F0
ENDCHAR
STARTCHAR uni04D7
ENCODING 1239
SWIDTH 500 0
DWIDTH 5 0
BBX 4 8 1 0
BITMAP
90
60
00
60
90
F0
80
70
ENDCHAR
STARTCHAR uni04D8
ENCODING 1240
SWIDTH 500 0
DWIDTH 5 0
BBX 4 6 1 0
BITMAP
E0
10
F0
90
90
60
ENDCHAR
STARTCHAR uni04D9
ENCODING 1241
SWIDTH 500 0
DWIDTH 5 0
BBX 4 5 1 0
BITMAP
E0
10
F0
90
60
ENDCHAR
STARTCHAR uni04DA
ENCODING 1242
SWIDTH 500 0
DWIDTH 5 0
BBX 4 8 1 0
BITMAP
90
00
E0
10
F0
90
90
60
ENDCHAR
STARTCHAR uni04DB
ENCODING 1243
SWIDTH 500 0
DWIDTH 5 0
BBX 4 7 1 0
BITMAP
90
00
E0
10
F0
90
60
ENDCHAR
STARTCHAR uni04DC
ENCODING 1244
SWIDTH 500 0
DWIDTH 5 0
BBX 5 8 0 0
BITMAP
50
00
A8
A8
70
A8
A8
A8
ENDCHAR
STARTCHAR uni04DD
ENCODING 1245
SWIDTH 500 0
DWIDTH 5 0
BBX 5 7 0 0
BITMAP
50
00
A8
A8
70
A8
A8
ENDCHAR
STARTCHAR uni04DE
ENCODING 1246
SWIDTH 500 0
DWIDTH 5 0
BBX 4 8 1 0
BITMAP
90
00
60
90
20
10
90
60
ENDCHAR
STARTCHAR uni04DF
ENCODING 1247
SWIDTH 500 0
DWIDTH 5 0
BBX 4 7 1 0
BITMAP
90
00
60
90
20
90
60
ENDCHAR
STARTCHAR uni04E0
ENCODING 1248
SWIDTH 500 0
DWIDTH 5 0
BBX 4 8 1 0
BITMAP
90
00
60
90
20
10
90
60
ENDCHAR
STARTCHAR uni04E1
ENCODING 1249
SWIDTH 500 0
DWIDTH 5 0
BBX 4 7 1 0
BITMAP
90
00
60
90
20
90
60
ENDCHAR
STARTCHAR char1080
ENCODING 1250
SWIDTH 500 0
DWIDTH 5 0
BBX 4 8 1 0
BITMAP
60
00
90
B0
B0
D0
D0
90
ENDCHAR
STARTCHAR char1080
ENCODING 1251
SWIDTH 500 0
DWIDTH 5 0
BBX 4 7 1 0
BITMAP
60
00
90
B0
F0
D0
90
ENDCHAR
STARTCHAR char1080
ENCODING 1252
SWIDTH 500 0
DWIDTH 5 0
BBX 4 8 1 0
BITMAP
90
00
90
B0
B0
D0
D0
90
ENDCHAR
STARTCHAR char1080
ENCODING 1253
SWIDTH 500 0
DWIDTH 5 0
BBX 4 7 1 0
BITMAP
90
00
90
B0
F0
D0
90
ENDCHAR
STARTCHAR uni04E6
ENCODING 1254
SWIDTH 500 0
DWIDTH 5 0
BBX 4 8 1 0
BITMAP
90
00
60
90
90
90
90
60
ENDCHAR
STARTCHAR uni04E7
ENCODING 1255
SWIDTH 500 0
DWIDTH 5 0
BBX 4 7 1 0
BITMAP
90
00
60
90
90
90
60
ENDCHAR
STARTCHAR uni04E8
ENCODING 1256
SWIDTH 500 0
DWIDTH 5 0
BBX 4 6 1 0
BITMAP
60
90
F0
90
90
60
ENDCHAR
STARTCHAR uni04E9
ENCODING 1257
SWIDTH 500 0
DWIDTH 5 0
BBX 4 5 1 0
BITMAP
60
90
F0
90
60
ENDCHAR
STARTCHAR uni04EA
ENCODING 1258
SWIDTH 500 0
DWIDTH 5 0
BBX 4 8 1 0
BITMAP
90
00
60
90
F0
90
90
60
ENDCHAR
STARTCHAR uni04EB
ENCODING 1259
SWIDTH 500 0
DWIDTH 5 0
BBX 4 5 1 0
BITMAP
60
90
F0
90
60
ENDCHAR
STARTCHAR uni04EC
ENCODING 1260
SWIDTH 500 0
DWIDTH 5 0
BBX 4 8 1 0
BITMAP
90
00
60
90
30
10
90
60
ENDCHAR
STARTCHAR uni04ED
ENCODING 1261
SWIDTH 500 0
DWIDTH 5 0
BBX 4 7 1 0
BITMAP
90
00
60
90
30
90
60
ENDCHAR
STARTCHAR uni04EE
ENCODING 1262
SWIDTH 500 0
DWIDTH 5 0
BBX 5 8 0 0
BITMAP
70
00
88
50
20
20
20
20
ENDCHAR
STARTCHAR uni04EF
ENCODING 1263
SWIDTH 500 0
DWIDTH 5 0
BBX 5 8 0 -2
BITMAP
70
00
88
50
20
20
20
20
ENDCHAR
STARTCHAR uni04F0
ENCODING 1264
SWIDTH 500 0
DWIDTH 5 0
BBX 4 8 1 0
BITMAP
90
00
90
90
90
60
20
C0
ENDCHAR
STARTCHAR uni04F1
ENCODING 1265
SWIDTH 500 0
DWIDTH 5 0
BBX 4 8 1 -2
BITMAP
90
00
90
90
90
60
20
C0
ENDCHAR
STARTCHAR uni04F2
ENCODING 1266
SWIDTH 500 0
DWIDTH 5 0
BBX 4 8 1 0
BITMAP
50
B0
00
90
90
60
20
C0
ENDCHAR
STARTCHAR uni04F3
ENCODING 1267
SWIDTH 500 0
DWIDTH 5 0
BBX 4 8 1 -2
BITMAP
50
A0
00
90
90
60
20
C0
ENDCHAR
STARTCHAR char1063
ENCODING 1268
SWIDTH 500 0
DWIDTH 5 0
BBX 4 8 0 0
BITMAP
90
00
90
90
F0
50
10
10
ENDCHAR
STARTCHAR char1063
ENCODING 1269
SWIDTH 500 0
DWIDTH 5 0
BBX 4 7 0 0
BITMAP
90
00
90
90
F0
50
10
ENDCHAR
STARTCHAR char1043
ENCODING 1270
SWIDTH 500 0
DWIDTH 5 0
BBX 4 7 1 -1
BITMAP
F0
80
80
80
80
C0
40
ENDCHAR
STARTCHAR char1075
ENCODING 1271
SWIDTH 500 0
DWIDTH 5 0
BBX 5 6 0 -1
BITMAP
78
40
E0
40
60
20
ENDCHAR
STARTCHAR char1067
ENCODING 1272
SWIDTH 500 0
DWIDTH 5 0
BBX 4 8 1 0
BITMAP
90
00
90
90
90
D0
B0
D0
ENDCHAR
STARTCHAR char1067
ENCODING 1273
SWIDTH 500 0
DWIDTH 5 0
BBX 4 7 1 0
BITMAP
90
00
90
90
D0
B0
D0
ENDCHAR
STARTCHAR char1043
ENCODING 1274
SWIDTH 500 0
DWIDTH 5 0
BBX 5 8 0 -2
BITMAP
78
40
E0
40
40
60
10
10
ENDCHAR
STARTCHAR char1075
ENCODING 1275
SWIDTH 500 0
DWIDTH 5 0
BBX 5 7 0 -2
BITMAP
78
40
E0
40
60
10
20
ENDCHAR
STARTCHAR uni04FC
ENCODING 1276
SWIDTH 500 0
DWIDTH 5 0
BBX 5 7 1 -1
BITMAP
90
90
60
90
90
88
10
ENDCHAR
STARTCHAR uni04FD
ENCODING 1277
SWIDTH 500 0
DWIDTH 5 0
BBX 5 6 1 -1
BITMAP
90
F0
60
90
88
10
ENDCHAR
STARTCHAR uni04FE
ENCODING 1278
SWIDTH 500 0
DWIDTH 5 0
BBX 4 6 1 0
BITMAP
90
90
60
F0
90
90
ENDCHAR
STARTCHAR uni04FF
ENCODING 1279
SWIDTH 500 0
DWIDTH 5 0
BBX 4 5 1 0
BITMAP
90
90
60
F0
90
ENDCHAR
STARTCHAR NKO
ENCODING 2040
SWIDTH 480 0
DWIDTH 5 0
BBX 6 4 0 -1
BITMAP
FC
FC
FC
FC
ENDCHAR
STARTCHAR NKO
ENCODING 2041
SWIDTH 480 0
DWIDTH 5 0
BBX 6 4 0 -1
BITMAP
54
A8
54
A8
ENDCHAR
STARTCHAR NKO
ENCODING 2042
SWIDTH 480 0
DWIDTH 5 0
BBX 5 9 0 -1
BITMAP
A8
00
A8
00
A8
00
A8
00
A8
ENDCHAR
STARTCHAR char2434
ENCODING 2434
SWIDTH 480 0
DWIDTH 5 0
BBX 5 5 1 0
BITMAP
F8
50
50
50
50
ENDCHAR
STARTCHAR KANNADA
ENCODING 3232
SWIDTH 480 0
DWIDTH 5 0
BBX 6 7 0 0
BITMAP
18
04
F8
44
54
44
38
ENDCHAR
STARTCHAR KANNADA
ENCODING 3237
SWIDTH 480 0
DWIDTH 5 0
BBX 6 10 0 -2
BITMAP
08
04
F8
44
54
44
54
28
00
10
ENDCHAR
STARTCHAR char1480
ENCODING 4808
SWIDTH 480 0
DWIDTH 5 0
BBX 5 8 1 -1
BITMAP
F8
F8
F8
F8
F8
F8
F8
F8
ENDCHAR
STARTCHAR char7461
ENCODING 7461
SWIDTH 480 0
DWIDTH 5 0
BBX 5 5 0 0
BITMAP
70
70
70
20
D8
ENDCHAR
STARTCHAR LATIN
ENCODING 7680
SWIDTH 480 0
DWIDTH 5 0
BBX 4 9 1 -3
BITMAP
60
90
90
F0
90
90
20
50
20
ENDCHAR
STARTCHAR LATIN
ENCODING 7681
SWIDTH 480 0
DWIDTH 5 0
BBX 4 8 1 -3
BITMAP
70
90
90
B0
50
40
A0
40
ENDCHAR
STARTCHAR LATIN
ENCODING 7682
SWIDTH 480 0
DWIDTH 5 0
BBX 4 9 1 0
BITMAP
20
00
00
E0
90
E0
90
90
E0
ENDCHAR
STARTCHAR LATIN
ENCODING 7683
SWIDTH 480 0
DWIDTH 5 0
BBX 4 8 1 0
BITMAP
20
80
80
E0
90
90
90
E0
ENDCHAR
STARTCHAR LATIN
ENCODING 7684
SWIDTH 480 0
DWIDTH 5 0
BBX 4 8 1 -2
BITMAP
E0
90
E0
90
90
E0
00
20
ENDCHAR
STARTCHAR LATIN
ENCODING 7685
SWIDTH 480 0
DWIDTH 5 0
BBX 4 9 1 -2
BITMAP
80
80
E0
90
90
90
E0
00
20
ENDCHAR
STARTCHAR LATIN
ENCODING 7686
SWIDTH 480 0
DWIDTH 5 0
BBX 4 8 1 -2
BITMAP
E0
90
E0
90
90
E0
00
70
ENDCHAR
STARTCHAR LATIN
ENCODING 7687
SWIDTH 480 0
DWIDTH 5 0
BBX 4 9 1 -2
BITMAP
80
80
E0
90
90
90
E0
00
70
ENDCHAR
STARTCHAR LATIN
ENCODING 7688
SWIDTH 480 0
DWIDTH 5 0
BBX 4 11 1 -3
BITMAP
20
40
70
80
80
80
80
70
20
10
20
ENDCHAR
STARTCHAR LATIN
ENCODING 7689
SWIDTH 480 0
DWIDTH 5 0
BBX 4 11 1 -3
BITMAP
10
20
00
70
80
80
80
70
20
10
20
ENDCHAR
STARTCHAR LATIN
ENCODING 7690
SWIDTH 480 0
DWIDTH 5 0
BBX 4 9 1 0
BITMAP
40
00
00
E0
90
90
90
90
E0
ENDCHAR
STARTCHAR LATIN
ENCODING 7691
SWIDTH 480 0
DWIDTH 5 0
BBX 4 8 1 0
BITMAP
40
10
10
70
90
90
90
70
ENDCHAR
STARTCHAR LATIN
ENCODING 7692
SWIDTH 480 0
DWIDTH 5 0
BBX 4 8 1 -2
BITMAP
E0
90
90
90
90
E0
00
40
ENDCHAR
STARTCHAR LATIN
ENCODING 7693
SWIDTH 480 0
DWIDTH 5 0
BBX 4 9 1 -2
BITMAP
10
10
70
90
90
90
70
00
40
ENDCHAR
STARTCHAR LATIN
ENCODING 7694
SWIDTH 480 0
DWIDTH 5 0
BBX 4 8 1 -2
BITMAP
E0
90
90
90
90
E0
00
70
ENDCHAR
STARTCHAR LATIN
ENCODING 7695
SWIDTH 480 0
DWIDTH 5 0
BBX 4 9 1 -2
BITMAP
10
10
70
90
90
90
70
00
E0
ENDCHAR
STARTCHAR LATIN
ENCODING 7696
SWIDTH 480 0
DWIDTH 5 0
BBX 4 9 1 -3
BITMAP
E0
90
90
90
90
E0
20
10
20
ENDCHAR
STARTCHAR LATIN
ENCODING 7697
SWIDTH 480 0
DWIDTH 5 0
BBX 4 10 1 -3
BITMAP
10
10
70
90
90
90
70
40
20
40
ENDCHAR
STARTCHAR LATIN
ENCODING 7698
SWIDTH 480 0
DWIDTH 5 0
BBX 4 8 1 -2
BITMAP
E0
90
90
90
90
E0
20
50
ENDCHAR
STARTCHAR LATIN
ENCODING 7699
SWIDTH 480 0
DWIDTH 5 0
BBX 4 9 1 -2
BITMAP
10
10
70
90
90
90
70
40
A0
ENDCHAR
STARTCHAR LATIN
ENCODING 7700
SWIDTH 480 0
DWIDTH 5 0
BBX 4 9 1 0
BITMAP
40
70
00
F0
80
E0
80
80
F0
ENDCHAR
STARTCHAR LATIN
ENCODING 7701
SWIDTH 480 0
DWIDTH 5 0
BBX 4 9 1 0
BITMAP
40
20
70
00
60
90
F0
80
70
ENDCHAR
STARTCHAR LATIN
ENCODING 7702
SWIDTH 480 0
DWIDTH 5 0
BBX 4 9 1 0
BITMAP
10
70
00
F0
80
E0
80
80
F0
ENDCHAR
STARTCHAR LATIN
ENCODING 7703
SWIDTH 480 0
DWIDTH 5 0
BBX 4 9 1 0
BITMAP
10
20
70
00
60
90
F0
80
70
ENDCHAR
STARTCHAR LATIN
ENCODING 7704
SWIDTH 480 0
DWIDTH 5 0
BBX 4 8 1 -2
BITMAP
F0
80
E0
80
80
F0
20
50
ENDCHAR
STARTCHAR LATIN
ENCODING 7705
SWIDTH 480 0
DWIDTH 5 0
BBX 4 7 1 -2
BITMAP
60
90
F0
80
70
20
50
ENDCHAR
STARTCHAR LATIN
ENCODING 7706
SWIDTH 480 0
DWIDTH 5 0
BBX 5 9 1 -3
BITMAP
F0
80
E0
80
80
F0
00
68
90
ENDCHAR
STARTCHAR LATIN
ENCODING 7707
SWIDTH 480 0
DWIDTH 5 0
BBX 5 8 1 -3
BITMAP
60
90
F0
80
70
00
68
90
ENDCHAR
STARTCHAR LATIN
ENCODING 7708
SWIDTH 480 0
DWIDTH 5 0
BBX 5 12 1 -3
BITMAP
88
70
00
F0
80
E0
80
80
F0
20
10
20
ENDCHAR
STARTCHAR LATIN
ENCODING 7709
SWIDTH 480 0
DWIDTH 5 0
BBX 5 11 1 -3
BITMAP
88
70
00
60
90
F0
80
70
20
10
20
ENDCHAR
STARTCHAR LATIN
ENCODING 7710
SWIDTH 480 0
DWIDTH 5 0
BBX 4 9 1 0
BITMAP
20
00
00
F0
80
E0
80
80
80
ENDCHAR
STARTCHAR uni1E1F
ENCODING 7711
SWIDTH 500 0
DWIDTH 5 0
BBX 3 9 2 0
BITMAP
40
00
60
80
E0
80
80
80
80
ENDCHAR
STARTCHAR LATIN
ENCODING 7712
SWIDTH 480 0
DWIDTH 5 0
BBX 4 9 1 0
BITMAP
70
00
00
70
80
80
B0
90
70
ENDCHAR
STARTCHAR LATIN
ENCODING 7713
SWIDTH 480 0
DWIDTH 5 0
BBX 4 9 1 -2
BITMAP
E0
00
70
90
90
90
70
10
60
ENDCHAR
STARTCHAR LATIN
ENCODING 7714
SWIDTH 480 0
DWIDTH 5 0
BBX 4 9 1 0
BITMAP
20
00
00
90
90
F0
90
90
90
ENDCHAR
STARTCHAR LATIN
ENCODING 7715
SWIDTH 480 0
DWIDTH 5 0
BBX 4 8 1 0
BITMAP
20
80
80
E0
90
90
90
90
ENDCHAR
STARTCHAR LATIN
ENCODING 7716
SWIDTH 480 0
DWIDTH 5 0
BBX 4 8 1 -2
BITMAP
90
90
F0
90
90
90
00
20
ENDCHAR
STARTCHAR LATIN
ENCODING 7717
SWIDTH 480 0
DWIDTH 5 0
BBX 4 9 1 -2
BITMAP
80
80
E0
90
90
90
90
00
20
ENDCHAR
STARTCHAR LATIN
ENCODING 7718
SWIDTH 480 0
DWIDTH 5 0
BBX 4 9 1 0
BITMAP
50
00
00
90
90
F0
90
90
90
ENDCHAR
STARTCHAR LATIN
ENCODING 7719
SWIDTH 480 0
DWIDTH 5 0
BBX 4 9 1 0
BITMAP
50
00
80
80
E0
90
90
90
90
ENDCHAR
STARTCHAR LATIN
ENCODING 7720
SWIDTH 480 0
DWIDTH 5 0
BBX 4 8 1 -2
BITMAP
90
90
F0
90
90
90
40
80
ENDCHAR
STARTCHAR LATIN
ENCODING 7721
SWIDTH 480 0
DWIDTH 5 0
BBX 4 9 1 -2
BITMAP
80
80
E0
90
90
90
90
40
80
ENDCHAR
STARTCHAR LATIN
ENCODING 7722
SWIDTH 480 0
DWIDTH 5 0
BBX 4 9 1 -3
BITMAP
90
90
F0
90
90
90
00
90
60
ENDCHAR
STARTCHAR LATIN
ENCODING 7723
SWIDTH 480 0
DWIDTH 5 0
BBX 4 10 1 -3
BITMAP
80
80
E0
90
90
90
90
00
90
60
ENDCHAR
STARTCHAR LATIN
ENCODING 7724
SWIDTH 480 0
DWIDTH 5 0
BBX 5 10 0 -3
BITMAP
70
20
20
20
20
20
70
00
68
90
ENDCHAR
STARTCHAR LATIN
ENCODING 7725
SWIDTH 480 0
DWIDTH 5 0
BBX 5 10 0 -3
BITMAP
20
00
60
20
20
20
20
00
68
90
ENDCHAR
STARTCHAR LATIN
ENCODING 7726
SWIDTH 480 0
DWIDTH 5 0
BBX 3 9 1 0
BITMAP
20
E0
00
E0
40
40
40
40
E0
ENDCHAR
STARTCHAR LATIN
ENCODING 7727
SWIDTH 480 0
DWIDTH 5 0
BBX 3 9 1 0
BITMAP
20
40
A0
00
C0
40
40
40
40
ENDCHAR
STARTCHAR LATIN
ENCODING 7728
SWIDTH 480 0
DWIDTH 5 0
BBX 4 9 1 0
BITMAP
20
40
00
90
A0
E0
90
90
90
ENDCHAR
STARTCHAR LATIN
ENCODING 7729
SWIDTH 480 0
DWIDTH 5 0
BBX 4 9 1 0
BITMAP
10
20
80
80
90
A0
E0
90
90
ENDCHAR
STARTCHAR LATIN
ENCODING 7730
SWIDTH 480 0
DWIDTH 5 0
BBX 4 8 1 -2
BITMAP
90
A0
C0
A0
90
90
00
20
ENDCHAR
STARTCHAR LATIN
ENCODING 7731
SWIDTH 480 0
DWIDTH 5 0
BBX 4 9 1 -2
BITMAP
80
80
90
A0
E0
90
90
00
20
ENDCHAR
STARTCHAR LATIN
ENCODING 7732
SWIDTH 480 0
DWIDTH 5 0
BBX 4 8 1 -2
BITMAP
90
A0
C0
A0
90
90
00
70
ENDCHAR
STARTCHAR LATIN
ENCODING 7733
SWIDTH 480 0
DWIDTH 5 0
BBX 4 9 1 -2
BITMAP
80
80
90
A0
E0
90
90
00
70
ENDCHAR
STARTCHAR LATIN
ENCODING 7734
SWIDTH 480 0
DWIDTH 5 0
BBX 4 8 1 -2
BITMAP
80
80
80
80
80
F0
00
20
ENDCHAR
STARTCHAR LATIN
ENCODING 7735
SWIDTH 480 0
DWIDTH 5 0
BBX 2 9 1 -2
BITMAP
C0
40
40
40
40
40
40
00
40
ENDCHAR
STARTCHAR LATIN
ENCODING 7736
SWIDTH 480 0
DWIDTH 5 0
BBX 4 11 1 -2
BITMAP
70
00
00
80
80
80
80
80
F0
00
20
ENDCHAR
STARTCHAR LATIN
ENCODING 7737
SWIDTH 480 0
DWIDTH 5 0
BBX 3 11 1 -2
BITMAP
E0
00
C0
40
40
40
40
40
40
00
40
ENDCHAR
STARTCHAR LATIN
ENCODING 7738
SWIDTH 480 0
DWIDTH 5 0
BBX 4 8 1 -2
BITMAP
80
80
80
80
80
F0
00
70
ENDCHAR
STARTCHAR LATIN
ENCODING 7739
SWIDTH 480 0
DWIDTH 5 0
BBX 3 9 1 -2
BITMAP
C0
40
40
40
40
40
40
00
E0
ENDCHAR
STARTCHAR LATIN
ENCODING 7740
SWIDTH 480 0
DWIDTH 5 0
BBX 4 9 1 -3
BITMAP
80
80
80
80
80
F0
00
20
50
ENDCHAR
STARTCHAR LATIN
ENCODING 7741
SWIDTH 480 0
DWIDTH 5 0
BBX 3 10 1 -3
BITMAP
C0
40
40
40
40
40
40
00
40
A0
ENDCHAR
STARTCHAR LATIN
ENCODING 7742
SWIDTH 480 0
DWIDTH 5 0
BBX 4 9 1 0
BITMAP
20
40
00
90
F0
B0
90
90
90
ENDCHAR
STARTCHAR LATIN
ENCODING 7743
SWIDTH 480 0
DWIDTH 5 0
BBX 4 8 1 0
BITMAP
20
40
00
90
F0
B0
90
90
ENDCHAR
STARTCHAR LATIN
ENCODING 7744
SWIDTH 480 0
DWIDTH 5 0
BBX 4 9 1 0
BITMAP
20
00
00
90
F0
B0
90
90
90
ENDCHAR
STARTCHAR LATIN
ENCODING 7745
SWIDTH 480 0
DWIDTH 5 0
BBX 4 7 1 0
BITMAP
20
00
90
F0
B0
90
90
ENDCHAR
STARTCHAR LATIN
ENCODING 7746
SWIDTH 480 0
DWIDTH 5 0
BBX 4 8 1 -2
BITMAP
90
F0
B0
90
90
90
00
20
ENDCHAR
STARTCHAR LATIN
ENCODING 7747
SWIDTH 480 0
DWIDTH 5 0
BBX 4 7 1 -2
BITMAP
90
F0
B0
90
90
00
20
ENDCHAR
STARTCHAR LATIN
ENCODING 7748
SWIDTH 480 0
DWIDTH 5 0
BBX 4 9 1 0
BITMAP
20
00
00
90
D0
D0
B0
B0
90
ENDCHAR
STARTCHAR LATIN
ENCODING 7749
SWIDTH 480 0
DWIDTH 5 0
BBX 4 7 1 0
BITMAP
20
00
E0
90
90
90
90
ENDCHAR
STARTCHAR LATIN
ENCODING 7750
SWIDTH 480 0
DWIDTH 5 0
BBX 4 8 1 -2
BITMAP
90
D0
D0
B0
B0
90
00
20
ENDCHAR
STARTCHAR LATIN
ENCODING 7751
SWIDTH 480 0
DWIDTH 5 0
BBX 4 7 1 -2
BITMAP
E0
90
90
90
90
00
20
ENDCHAR
STARTCHAR LATIN
ENCODING 7752
SWIDTH 480 0
DWIDTH 5 0
BBX 4 8 1 -2
BITMAP
90
D0
D0
B0
B0
90
00
70
ENDCHAR
STARTCHAR LATIN
ENCODING 7753
SWIDTH 480 0
DWIDTH 5 0
BBX 4 7 1 -2
BITMAP
E0
90
90
90
90
00
70
ENDCHAR
STARTCHAR LATIN
ENCODING 7754
SWIDTH 480 0
DWIDTH 5 0
BBX 4 9 1 -3
BITMAP
90
D0
D0
B0
B0
90
00
20
50
ENDCHAR
STARTCHAR LATIN
ENCODING 7755
SWIDTH 480 0
DWIDTH 5 0
BBX 4 8 1 -3
BITMAP
E0
90
90
90
90
00
20
50
ENDCHAR
STARTCHAR LATIN
ENCODING 7756
SWIDTH 480 0
DWIDTH 5 0
BBX 5 9 0 0
BITMAP
10
68
90
30
48
48
48
48
30
ENDCHAR
STARTCHAR LATIN
ENCODING 7757
SWIDTH 480 0
DWIDTH 5 0
BBX 5 9 0 0
BITMAP
10
20
68
90
30
48
48
48
30
ENDCHAR
STARTCHAR LATIN
ENCODING 7758
SWIDTH 480 0
DWIDTH 5 0
BBX 5 9 0 0
BITMAP
50
68
90
30
48
48
48
48
30
ENDCHAR
STARTCHAR LATIN
ENCODING 7759
SWIDTH 480 0
DWIDTH 5 0
BBX 5 9 0 0
BITMAP
50
00
68
90
30
48
48
48
30
ENDCHAR
STARTCHAR LATIN
ENCODING 7760
SWIDTH 480 0
DWIDTH 5 0
BBX 4 9 1 0
BITMAP
80
E0
00
60
90
90
90
90
60
ENDCHAR
STARTCHAR LATIN
ENCODING 7761
SWIDTH 480 0
DWIDTH 5 0
BBX 4 9 1 0
BITMAP
80
40
E0
00
60
90
90
90
60
ENDCHAR
STARTCHAR LATIN
ENCODING 7762
SWIDTH 480 0
DWIDTH 5 0
BBX 4 9 1 0
BITMAP
20
E0
00
60
90
90
90
90
60
ENDCHAR
STARTCHAR LATIN
ENCODING 7763
SWIDTH 480 0
DWIDTH 5 0
BBX 4 9 1 0
BITMAP
20
40
E0
00
60
90
90
90
60
ENDCHAR
STARTCHAR LATIN
ENCODING 7764
SWIDTH 480 0
DWIDTH 5 0
BBX 4 9 1 0
BITMAP
10
20
00
E0
90
90
E0
80
80
ENDCHAR
STARTCHAR LATIN
ENCODING 7765
SWIDTH 480 0
DWIDTH 5 0
BBX 4 10 1 -2
BITMAP
10
20
00
E0
90
90
90
E0
80
80
ENDCHAR
STARTCHAR LATIN
ENCODING 7766
SWIDTH 480 0
DWIDTH 5 0
BBX 4 9 1 0
BITMAP
20
00
00
E0
90
90
E0
80
80
ENDCHAR
STARTCHAR LATIN
ENCODING 7767
SWIDTH 480 0
DWIDTH 5 0
BBX 4 9 1 -2
BITMAP
20
00
E0
90
90
90
E0
80
80
ENDCHAR
STARTCHAR LATIN
ENCODING 7768
SWIDTH 480 0
DWIDTH 5 0
BBX 4 9 1 0
BITMAP
20
00
00
E0
90
90
E0
90
90
ENDCHAR
STARTCHAR LATIN
ENCODING 7769
SWIDTH 480 0
DWIDTH 5 0
BBX 4 7 1 0
BITMAP
20
00
B0
C0
80
80
80
ENDCHAR
STARTCHAR LATIN
ENCODING 7770
SWIDTH 480 0
DWIDTH 5 0
BBX 4 8 1 -2
BITMAP
E0
90
90
E0
90
90
00
20
ENDCHAR
STARTCHAR LATIN
ENCODING 7771
SWIDTH 480 0
DWIDTH 5 0
BBX 4 7 1 -2
BITMAP
B0
C0
80
80
80
00
20
ENDCHAR
STARTCHAR LATIN
ENCODING 7772
SWIDTH 480 0
DWIDTH 5 0
BBX 4 10 1 -2
BITMAP
70
00
E0
90
90
E0
90
90
00
20
ENDCHAR
STARTCHAR LATIN
ENCODING 7773
SWIDTH 480 0
DWIDTH 5 0
BBX 4 9 1 -2
BITMAP
70
00
B0
C0
80
80
80
00
20
ENDCHAR
STARTCHAR LATIN
ENCODING 7774
SWIDTH 480 0
DWIDTH 5 0
BBX 4 8 1 -2
BITMAP
E0
90
90
E0
90
90
00
70
ENDCHAR
STARTCHAR LATIN
ENCODING 7775
SWIDTH 480 0
DWIDTH 5 0
BBX 4 7 1 -2
BITMAP
B0
C0
80
80
80
00
70
ENDCHAR
STARTCHAR LATIN
ENCODING 7776
SWIDTH 480 0
DWIDTH 5 0
BBX 4 9 1 0
BITMAP
40
00
00
70
80
60
10
10
E0
ENDCHAR
STARTCHAR LATIN
ENCODING 7777
SWIDTH 480 0
DWIDTH 5 0
BBX 4 7 1 0
BITMAP
40
00
70
80
60
10
E0
ENDCHAR
STARTCHAR LATIN
ENCODING 7778
SWIDTH 480 0
DWIDTH 5 0
BBX 4 8 1 -2
BITMAP
70
80
60
10
10
E0
00
40
ENDCHAR
STARTCHAR LATIN
ENCODING 7779
SWIDTH 480 0
DWIDTH 5 0
BBX 4 7 1 -2
BITMAP
70
80
60
10
E0
00
40
ENDCHAR
STARTCHAR LATIN
ENCODING 7780
SWIDTH 480 0
DWIDTH 5 0
BBX 4 9 1 0
BITMAP
60
40
00
70
80
60
10
10
E0
ENDCHAR
STARTCHAR LATIN
ENCODING 7781
SWIDTH 480 0
DWIDTH 5 0
BBX 4 9 1 0
BITMAP
40
20
40
00
70
80
60
10
E0
ENDCHAR
STARTCHAR LATIN
ENCODING 7782
SWIDTH 480 0
DWIDTH 5 0
BBX 4 9 1 0
BITMAP
E0
40
00
70
80
60
10
10
E0
ENDCHAR
STARTCHAR LATIN
ENCODING 7783
SWIDTH 480 0
DWIDTH 5 0
BBX 4 9 1 0
BITMAP
40
00
A0
40
70
80
60
10
E0
ENDCHAR
STARTCHAR LATIN
ENCODING 7784
SWIDTH 480 0
DWIDTH 5 0
BBX 4 11 1 -2
BITMAP
40
00
00
70
80
60
10
10
E0
00
40
ENDCHAR
STARTCHAR LATIN
ENCODING 7785
SWIDTH 480 0
DWIDTH 5 0
BBX 4 9 1 -2
BITMAP
40
00
70
80
60
10
E0
00
40
ENDCHAR
STARTCHAR LATIN
ENCODING 7786
SWIDTH 480 0
DWIDTH 5 0
BBX 5 9 0 0
BITMAP
20
00
00
F8
20
20
20
20
20
ENDCHAR
STARTCHAR uni1E6B
ENCODING 7787
SWIDTH 500 0
DWIDTH 5 0
BBX 3 8 1 0
BITMAP
40
00
40
E0
40
40
40
20
ENDCHAR
STARTCHAR LATIN
ENCODING 7788
SWIDTH 480 0
DWIDTH 5 0
BBX 5 8 0 -2
BITMAP
F8
20
20
20
20
20
00
20
ENDCHAR
STARTCHAR LATIN
ENCODING 7789
SWIDTH 480 0
DWIDTH 5 0
BBX 3 8 1 -2
BITMAP
40
E0
40
40
40
20
00
40
ENDCHAR
STARTCHAR LATIN
ENCODING 7790
SWIDTH 480 0
DWIDTH 5 0
BBX 5 8 0 -2
BITMAP
F8
20
20
20
20
20
00
70
ENDCHAR
STARTCHAR LATIN
ENCODING 7791
SWIDTH 480 0
DWIDTH 5 0
BBX 3 8 1 -2
BITMAP
40
E0
40
40
40
20
00
E0
ENDCHAR
STARTCHAR LATIN
ENCODING 7792
SWIDTH 480 0
DWIDTH 5 0
BBX 5 9 0 -3
BITMAP
F8
20
20
20
20
20
00
20
50
ENDCHAR
STARTCHAR LATIN
ENCODING 7793
SWIDTH 480 0
DWIDTH 5 0
BBX 3 9 1 -3
BITMAP
40
E0
40
40
40
20
00
40
A0
ENDCHAR
STARTCHAR LATIN
ENCODING 7794
SWIDTH 480 0
DWIDTH 5 0
BBX 4 8 1 -2
BITMAP
90
90
90
90
90
70
00
50
ENDCHAR
STARTCHAR LATIN
ENCODING 7795
SWIDTH 480 0
DWIDTH 5 0
BBX 4 7 1 -2
BITMAP
90
90
90
90
70
00
50
ENDCHAR
STARTCHAR LATIN
ENCODING 7796
SWIDTH 480 0
DWIDTH 5 0
BBX 4 9 1 -3
BITMAP
90
90
90
90
90
70
00
50
A0
ENDCHAR
STARTCHAR LATIN
ENCODING 7797
SWIDTH 480 0
DWIDTH 5 0
BBX 4 8 1 -3
BITMAP
90
90
90
90
70
00
50
A0
ENDCHAR
STARTCHAR LATIN
ENCODING 7798
SWIDTH 480 0
DWIDTH 5 0
BBX 4 9 1 -3
BITMAP
90
90
90
90
90
70
00
40
A0
ENDCHAR
STARTCHAR LATIN
ENCODING 7799
SWIDTH 480 0
DWIDTH 5 0
BBX 4 8 1 -3
BITMAP
90
90
90
90
60
00
40
A0
ENDCHAR
STARTCHAR LATIN
ENCODING 7800
SWIDTH 480 0
DWIDTH 5 0
BBX 5 9 0 0
BITMAP
10
68
90
48
48
48
48
48
38
ENDCHAR
STARTCHAR LATIN
ENCODING 7801
SWIDTH 480 0
DWIDTH 5 0
BBX 5 9 0 0
BITMAP
10
68
90
00
48
48
48
48
38
ENDCHAR
STARTCHAR LATIN
ENCODING 7802
SWIDTH 480 0
DWIDTH 5 0
BBX 4 9 1 0
BITMAP
A0
E0
00
90
90
90
90
90
70
ENDCHAR
STARTCHAR LATIN
ENCODING 7803
SWIDTH 480 0
DWIDTH 5 0
BBX 4 9 1 0
BITMAP
A0
00
E0
00
90
90
90
90
70
ENDCHAR
STARTCHAR uni1E7C
ENCODING 7804
SWIDTH 500 0
DWIDTH 5 0
BBX 4 9 1 0
BITMAP
50
A0
00
90
90
90
60
60
60
ENDCHAR
STARTCHAR uni1E7D
ENCODING 7805
SWIDTH 500 0
DWIDTH 5 0
BBX 4 9 1 0
BITMAP
50
A0
00
00
90
90
90
60
60
ENDCHAR
STARTCHAR uni1E7E
ENCODING 7806
SWIDTH 500 0
DWIDTH 5 0
BBX 4 8 1 -2
BITMAP
90
90
90
60
60
60
00
40
ENDCHAR
STARTCHAR uni1E7F
ENCODING 7807
SWIDTH 500 0
DWIDTH 5 0
BBX 4 7 1 -2
BITMAP
90
90
90
60
60
00
40
ENDCHAR
STARTCHAR Wgrave
ENCODING 7808
SWIDTH 500 0
DWIDTH 5 0
BBX 4 8 1 0
BITMAP
40
20
90
90
90
90
F0
90
ENDCHAR
STARTCHAR wgrave
ENCODING 7809
SWIDTH 500 0
DWIDTH 5 0
BBX 4 8 1 0
BITMAP
40
20
00
90
90
90
F0
90
ENDCHAR
STARTCHAR Wacute
ENCODING 7810
SWIDTH 500 0
DWIDTH 5 0
BBX 4 8 1 0
BITMAP
20
40
90
90
90
90
F0
90
ENDCHAR
STARTCHAR wacute
ENCODING 7811
SWIDTH 500 0
DWIDTH 5 0
BBX 4 8 1 0
BITMAP
20
40
00
90
90
90
F0
90
ENDCHAR
STARTCHAR Wdieresis
ENCODING 7812
SWIDTH 500 0
DWIDTH 5 0
BBX 4 8 1 0
BITMAP
50
00
90
90
90
90
F0
90
ENDCHAR
STARTCHAR wdieresis
ENCODING 7813
SWIDTH 500 0
DWIDTH 5 0
BBX 4 7 1 0
BITMAP
50
00
90
90
90
F0
90
ENDCHAR
STARTCHAR uni1E86
ENCODING 7814
SWIDTH 500 0
DWIDTH 5 0
BBX 4 8 1 0
BITMAP
20
00
90
90
90
90
F0
90
ENDCHAR
STARTCHAR uni1E87
ENCODING 7815
SWIDTH 500 0
DWIDTH 5 0
BBX 4 7 1 0
BITMAP
20
00
90
90
90
F0
90
ENDCHAR
STARTCHAR uni1E88
ENCODING 7816
SWIDTH 500 0
DWIDTH 5 0
BBX 4 8 1 -2
BITMAP
90
90
90
90
F0
90
00
20
ENDCHAR
STARTCHAR uni1E89
ENCODING 7817
SWIDTH 500 0
DWIDTH 5 0
BBX 4 7 1 -2
BITMAP
90
90
90
F0
90
00
20
ENDCHAR
STARTCHAR uni1E8A
ENCODING 7818
SWIDTH 500 0
DWIDTH 5 0
BBX 4 8 1 0
BITMAP
20
00
90
90
60
90
90
90
ENDCHAR
STARTCHAR uni1E8B
ENCODING 7819
SWIDTH 500 0
DWIDTH 5 0
BBX 4 7 1 0
BITMAP
20
00
90
90
60
90
90
ENDCHAR
STARTCHAR uni1E8C
ENCODING 7820
SWIDTH 500 0
DWIDTH 5 0
BBX 4 8 1 0
BITMAP
50
00
90
90
60
90
90
90
ENDCHAR
STARTCHAR uni1E8D
ENCODING 7821
SWIDTH 500 0
DWIDTH 5 0
BBX 4 7 1 0
BITMAP
50
00
90
90
60
90
90
ENDCHAR
STARTCHAR uni1E8E
ENCODING 7822
SWIDTH 500 0
DWIDTH 5 0
BBX 5 7 0 0
BITMAP
20
88
50
20
20
20
20
ENDCHAR
STARTCHAR uni1E8F
ENCODING 7823
SWIDTH 500 0
DWIDTH 5 0
BBX 4 9 1 -2
BITMAP
20
00
90
90
90
90
70
10
60
ENDCHAR
STARTCHAR uni1E90
ENCODING 7824
SWIDTH 500 0
DWIDTH 5 0
BBX 4 9 1 0
BITMAP
20
50
00
F0
10
20
40
80
F0
ENDCHAR
STARTCHAR uni1E91
ENCODING 7825
SWIDTH 500 0
DWIDTH 5 0
BBX 4 8 1 0
BITMAP
20
50
00
F0
20
40
80
F0
ENDCHAR
STARTCHAR uni1E92
ENCODING 7826
SWIDTH 500 0
DWIDTH 5 0
BBX 4 8 1 -2
BITMAP
F0
10
20
40
80
F0
00
40
ENDCHAR
STARTCHAR uni1E93
ENCODING 7827
SWIDTH 500 0
DWIDTH 5 0
BBX 4 7 1 -2
BITMAP
F0
20
40
80
F0
00
40
ENDCHAR
STARTCHAR uni1E94
ENCODING 7828
SWIDTH 500 0
DWIDTH 5 0
BBX 4 8 1 -2
BITMAP
F0
10
20
40
80
F0
00
60
ENDCHAR
STARTCHAR uni1E95
ENCODING 7829
SWIDTH 500 0
DWIDTH 5 0
BBX 4 7 1 -2
BITMAP
F0
20
40
80
F0
00
60
ENDCHAR
STARTCHAR uni1E96
ENCODING 7830
SWIDTH 500 0
DWIDTH 5 0
BBX 4 9 1 -2
BITMAP
80
80
E0
90
90
90
90
00
60
ENDCHAR
STARTCHAR uni1E97
ENCODING 7831
SWIDTH 500 0
DWIDTH 5 0
BBX 3 8 1 0
BITMAP
A0
00
40
E0
40
40
40
20
ENDCHAR
STARTCHAR uni1E98
ENCODING 7832
SWIDTH 500 0
DWIDTH 5 0
BBX 4 8 1 0
BITMAP
20
50
20
90
90
90
F0
90
ENDCHAR
STARTCHAR uni1E99
ENCODING 7833
SWIDTH 500 0
DWIDTH 5 0
BBX 4 10 1 -2
BITMAP
20
50
20
90
90
90
90
70
10
60
ENDCHAR
STARTCHAR uni1E9A
ENCODING 7834
SWIDTH 500 0
DWIDTH 5 0
BBX 4 9 1 0
BITMAP
20
10
20
00
70
90
90
B0
50
ENDCHAR
STARTCHAR LATIN
ENCODING 7835
SWIDTH 480 0
DWIDTH 5 0
BBX 4 9 1 0
BITMAP
20
00
30
40
C0
40
40
40
40
ENDCHAR
STARTCHAR LATIN
ENCODING 7836
SWIDTH 480 0
DWIDTH 5 0
BBX 4 7 1 0
BITMAP
30
40
C0
60
C0
40
40
ENDCHAR
STARTCHAR LATIN
ENCODING 7837
SWIDTH 480 0
DWIDTH 5 0
BBX 4 7 1 0
BITMAP
30
E0
40
C0
40
40
40
ENDCHAR
STARTCHAR LATIN
ENCODING 7838
SWIDTH 480 0
DWIDTH 5 0
BBX 4 8 1 -1
BITMAP
60
90
A0
90
90
90
A0
80
ENDCHAR
STARTCHAR LATIN
ENCODING 7839
SWIDTH 480 0
DWIDTH 5 0
BBX 4 7 1 0
BITMAP
70
80
60
90
90
90
60
ENDCHAR
STARTCHAR LATIN
ENCODING 7840
SWIDTH 480 0
DWIDTH 5 0
BBX 4 8 1 -2
BITMAP
60
90
90
F0
90
90
00
20
ENDCHAR
STARTCHAR LATIN
ENCODING 7841
SWIDTH 480 0
DWIDTH 5 0
BBX 4 7 1 -2
BITMAP
70
90
90
B0
50
00
20
ENDCHAR
STARTCHAR LATIN
ENCODING 7842
SWIDTH 480 0
DWIDTH 5 0
BBX 4 8 1 0
BITMAP
40
A0
60
90
90
F0
90
90
ENDCHAR
STARTCHAR LATIN
ENCODING 7843
SWIDTH 480 0
DWIDTH 5 0
BBX 4 8 1 0
BITMAP
40
20
40
70
90
90
B0
50
ENDCHAR
STARTCHAR LATIN
ENCODING 7844
SWIDTH 480 0
DWIDTH 5 0
BBX 4 8 1 0
BITMAP
50
A0
60
90
90
F0
90
90
ENDCHAR
STARTCHAR LATIN
ENCODING 7845
SWIDTH 480 0
DWIDTH 5 0
BBX 4 8 1 0
BITMAP
50
A0
00
70
90
90
B0
50
ENDCHAR
STARTCHAR LATIN
ENCODING 7846
SWIDTH 480 0
DWIDTH 5 0
BBX 4 8 1 0
BITMAP
A0
50
60
90
90
F0
90
90
ENDCHAR
STARTCHAR LATIN
ENCODING 7847
SWIDTH 480 0
DWIDTH 5 0
BBX 4 8 1 0
BITMAP
A0
50
00
70
90
90
B0
50
ENDCHAR
STARTCHAR LATIN
ENCODING 7848
SWIDTH 480 0
DWIDTH 5 0
BBX 4 8 1 0
BITMAP
30
C0
60
90
90
F0
90
90
ENDCHAR
STARTCHAR LATIN
ENCODING 7849
SWIDTH 480 0
DWIDTH 5 0
BBX 4 8 1 0
BITMAP
30
C0
00
70
90
90
B0
50
ENDCHAR
STARTCHAR LATIN
ENCODING 7850
SWIDTH 480 0
DWIDTH 5 0
BBX 4 8 1 0
BITMAP
F0
60
90
60
90
F0
90
90
ENDCHAR
STARTCHAR LATIN
ENCODING 7851
SWIDTH 480 0
DWIDTH 5 0
BBX 4 8 1 0
BITMAP
F0
60
90
70
90
90
B0
50
ENDCHAR
STARTCHAR LATIN
ENCODING 7852
SWIDTH 480 0
DWIDTH 5 0
BBX 4 10 1 -2
BITMAP
60
90
60
90
90
F0
90
90
00
20
ENDCHAR
STARTCHAR LATIN
ENCODING 7853
SWIDTH 480 0
DWIDTH 5 0
BBX 4 10 1 -2
BITMAP
60
90
00
70
90
90
B0
50
00
20
ENDCHAR
STARTCHAR LATIN
ENCODING 7854
SWIDTH 480 0
DWIDTH 5 0
BBX 4 8 1 0
BITMAP
B0
60
60
90
90
F0
90
90
ENDCHAR
STARTCHAR LATIN
ENCODING 7855
SWIDTH 480 0
DWIDTH 5 0
BBX 4 8 1 0
BITMAP
B0
60
00
70
90
90
B0
50
ENDCHAR
STARTCHAR LATIN
ENCODING 7856
SWIDTH 480 0
DWIDTH 5 0
BBX 4 8 1 0
BITMAP
D0
60
60
90
90
F0
90
90
ENDCHAR
STARTCHAR LATIN
ENCODING 7857
SWIDTH 480 0
DWIDTH 5 0
BBX 4 8 1 0
BITMAP
D0
60
00
70
90
90
B0
50
ENDCHAR
STARTCHAR LATIN
ENCODING 7858
SWIDTH 480 0
DWIDTH 5 0
BBX 4 8 1 0
BITMAP
20
F0
60
90
90
F0
90
90
ENDCHAR
STARTCHAR LATIN
ENCODING 7859
SWIDTH 480 0
DWIDTH 5 0
BBX 4 8 1 0
BITMAP
20
F0
00
70
90
90
B0
50
ENDCHAR
STARTCHAR LATIN
ENCODING 7860
SWIDTH 480 0
DWIDTH 5 0
BBX 4 8 1 0
BITMAP
F0
90
60
60
90
F0
90
90
ENDCHAR
STARTCHAR LATIN
ENCODING 7861
SWIDTH 480 0
DWIDTH 5 0
BBX 4 8 1 0
BITMAP
F0
90
60
70
90
90
B0
50
ENDCHAR
STARTCHAR LATIN
ENCODING 7862
SWIDTH 480 0
DWIDTH 5 0
BBX 4 10 1 -2
BITMAP
90
60
60
90
90
F0
90
90
00
20
ENDCHAR
STARTCHAR LATIN
ENCODING 7863
SWIDTH 480 0
DWIDTH 5 0
BBX 4 10 1 -2
BITMAP
90
60
00
70
90
90
B0
50
00
20
ENDCHAR
STARTCHAR LATIN
ENCODING 7864
SWIDTH 480 0
DWIDTH 5 0
BBX 4 8 1 -2
BITMAP
F0
80
E0
80
80
F0
00
40
ENDCHAR
STARTCHAR LATIN
ENCODING 7865
SWIDTH 480 0
DWIDTH 5 0
BBX 4 7 1 -2
BITMAP
60
90
F0
80
70
00
40
ENDCHAR
STARTCHAR LATIN
ENCODING 7866
SWIDTH 480 0
DWIDTH 5 0
BBX 4 8 1 0
BITMAP
60
20
F0
80
E0
80
80
F0
ENDCHAR
STARTCHAR LATIN
ENCODING 7867
SWIDTH 480 0
DWIDTH 5 0
BBX 4 8 1 0
BITMAP
60
20
00
60
90
F0
80
70
ENDCHAR
STARTCHAR LATIN
ENCODING 7868
SWIDTH 480 0
DWIDTH 5 0
BBX 4 8 1 0
BITMAP
50
B0
F0
80
E0
80
80
F0
ENDCHAR
STARTCHAR LATIN
ENCODING 7869
SWIDTH 480 0
DWIDTH 5 0
BBX 4 8 1 0
BITMAP
50
B0
00
60
90
F0
80
70
ENDCHAR
STARTCHAR LATIN
ENCODING 7870
SWIDTH 480 0
DWIDTH 5 0
BBX 4 8 1 0
BITMAP
A0
D0
F0
80
E0
80
80
F0
ENDCHAR
STARTCHAR LATIN
ENCODING 7871
SWIDTH 480 0
DWIDTH 5 0
BBX 4 8 1 0
BITMAP
A0
D0
00
60
90
F0
80
70
ENDCHAR
STARTCHAR LATIN
ENCODING 7872
SWIDTH 480 0
DWIDTH 5 0
BBX 4 8 1 0
BITMAP
A0
50
F0
80
E0
80
80
F0
ENDCHAR
STARTCHAR LATIN
ENCODING 7873
SWIDTH 480 0
DWIDTH 5 0
BBX 4 8 1 0
BITMAP
A0
50
00
60
90
F0
80
70
ENDCHAR
STARTCHAR LATIN
ENCODING 7874
SWIDTH 480 0
DWIDTH 5 0
BBX 4 8 1 0
BITMAP
50
A0
F0
80
E0
80
80
F0
ENDCHAR
STARTCHAR LATIN
ENCODING 7875
SWIDTH 480 0
DWIDTH 5 0
BBX 4 8 1 0
BITMAP
50
A0
00
60
90
F0
80
70
ENDCHAR
STARTCHAR LATIN
ENCODING 7876
SWIDTH 480 0
DWIDTH 5 0
BBX 4 10 1 -2
BITMAP
60
90
F0
80
E0
80
80
F0
00
40
ENDCHAR
STARTCHAR LATIN
ENCODING 7877
SWIDTH 480 0
DWIDTH 5 0
BBX 4 10 1 -2
BITMAP
90
60
90
60
90
F0
80
70
00
40
ENDCHAR
STARTCHAR LATIN
ENCODING 7878
SWIDTH 480 0
DWIDTH 5 0
BBX 4 10 1 -2
BITMAP
60
90
F0
80
E0
80
80
F0
00
40
ENDCHAR
STARTCHAR LATIN
ENCODING 7879
SWIDTH 480 0
DWIDTH 5 0
BBX 4 10 1 -2
BITMAP
60
90
00
60
90
F0
80
70
00
40
ENDCHAR
STARTCHAR LATIN
ENCODING 7880
SWIDTH 480 0
DWIDTH 5 0
BBX 3 8 1 0
BITMAP
C0
40
E0
40
40
40
40
E0
ENDCHAR
STARTCHAR LATIN
ENCODING 7881
SWIDTH 480 0
DWIDTH 5 0
BBX 2 8 1 0
BITMAP
C0
40
00
C0
40
40
40
40
ENDCHAR
STARTCHAR LATIN
ENCODING 7882
SWIDTH 480 0
DWIDTH 5 0
BBX 3 9 1 -2
BITMAP
E0
40
40
40
40
40
E0
00
40
ENDCHAR
STARTCHAR LATIN
ENCODING 7883
SWIDTH 480 0
DWIDTH 5 0
BBX 2 9 1 -2
BITMAP
40
00
C0
40
40
40
40
00
40
ENDCHAR
STARTCHAR LATIN
ENCODING 7884
SWIDTH 480 0
DWIDTH 5 0
BBX 4 8 1 -2
BITMAP
60
90
90
90
90
60
00
40
ENDCHAR
STARTCHAR LATIN
ENCODING 7885
SWIDTH 480 0
DWIDTH 5 0
BBX 4 7 1 -2
BITMAP
60
90
90
90
60
00
40
ENDCHAR
STARTCHAR LATIN
ENCODING 7886
SWIDTH 480 0
DWIDTH 5 0
BBX 4 8 1 0
BITMAP
60
20
60
90
90
90
90
60
ENDCHAR
STARTCHAR LATIN
ENCODING 7887
SWIDTH 480 0
DWIDTH 5 0
BBX 4 7 1 0
BITMAP
60
20
60
90
90
90
60
ENDCHAR
STARTCHAR LATIN
ENCODING 7888
SWIDTH 480 0
DWIDTH 5 0
BBX 4 8 1 0
BITMAP
30
C0
60
90
90
90
90
60
ENDCHAR
STARTCHAR LATIN
ENCODING 7889
SWIDTH 480 0
DWIDTH 5 0
BBX 4 7 1 0
BITMAP
30
C0
60
90
90
90
60
ENDCHAR
STARTCHAR LATIN
ENCODING 7890
SWIDTH 480 0
DWIDTH 5 0
BBX 4 8 1 0
BITMAP
C0
30
60
90
90
90
90
60
ENDCHAR
STARTCHAR LATIN
ENCODING 7891
SWIDTH 480 0
DWIDTH 5 0
BBX 4 8 1 0
BITMAP
C0
30
00
60
90
90
90
60
ENDCHAR
STARTCHAR LATIN
ENCODING 7892
SWIDTH 480 0
DWIDTH 5 0
BBX 4 8 1 0
BITMAP
20
D0
60
90
90
90
90
60
ENDCHAR
STARTCHAR LATIN
ENCODING 7893
SWIDTH 480 0
DWIDTH 5 0
BBX 4 8 1 0
BITMAP
20
D0
00
60
90
90
90
60
ENDCHAR
STARTCHAR LATIN
ENCODING 7894
SWIDTH 480 0
DWIDTH 5 0
BBX 4 8 1 0
BITMAP
F0
60
60
90
90
90
90
60
ENDCHAR
STARTCHAR LATIN
ENCODING 7895
SWIDTH 480 0
DWIDTH 5 0
BBX 4 8 1 0
BITMAP
F0
60
90
60
90
90
90
60
ENDCHAR
STARTCHAR LATIN
ENCODING 7896
SWIDTH 480 0
DWIDTH 5 0
BBX 4 10 1 -2
BITMAP
60
90
60
90
90
90
90
60
00
40
ENDCHAR
STARTCHAR LATIN
ENCODING 7897
SWIDTH 480 0
DWIDTH 5 0
BBX 4 10 1 -2
BITMAP
60
90
00
60
90
90
90
60
00
40
ENDCHAR
STARTCHAR LATIN
ENCODING 7898
SWIDTH 480 0
DWIDTH 5 0
BBX 5 8 1 0
BITMAP
20
40
68
98
90
90
90
60
ENDCHAR
STARTCHAR LATIN
ENCODING 7899
SWIDTH 480 0
DWIDTH 5 0
BBX 5 8 1 0
BITMAP
20
40
00
68
98
90
90
60
ENDCHAR
STARTCHAR LATIN
ENCODING 7900
SWIDTH 480 0
DWIDTH 5 0
BBX 5 8 1 0
BITMAP
40
20
68
98
90
90
90
60
ENDCHAR
STARTCHAR LATIN
ENCODING 7901
SWIDTH 480 0
DWIDTH 5 0
BBX 5 8 1 0
BITMAP
40
20
00
68
98
90
90
60
ENDCHAR
STARTCHAR LATIN
ENCODING 7902
SWIDTH 480 0
DWIDTH 5 0
BBX 5 8 1 0
BITMAP
60
20
68
98
90
90
90
60
ENDCHAR
STARTCHAR LATIN
ENCODING 7903
SWIDTH 480 0
DWIDTH 5 0
BBX 5 8 1 0
BITMAP
60
20
00
68
98
90
90
60
ENDCHAR
STARTCHAR LATIN
ENCODING 7904
SWIDTH 480 0
DWIDTH 5 0
BBX 5 8 1 0
BITMAP
50
A0
68
98
90
90
90
60
ENDCHAR
STARTCHAR LATIN
ENCODING 7905
SWIDTH 480 0
DWIDTH 5 0
BBX 5 8 1 0
BITMAP
50
A0
00
68
98
90
90
60
ENDCHAR
STARTCHAR LATIN
ENCODING 7906
SWIDTH 480 0
DWIDTH 5 0
BBX 5 8 1 -2
BITMAP
68
98
90
90
90
60
00
40
ENDCHAR
STARTCHAR LATIN
ENCODING 7907
SWIDTH 480 0
DWIDTH 5 0
BBX 5 7 1 -2
BITMAP
68
98
90
90
60
00
40
ENDCHAR
STARTCHAR LATIN
ENCODING 7908
SWIDTH 480 0
DWIDTH 5 0
BBX 4 8 1 -2
BITMAP
90
90
90
90
90
70
00
40
ENDCHAR
STARTCHAR LATIN
ENCODING 7909
SWIDTH 480 0
DWIDTH 5 0
BBX 4 7 1 -2
BITMAP
90
90
90
90
70
00
40
ENDCHAR
STARTCHAR LATIN
ENCODING 7910
SWIDTH 480 0
DWIDTH 5 0
BBX 4 8 1 0
BITMAP
60
20
90
90
90
90
90
70
ENDCHAR
STARTCHAR LATIN
ENCODING 7911
SWIDTH 480 0
DWIDTH 5 0
BBX 4 8 1 0
BITMAP
60
20
00
90
90
90
90
70
ENDCHAR
STARTCHAR LATIN
ENCODING 7912
SWIDTH 480 0
DWIDTH 5 0
BBX 5 8 1 0
BITMAP
20
48
98
90
90
90
90
70
ENDCHAR
STARTCHAR LATIN
ENCODING 7913
SWIDTH 480 0
DWIDTH 5 0
BBX 5 8 1 0
BITMAP
20
40
08
98
90
90
90
70
ENDCHAR
STARTCHAR LATIN
ENCODING 7914
SWIDTH 480 0
DWIDTH 5 0
BBX 5 8 1 0
BITMAP
40
28
98
90
90
90
90
70
ENDCHAR
STARTCHAR LATIN
ENCODING 7915
SWIDTH 480 0
DWIDTH 5 0
BBX 5 8 1 0
BITMAP
40
20
08
98
90
90
90
70
ENDCHAR
STARTCHAR LATIN
ENCODING 7916
SWIDTH 480 0
DWIDTH 5 0
BBX 5 8 1 0
BITMAP
60
28
98
90
90
90
90
70
ENDCHAR
STARTCHAR LATIN
ENCODING 7917
SWIDTH 480 0
DWIDTH 5 0
BBX 5 8 1 0
BITMAP
60
20
08
98
90
90
90
70
ENDCHAR
STARTCHAR LATIN
ENCODING 7918
SWIDTH 480 0
DWIDTH 5 0
BBX 5 8 1 0
BITMAP
50
A0
98
90
90
90
90
70
ENDCHAR
STARTCHAR LATIN
ENCODING 7919
SWIDTH 480 0
DWIDTH 5 0
BBX 5 8 1 0
BITMAP
50
A0
08
98
90
90
90
70
ENDCHAR
STARTCHAR LATIN
ENCODING 7920
SWIDTH 480 0
DWIDTH 5 0
BBX 5 9 1 -2
BITMAP
08
98
90
90
90
90
70
00
40
ENDCHAR
STARTCHAR LATIN
ENCODING 7921
SWIDTH 480 0
DWIDTH 5 0
BBX 5 8 1 -2
BITMAP
08
98
90
90
90
70
00
40
ENDCHAR
STARTCHAR Ygrave
ENCODING 7922
SWIDTH 500 0
DWIDTH 5 0
BBX 5 8 0 0
BITMAP
40
20
88
50
20
20
20
20
ENDCHAR
STARTCHAR ygrave
ENCODING 7923
SWIDTH 500 0
DWIDTH 5 0
BBX 4 10 1 -2
BITMAP
40
20
00
90
90
90
90
70
10
60
ENDCHAR
STARTCHAR uni1EF4
ENCODING 7924
SWIDTH 500 0
DWIDTH 5 0
BBX 5 8 0 -2
BITMAP
88
50
20
20
20
20
00
20
ENDCHAR
STARTCHAR uni1EF5
ENCODING 7925
SWIDTH 500 0
DWIDTH 5 0
BBX 5 7 1 -2
BITMAP
90
90
90
90
70
20
48
ENDCHAR
STARTCHAR uni1EF6
ENCODING 7926
SWIDTH 500 0
DWIDTH 5 0
BBX 5 8 0 0
BITMAP
60
20
88
50
20
20
20
20
ENDCHAR
STARTCHAR uni1EF7
ENCODING 7927
SWIDTH 500 0
DWIDTH 5 0
BBX 4 10 1 -2
BITMAP
60
20
00
90
90
90
90
70
10
60
ENDCHAR
STARTCHAR uni1EF8
ENCODING 7928
SWIDTH 500 0
DWIDTH 5 0
BBX 5 8 0 0
BITMAP
48
B0
88
50
20
20
20
20
ENDCHAR
STARTCHAR uni1EF9
ENCODING 7929
SWIDTH 500 0
DWIDTH 5 0
BBX 4 10 1 -2
BITMAP
50
A0
00
90
90
90
90
70
10
60
ENDCHAR
STARTCHAR uni1EFA
ENCODING 7930
SWIDTH 500 0
DWIDTH 5 0
BBX 5 6 1 0
BITMAP
A0
A0
A0
A0
A0
B8
ENDCHAR
STARTCHAR uni1EFB
ENCODING 7931
SWIDTH 500 0
DWIDTH 5 0
BBX 3 6 1 0
BITMAP
A0
A0
A0
A0
A0
A0
ENDCHAR
STARTCHAR uni1EFC
ENCODING 7932
SWIDTH 500 0
DWIDTH 5 0
BBX 4 6 1 0
BITMAP
60
80
A0
90
90
60
ENDCHAR
STARTCHAR uni1EFD
ENCODING 7933
SWIDTH 500 0
DWIDTH 5 0
BBX 4 6 1 0
BITMAP
60
80
A0
90
90
60
ENDCHAR
STARTCHAR uni1EFE
ENCODING 7934
SWIDTH 500 0
DWIDTH 5 0
BBX 4 7 1 -1
BITMAP
90
90
90
70
30
50
60
ENDCHAR
STARTCHAR uni1EFF
ENCODING 7935
SWIDTH 500 0
DWIDTH 5 0
BBX 4 7 1 -2
BITMAP
90
90
90
70
30
50
60
ENDCHAR
STARTCHAR uni1F00
ENCODING 7936
SWIDTH 500 0
DWIDTH 5 0
BBX 5 7 0 0
BITMAP
40
80
38
48
48
58
28
ENDCHAR
STARTCHAR uni1F08
ENCODING 7944
SWIDTH 500 0
DWIDTH 5 0
BBX 5 8 0 0
BITMAP
40
80
30
48
48
78
48
48
ENDCHAR
STARTCHAR uni1F35
ENCODING 7989
SWIDTH 500 0
DWIDTH 5 0
BBX 3 7 2 0
BITMAP
A0
00
C0
40
40
40
40
ENDCHAR
STARTCHAR uni1F50
ENCODING 8016
SWIDTH 500 0
DWIDTH 5 0
BBX 4 8 1 0
BITMAP
40
20
00
90
90
90
90
70
ENDCHAR
STARTCHAR HYPHEN
ENCODING 8208
SWIDTH 480 0
DWIDTH 5 0
BBX 3 1 1 3
BITMAP
E0
ENDCHAR
STARTCHAR NON-BREAKING
ENCODING 8209
SWIDTH 480 0
DWIDTH 5 0
BBX 3 1 1 3
BITMAP
E0
ENDCHAR
STARTCHAR FIGURE
ENCODING 8210
SWIDTH 480 0
DWIDTH 5 0
BBX 4 1 1 3
BITMAP
F0
ENDCHAR
STARTCHAR char8212
ENCODING 8211
SWIDTH 480 0
DWIDTH 5 0
BBX 5 1 1 3
BITMAP
F8
ENDCHAR
STARTCHAR char8212
ENCODING 8212
SWIDTH 480 0
DWIDTH 5 0
BBX 5 1 1 3
BITMAP
F8
ENDCHAR
STARTCHAR HORIZONTAL
ENCODING 8213
SWIDTH 480 0
DWIDTH 5 0
BBX 7 1 0 3
BITMAP
FE
ENDCHAR
STARTCHAR DOUBLE
ENCODING 8214
SWIDTH 480 0
DWIDTH 5 0
BBX 3 8 1 -1
BITMAP
A0
A0
A0
A0
A0
A0
A0
A0
ENDCHAR
STARTCHAR DOUBLE
ENCODING 8215
SWIDTH 480 0
DWIDTH 5 0
BBX 5 1 0 0
BITMAP
F8
ENDCHAR
STARTCHAR char8216
ENCODING 8216
SWIDTH 480 0
DWIDTH 5 0
BBX 1 3 2 4
BITMAP
80
80
80
ENDCHAR
STARTCHAR char8217
ENCODING 8217
SWIDTH 480 0
DWIDTH 5 0
BBX 1 3 2 4
BITMAP
80
80
80
ENDCHAR
STARTCHAR char8218
ENCODING 8218
SWIDTH 480 0
DWIDTH 5 0
BBX 2 3 2 -1
BITMAP
40
40
80
ENDCHAR
STARTCHAR SINGLE
ENCODING 8219
SWIDTH 480 0
DWIDTH 5 0
BBX 2 3 2 4
BITMAP
C0
80
40
ENDCHAR
STARTCHAR char8220
ENCODING 8220
SWIDTH 480 0
DWIDTH 5 0
BBX 4 3 1 3
BITMAP
50
A0
F0
ENDCHAR
STARTCHAR char8221
ENCODING 8221
SWIDTH 480 0
DWIDTH 5 0
BBX 4 3 1 3
BITMAP
F0
50
A0
ENDCHAR
STARTCHAR char8222
ENCODING 8222
SWIDTH 480 0
DWIDTH 5 0
BBX 4 3 1 -1
BITMAP
F0
50
A0
ENDCHAR
STARTCHAR char8223
ENCODING 8223
SWIDTH 480 0
DWIDTH 5 0
BBX 4 3 1 3
BITMAP
F0
A0
50
ENDCHAR
STARTCHAR DAGGER
ENCODING 8224
SWIDTH 480 0
DWIDTH 5 0
BBX 3 6 1 1
BITMAP
40
E0
40
40
40
40
ENDCHAR
STARTCHAR DOUBLE
ENCODING 8225
SWIDTH 480 0
DWIDTH 5 0
BBX 3 9 1 -2
BITMAP
40
40
E0
40
40
40
E0
40
40
ENDCHAR
STARTCHAR char183
ENCODING 8226
SWIDTH 480 0
DWIDTH 5 0
BBX 4 4 2 1
BITMAP
60
F0
F0
60
ENDCHAR
STARTCHAR play
ENCODING 8227
SWIDTH 480 0
DWIDTH 5 0
BBX 3 6 1 0
BITMAP
80
C0
E0
E0
C0
80
ENDCHAR
STARTCHAR char8228
ENCODING 8228
SWIDTH 480 0
DWIDTH 5 0
BBX 1 2 2 0
BITMAP
80
80
ENDCHAR
STARTCHAR char8229
ENCODING 8229
SWIDTH 480 0
DWIDTH 5 0
BBX 3 2 1 0
BITMAP
A0
A0
ENDCHAR
STARTCHAR char8230
ENCODING 8230
SWIDTH 480 0
DWIDTH 5 0
BBX 5 2 1 0
BITMAP
A8
A8
ENDCHAR
STARTCHAR char8231
ENCODING 8231
SWIDTH 480 0
DWIDTH 5 0
BBX 1 1 2 2
BITMAP
80
ENDCHAR
STARTCHAR PER
ENCODING 8240
SWIDTH 480 0
DWIDTH 5 0
BBX 5 6 -1 0
BITMAP
90
90
20
40
A8
A8
ENDCHAR
STARTCHAR PER
ENCODING 8241
SWIDTH 480 0
DWIDTH 5 0
BBX 7 6 -1 0
BITMAP
90
90
20
40
AA
AA
ENDCHAR
STARTCHAR PRIME
ENCODING 8242
SWIDTH 480 0
DWIDTH 5 0
BBX 2 3 1 4
BITMAP
40
40
80
ENDCHAR
STARTCHAR DOUBLE
ENCODING 8243
SWIDTH 480 0
DWIDTH 5 0
BBX 4 3 0 4
BITMAP
50
50
A0
ENDCHAR
STARTCHAR TRIPLE
ENCODING 8244
SWIDTH 480 0
DWIDTH 5 0
BBX 6 3 0 4
BITMAP
54
54
A8
ENDCHAR
STARTCHAR REVERSED
ENCODING 8245
SWIDTH 480 0
DWIDTH 5 0
BBX 2 3 1 4
BITMAP
80
80
40
ENDCHAR
STARTCHAR REVERSED
ENCODING 8246
SWIDTH 480 0
DWIDTH 5 0
BBX 4 3 0 4
BITMAP
A0
A0
50
ENDCHAR
STARTCHAR REVERSED
ENCODING 8247
SWIDTH 480 0
DWIDTH 5 0
BBX 6 3 0 4
BITMAP
A8
A8
54
ENDCHAR
STARTCHAR CARET
ENCODING 8248
SWIDTH 480 0
DWIDTH 5 0
BBX 5 3 0 0
BITMAP
20
50
88
ENDCHAR
STARTCHAR SINGLE
ENCODING 8249
SWIDTH 480 0
DWIDTH 5 0
BBX 2 4 1 1
BITMAP
40
80
80
40
ENDCHAR
STARTCHAR SINGLE
ENCODING 8250
SWIDTH 480 0
DWIDTH 5 0
BBX 2 4 2 1
BITMAP
80
40
40
80
ENDCHAR
STARTCHAR DOUBLE
ENCODING 8252
SWIDTH 480 0
DWIDTH 5 0
BBX 3 7 1 0
BITMAP
A0
A0
A0
A0
A0
00
A0
ENDCHAR
STARTCHAR INTERROBANG
ENCODING 8253
SWIDTH 480 0
DWIDTH 5 0
BBX 5 7 0 0
BITMAP
70
A8
28
30
20
00
20
ENDCHAR
STARTCHAR OVERLINE
ENCODING 8254
SWIDTH 480 0
DWIDTH 5 0
BBX 3 1 0 7
BITMAP
E0
ENDCHAR
STARTCHAR UNDERTIE
ENCODING 8255
SWIDTH 480 0
DWIDTH 5 0
BBX 5 2 0 0
BITMAP
88
70
ENDCHAR
STARTCHAR CHARACTER
ENCODING 8256
SWIDTH 480 0
DWIDTH 5 0
BBX 5 2 0 6
BITMAP
70
88
ENDCHAR
STARTCHAR CARET
ENCODING 8257
SWIDTH 480 0
DWIDTH 5 0
BBX 3 6 1 -2
BITMAP
20
20
40
40
A0
A0
ENDCHAR
STARTCHAR ASTERISM
ENCODING 8258
SWIDTH 480 0
DWIDTH 5 0
BBX 5 6 0 0
BITMAP
20
70
20
50
F8
50
ENDCHAR
STARTCHAR HYPHEN
ENCODING 8259
SWIDTH 480 0
DWIDTH 5 0
BBX 4 2 1 2
BITMAP
F0
F0
ENDCHAR
STARTCHAR FRACTION
ENCODING 8260
SWIDTH 480 0
DWIDTH 5 0
BBX 5 10 0 -2
BITMAP
08
08
10
10
20
20
40
40
80
80
ENDCHAR
STARTCHAR LEFT
ENCODING 8261
SWIDTH 480 0
DWIDTH 5 0
BBX 3 9 1 -1
BITMAP
E0
80
80
80
E0
80
80
80
E0
ENDCHAR
STARTCHAR RIGHT
ENCODING 8262
SWIDTH 480 0
DWIDTH 5 0
BBX 3 9 1 -1
BITMAP
E0
20
20
20
E0
20
20
20
E0
ENDCHAR
STARTCHAR DOUBLE
ENCODING 8263
SWIDTH 480 0
DWIDTH 5 0
BBX 5 7 0 0
BITMAP
50
A8
28
50
50
00
50
ENDCHAR
STARTCHAR QUESTION
ENCODING 8264
SWIDTH 480 0
DWIDTH 5 0
BBX 5 7 0 0
BITMAP
48
A8
28
48
48
00
48
ENDCHAR
STARTCHAR EXCLAMATION
ENCODING 8265
SWIDTH 480 0
DWIDTH 5 0
BBX 5 7 0 0
BITMAP
90
A8
88
90
90
00
90
ENDCHAR
STARTCHAR TIRONIAN
ENCODING 8266
SWIDTH 480 0
DWIDTH 5 0
BBX 4 5 0 -1
BITMAP
F0
10
10
10
10
ENDCHAR
STARTCHAR REVERSED
ENCODING 8267
SWIDTH 480 0
DWIDTH 5 0
BBX 6 8 0 0
BITMAP
F8
5C
5C
5C
78
50
50
D0
ENDCHAR
STARTCHAR BLACK
ENCODING 8268
SWIDTH 480 0
DWIDTH 5 0
BBX 5 4 0 1
BITMAP
58
D8
D8
58
ENDCHAR
STARTCHAR BLACK
ENCODING 8269
SWIDTH 480 0
DWIDTH 5 0
BBX 5 4 0 1
BITMAP
D0
D8
D8
D0
ENDCHAR
STARTCHAR LOW
ENCODING 8270
SWIDTH 480 0
DWIDTH 5 0
BBX 5 5 0 -1
BITMAP
20
A8
70
A8
20
ENDCHAR
STARTCHAR REVERSED
ENCODING 8271
SWIDTH 480 0
DWIDTH 5 0
BBX 2 8 2 -2
BITMAP
C0
C0
00
00
C0
C0
80
40
ENDCHAR
STARTCHAR CLOSE
ENCODING 8272
SWIDTH 480 0
DWIDTH 5 0
BBX 5 8 0 0
BITMAP
70
88
00
00
00
00
88
70
ENDCHAR
STARTCHAR TWO
ENCODING 8273
SWIDTH 480 0
DWIDTH 5 0
BBX 5 7 0 -1
BITMAP
20
A8
70
A8
70
A8
20
ENDCHAR
STARTCHAR COMMERCIAL
ENCODING 8274
SWIDTH 480 0
DWIDTH 5 0
BBX 4 8 0 -1
BITMAP
90
10
20
20
40
40
80
90
ENDCHAR
STARTCHAR SWUNG
ENCODING 8275
SWIDTH 480 0
DWIDTH 5 0
BBX 6 2 0 3
BITMAP
64
98
ENDCHAR
STARTCHAR INVERTED
ENCODING 8276
SWIDTH 480 0
DWIDTH 5 0
BBX 5 2 0 0
BITMAP
70
88
ENDCHAR
STARTCHAR FLOWER
ENCODING 8277
SWIDTH 480 0
DWIDTH 5 0
BBX 5 5 0 1
BITMAP
A8
70
F8
70
A8
ENDCHAR
STARTCHAR THREE
ENCODING 8278
SWIDTH 480 0
DWIDTH 5 0
BBX 3 5 0 0
BITMAP
20
00
80
00
20
ENDCHAR
STARTCHAR QUADRUPLE
ENCODING 8279
SWIDTH 480 0
DWIDTH 5 0
BBX 5 3 0 4
BITMAP
78
78
F0
ENDCHAR
STARTCHAR FOUR
ENCODING 8280
SWIDTH 480 0
DWIDTH 5 0
BBX 5 5 0 0
BITMAP
20
00
88
00
20
ENDCHAR
STARTCHAR FIVE
ENCODING 8281
SWIDTH 480 0
DWIDTH 5 0
BBX 5 5 0 0
BITMAP
88
00
20
00
88
ENDCHAR
STARTCHAR TWO
ENCODING 8282
SWIDTH 480 0
DWIDTH 5 0
BBX 1 5 0 0
BITMAP
80
00
00
00
80
ENDCHAR
STARTCHAR FOUR
ENCODING 8283
SWIDTH 480 0
DWIDTH 5 0
BBX 5 7 0 0
BITMAP
20
00
00
88
00
00
20
ENDCHAR
STARTCHAR DOTTED
ENCODING 8284
SWIDTH 480 0
DWIDTH 5 0
BBX 5 5 0 0
BITMAP
A8
20
F8
20
A8
ENDCHAR
STARTCHAR TRICOLON
ENCODING 8285
SWIDTH 480 0
DWIDTH 5 0
BBX 2 8 2 -1
BITMAP
C0
C0
00
C0
C0
00
C0
C0
ENDCHAR
STARTCHAR VERTICAL
ENCODING 8286
SWIDTH 480 0
DWIDTH 5 0
BBX 1 7 0 0
BITMAP
80
00
80
00
80
00
80
ENDCHAR
STARTCHAR SUPERSCRIPT
ENCODING 8304
SWIDTH 480 0
DWIDTH 5 0
BBX 3 5 1 3
BITMAP
40
A0
A0
A0
40
ENDCHAR
STARTCHAR SUPERSCRIPT
ENCODING 8305
SWIDTH 480 0
DWIDTH 5 0
BBX 2 5 1 3
BITMAP
40
00
C0
40
40
ENDCHAR
STARTCHAR SUPERSCRIPT
ENCODING 8308
SWIDTH 480 0
DWIDTH 5 0
BBX 3 5 1 3
BITMAP
80
A0
E0
20
20
ENDCHAR
STARTCHAR SUPERSCRIPT
ENCODING 8309
SWIDTH 480 0
DWIDTH 5 0
BBX 3 5 1 3
BITMAP
E0
80
C0
20
C0
ENDCHAR
STARTCHAR SUPERSCRIPT
ENCODING 8310
SWIDTH 480 0
DWIDTH 5 0
BBX 3 5 1 3
BITMAP
40
80
C0
A0
40
ENDCHAR
STARTCHAR SUPERSCRIPT
ENCODING 8311
SWIDTH 480 0
DWIDTH 5 0
BBX 3 5 1 3
BITMAP
E0
20
20
40
40
ENDCHAR
STARTCHAR SUPERSCRIPT
ENCODING 8312
SWIDTH 480 0
DWIDTH 5 0
BBX 3 5 1 3
BITMAP
40
A0
40
A0
40
ENDCHAR
STARTCHAR SUPERSCRIPT
ENCODING 8313
SWIDTH 480 0
DWIDTH 5 0
BBX 3 5 1 3
BITMAP
40
A0
60
20
40
ENDCHAR
STARTCHAR SUPERSCRIPT
ENCODING 8314
SWIDTH 480 0
DWIDTH 5 0
BBX 3 3 1 4
BITMAP
40
E0
40
ENDCHAR
STARTCHAR SUPERSCRIPT
ENCODING 8315
SWIDTH 480 0
DWIDTH 5 0
BBX 3 1 1 5
BITMAP
E0
ENDCHAR
STARTCHAR SUPERSCRIPT
ENCODING 8316
SWIDTH 480 0
DWIDTH 5 0
BBX 3 3 1 4
BITMAP
E0
00
E0
ENDCHAR
STARTCHAR SUPERSCRIPT
ENCODING 8317
SWIDTH 480 0
DWIDTH 5 0
BBX 2 5 1 3
BITMAP
40
80
80
80
40
ENDCHAR
STARTCHAR SUPERSCRIPT
ENCODING 8318
SWIDTH 480 0
DWIDTH 5 0
BBX 2 5 2 3
BITMAP
80
40
40
40
80
ENDCHAR
STARTCHAR SUPERSCRIPT
ENCODING 8319
SWIDTH 480 0
DWIDTH 5 0
BBX 3 3 1 3
BITMAP
C0
A0
A0
ENDCHAR
STARTCHAR char8320
ENCODING 8320
SWIDTH 480 0
DWIDTH 5 0
BBX 4 5 1 -1
BITMAP
60
90
90
90
60
ENDCHAR
STARTCHAR SUBSCRIPT
ENCODING 8321
SWIDTH 480 0
DWIDTH 5 0
BBX 3 5 1 -2
BITMAP
C0
40
40
40
E0
ENDCHAR
STARTCHAR SUBSCRIPT
ENCODING 8322
SWIDTH 480 0
DWIDTH 5 0
BBX 3 5 1 -2
BITMAP
C0
20
40
80
E0
ENDCHAR
STARTCHAR SUBSCRIPT
ENCODING 8323
SWIDTH 480 0
DWIDTH 5 0
BBX 3 5 1 -2
BITMAP
C0
20
40
20
C0
ENDCHAR
STARTCHAR SUBSCRIPT
ENCODING 8324
SWIDTH 480 0
DWIDTH 5 0
BBX 3 5 1 -2
BITMAP
80
A0
E0
20
20
ENDCHAR
STARTCHAR SUBSCRIPT
ENCODING 8325
SWIDTH 480 0
DWIDTH 5 0
BBX 3 5 1 -2
BITMAP
E0
80
C0
20
C0
ENDCHAR
STARTCHAR SUBSCRIPT
ENCODING 8326
SWIDTH 480 0
DWIDTH 5 0
BBX 3 5 1 -2
BITMAP
40
80
C0
A0
40
ENDCHAR
STARTCHAR SUBSCRIPT
ENCODING 8327
SWIDTH 480 0
DWIDTH 5 0
BBX 3 5 1 -2
BITMAP
E0
20
20
40
40
ENDCHAR
STARTCHAR SUBSCRIPT
ENCODING 8328
SWIDTH 480 0
DWIDTH 5 0
BBX 3 5 1 -2
BITMAP
40
A0
40
A0
40
ENDCHAR
STARTCHAR SUBSCRIPT
ENCODING 8329
SWIDTH 480 0
DWIDTH 5 0
BBX 3 5 1 -2
BITMAP
40
A0
60
20
40
ENDCHAR
STARTCHAR SUBSCRIPT
ENCODING 8330
SWIDTH 480 0
DWIDTH 5 0
BBX 3 3 1 -1
BITMAP
40
E0
40
ENDCHAR
STARTCHAR SUBSCRIPT
ENCODING 8331
SWIDTH 480 0
DWIDTH 5 0
BBX 3 1 1 0
BITMAP
E0
ENDCHAR
STARTCHAR SUBSCRIPT
ENCODING 8332
SWIDTH 480 0
DWIDTH 5 0
BBX 3 3 1 -1
BITMAP
E0
00
E0
ENDCHAR
STARTCHAR SUBSCRIPT
ENCODING 8333
SWIDTH 480 0
DWIDTH 5 0
BBX 2 5 1 -2
BITMAP
40
80
80
80
40
ENDCHAR
STARTCHAR SUBSCRIPT
ENCODING 8334
SWIDTH 480 0
DWIDTH 5 0
BBX 2 5 2 -2
BITMAP
80
40
40
40
80
ENDCHAR
STARTCHAR LATIN
ENCODING 8336
SWIDTH 480 0
DWIDTH 5 0
BBX 3 5 1 -2
BITMAP
40
20
60
A0
60
ENDCHAR
STARTCHAR LATIN
ENCODING 8337
SWIDTH 480 0
DWIDTH 5 0
BBX 3 5 1 -2
BITMAP
40
A0
E0
80
60
ENDCHAR
STARTCHAR LATIN
ENCODING 8338
SWIDTH 480 0
DWIDTH 5 0
BBX 4 4 1 -2
BITMAP
60
90
90
60
ENDCHAR
STARTCHAR LATIN
ENCODING 8339
SWIDTH 480 0
DWIDTH 5 0
BBX 3 4 1 -2
BITMAP
A0
40
40
A0
ENDCHAR
STARTCHAR LATIN
ENCODING 8340
SWIDTH 480 0
DWIDTH 5 0
BBX 3 5 1 -2
BITMAP
C0
20
E0
A0
40
ENDCHAR
STARTCHAR LATIN
ENCODING 8341
SWIDTH 480 0
DWIDTH 5 0
BBX 3 5 1 -2
BITMAP
80
80
C0
A0
A0
ENDCHAR
STARTCHAR LATIN
ENCODING 8342
SWIDTH 480 0
DWIDTH 5 0
BBX 3 5 1 -2
BITMAP
80
80
A0
C0
A0
ENDCHAR
STARTCHAR LATIN
ENCODING 8343
SWIDTH 480 0
DWIDTH 5 0
BBX 3 5 1 -2
BITMAP
C0
40
40
40
60
ENDCHAR
STARTCHAR LATIN
ENCODING 8344
SWIDTH 480 0
DWIDTH 5 0
BBX 5 3 1 -2
BITMAP
D0
A8
A8
ENDCHAR
STARTCHAR LATIN
ENCODING 8345
SWIDTH 480 0
DWIDTH 5 0
BBX 3 3 1 -2
BITMAP
C0
A0
A0
ENDCHAR
STARTCHAR LATIN
ENCODING 8346
SWIDTH 480 0
DWIDTH 5 0
BBX 3 4 1 -2
BITMAP
C0
A0
C0
80
ENDCHAR
STARTCHAR LATIN
ENCODING 8347
SWIDTH 480 0
DWIDTH 5 0
BBX 3 4 1 -2
BITMAP
60
C0
20
C0
ENDCHAR
STARTCHAR LATIN
ENCODING 8348
SWIDTH 480 0
DWIDTH 5 0
BBX 3 5 1 -2
BITMAP
40
E0
40
40
20
ENDCHAR
STARTCHAR EURO-CURRENCY
ENCODING 8352
SWIDTH 500 0
DWIDTH 5 0
BBX 5 7 0 0
BITMAP
70
80
B8
A0
78
20
38
ENDCHAR
STARTCHAR COLON
ENCODING 8353
SWIDTH 500 0
DWIDTH 5 0
BBX 6 10 0 -2
BITMAP
14
74
A8
A8
A8
D0
D8
70
A0
A0
ENDCHAR
STARTCHAR CRUZEIRO
ENCODING 8354
SWIDTH 500 0
DWIDTH 5 0
BBX 5 7 0 0
BITMAP
70
88
80
A8
B0
A8
70
ENDCHAR
STARTCHAR FRENCH
ENCODING 8355
SWIDTH 500 0
DWIDTH 5 0
BBX 5 7 0 0
BITMAP
78
40
40
70
40
E0
40
ENDCHAR
STARTCHAR LIRA
ENCODING 8356
SWIDTH 500 0
DWIDTH 5 0
BBX 5 7 0 0
BITMAP
30
48
E0
40
E0
48
B0
ENDCHAR
STARTCHAR MILL
ENCODING 8357
SWIDTH 500 0
DWIDTH 5 0
BBX 5 7 0 -1
BITMAP
10
D0
A8
A8
A8
E8
40
ENDCHAR
STARTCHAR NAIRA
ENCODING 8358
SWIDTH 500 0
DWIDTH 5 0
BBX 5 7 0 0
BITMAP
C8
C8
F8
A8
F8
98
98
ENDCHAR
STARTCHAR PESETA
ENCODING 8359
SWIDTH 500 0
DWIDTH 5 0
BBX 5 8 0 -1
BITMAP
E0
90
90
E0
90
B8
90
18
ENDCHAR
STARTCHAR char8360
ENCODING 8360
SWIDTH 500 0
DWIDTH 5 0
BBX 6 7 0 0
BITMAP
C0
A0
A0
CC
A8
A4
AC
ENDCHAR
STARTCHAR uni20A9
ENCODING 8361
SWIDTH 500 0
DWIDTH 5 0
BBX 6 6 0 0
BITMAP
48
FC
48
78
78
48
ENDCHAR
STARTCHAR char8362
ENCODING 8362
SWIDTH 500 0
DWIDTH 5 0
BBX 5 5 0 0
BITMAP
C8
A8
88
A8
98
ENDCHAR
STARTCHAR dong
ENCODING 8363
SWIDTH 500 0
DWIDTH 5 0
BBX 5 8 1 -1
BITMAP
38
10
70
90
90
70
00
70
ENDCHAR
STARTCHAR char8364
ENCODING 8364
SWIDTH 500 0
DWIDTH 5 0
BBX 5 7 0 0
BITMAP
30
48
E0
40
E0
48
30
ENDCHAR
STARTCHAR uni20AD
ENCODING 8365
SWIDTH 500 0
DWIDTH 5 0
BBX 5 6 0 0
BITMAP
48
50
F8
50
48
48
ENDCHAR
STARTCHAR uni20AE
ENCODING 8366
SWIDTH 500 0
DWIDTH 5 0
BBX 5 6 0 0
BITMAP
F8
20
30
60
20
20
ENDCHAR
STARTCHAR uni20AF
ENCODING 8367
SWIDTH 500 0
DWIDTH 5 0
BBX 7 8 0 -2
BITMAP
60
D0
50
5C
5A
EC
08
08
ENDCHAR
STARTCHAR char8368
ENCODING 8368
SWIDTH 500 0
DWIDTH 5 0
BBX 4 8 0 -2
BITMAP
60
50
50
20
20
D0
10
20
ENDCHAR
STARTCHAR uni20B1
ENCODING 8369
SWIDTH 500 0
DWIDTH 5 0
BBX 6 6 0 0
BITMAP
70
48
DC
70
40
40
ENDCHAR
STARTCHAR uni20B2
ENCODING 8370
SWIDTH 500 0
DWIDTH 5 0
BBX 4 8 1 -1
BITMAP
20
70
A0
80
B0
90
70
20
ENDCHAR
STARTCHAR uni20B3
ENCODING 8371
SWIDTH 500 0
DWIDTH 5 0
BBX 6 6 0 0
BITMAP
30
CC
48
78
48
48
ENDCHAR
STARTCHAR uni20B4
ENCODING 8372
SWIDTH 500 0
DWIDTH 5 0
BBX 4 6 1 0
BITMAP
E0
10
F0
E0
80
70
ENDCHAR
STARTCHAR uni20B5
ENCODING 8373
SWIDTH 500 0
DWIDTH 5 0
BBX 4 8 1 -1
BITMAP
20
70
A0
A0
A0
A0
70
20
ENDCHAR
STARTCHAR char8373
ENCODING 8374
SWIDTH 500 0
DWIDTH 5 0
BBX 5 6 0 0
BITMAP
50
F8
50
50
50
58
ENDCHAR
STARTCHAR uni20B7
ENCODING 8375
SWIDTH 500 0
DWIDTH 5 0
BBX 4 7 1 -1
BITMAP
70
80
60
10
B0
E0
A0
ENDCHAR
STARTCHAR uni20B8
ENCODING 8376
SWIDTH 500 0
DWIDTH 5 0
BBX 5 6 0 0
BITMAP
F8
20
20
20
20
20
ENDCHAR
STARTCHAR char8376
ENCODING 8377
SWIDTH 500 0
DWIDTH 5 0
BBX 4 6 1 0
BITMAP
F0
20
F0
40
80
40
ENDCHAR
STARTCHAR uni20BA
ENCODING 8378
SWIDTH 500 0
DWIDTH 5 0
BBX 5 7 0 0
BITMAP
60
C0
60
D0
48
48
70
ENDCHAR
STARTCHAR char8378
ENCODING 8379
SWIDTH 500 0
DWIDTH 5 0
BBX 5 8 0 0
BITMAP
40
A0
70
08
38
40
40
30
ENDCHAR
STARTCHAR char8379
ENCODING 8380
SWIDTH 500 0
DWIDTH 5 0
BBX 5 6 0 0
BITMAP
20
70
A8
A8
A8
A8
ENDCHAR
STARTCHAR uni20BD
ENCODING 8381
SWIDTH 500 0
DWIDTH 5 0
BBX 4 6 1 0
BITMAP
E0
90
90
E0
80
80
ENDCHAR
STARTCHAR uni20BE
ENCODING 8382
SWIDTH 500 0
DWIDTH 5 0
BBX 5 7 1 0
BITMAP
50
70
D8
80
80
40
F0
ENDCHAR
STARTCHAR uni20BF
ENCODING 8383
SWIDTH 500 0
DWIDTH 5 0
BBX 4 8 1 -1
BITMAP
A0
E0
90
E0
90
90
E0
A0
ENDCHAR
STARTCHAR char8482
ENCODING 8482
SWIDTH 480 0
DWIDTH 5 0
BBX 6 3 0 3
BITMAP
F4
5C
54
ENDCHAR
STARTCHAR char8592
ENCODING 8592
SWIDTH 480 0
DWIDTH 5 0
BBX 6 5 0 0
BITMAP
20
60
FC
60
20
ENDCHAR
STARTCHAR char8593
ENCODING 8593
SWIDTH 480 0
DWIDTH 5 0
BBX 5 6 0 0
BITMAP
20
70
F8
20
20
20
ENDCHAR
STARTCHAR char8592
ENCODING 8594
SWIDTH 480 0
DWIDTH 5 0
BBX 6 5 0 0
BITMAP
10
18
FC
18
10
ENDCHAR
STARTCHAR char8595
ENCODING 8595
SWIDTH 480 0
DWIDTH 5 0
BBX 5 6 0 0
BITMAP
20
20
20
F8
70
20
ENDCHAR
STARTCHAR char8596
ENCODING 8596
SWIDTH 480 0
DWIDTH 5 0
BBX 6 3 0 1
BITMAP
48
FC
48
ENDCHAR
STARTCHAR char8597
ENCODING 8597
SWIDTH 480 0
DWIDTH 5 0
BBX 5 8 0 -1
BITMAP
20
70
F8
20
20
F8
70
20
ENDCHAR
STARTCHAR char8598
ENCODING 8598
SWIDTH 480 0
DWIDTH 5 0
BBX 4 4 0 1
BITMAP
E0
C0
A0
10
ENDCHAR
STARTCHAR char8599
ENCODING 8599
SWIDTH 480 0
DWIDTH 5 0
BBX 4 4 1 1
BITMAP
70
30
50
80
ENDCHAR
STARTCHAR char8600
ENCODING 8600
SWIDTH 480 0
DWIDTH 5 0
BBX 4 4 1 0
BITMAP
80
50
30
70
ENDCHAR
STARTCHAR char8601
ENCODING 8601
SWIDTH 480 0
DWIDTH 5 0
BBX 4 4 0 0
BITMAP
10
A0
C0
E0
ENDCHAR
STARTCHAR LEFTWARDS
ENCODING 8602
SWIDTH 480 0
DWIDTH 5 0
BBX 6 3 0 2
BITMAP
50
FC
48
ENDCHAR
STARTCHAR RIGHTWARDS
ENCODING 8603
SWIDTH 480 0
DWIDTH 5 0
BBX 6 3 0 2
BITMAP
28
FC
48
ENDCHAR
STARTCHAR LEFTWARDS
ENCODING 8604
SWIDTH 480 0
DWIDTH 5 0
BBX 6 3 0 1
BITMAP
E0
C8
B4
ENDCHAR
STARTCHAR RIGHTWARDS
ENCODING 8605
SWIDTH 480 0
DWIDTH 5 0
BBX 6 3 0 1
BITMAP
1C
4C
B4
ENDCHAR
STARTCHAR LEFTWARDS
ENCODING 8606
SWIDTH 480 0
DWIDTH 5 0
BBX 6 5 0 1
BITMAP
28
50
FC
50
28
ENDCHAR
STARTCHAR UPWARDS
ENCODING 8607
SWIDTH 480 0
DWIDTH 5 0
BBX 5 7 0 0
BITMAP
20
70
A8
70
A8
20
20
ENDCHAR
STARTCHAR RIGHTWARDS
ENCODING 8608
SWIDTH 480 0
DWIDTH 5 0
BBX 6 5 0 1
BITMAP
50
28
FC
28
50
ENDCHAR
STARTCHAR DOWNWARDS
ENCODING 8609
SWIDTH 480 0
DWIDTH 5 0
BBX 5 7 0 0
BITMAP
20
20
A8
70
A8
70
20
ENDCHAR
STARTCHAR LEFTWARDS
ENCODING 8610
SWIDTH 480 0
DWIDTH 5 0
BBX 6 5 0 1
BITMAP
20
44
F8
44
20
ENDCHAR
STARTCHAR RIGHTWARDS
ENCODING 8611
SWIDTH 480 0
DWIDTH 5 0
BBX 6 5 0 1
BITMAP
10
88
7C
88
10
ENDCHAR
STARTCHAR LEFTWARDS
ENCODING 8612
SWIDTH 480 0
DWIDTH 5 0
BBX 6 5 0 1
BITMAP
24
44
FC
44
24
ENDCHAR
STARTCHAR UPWARDS
ENCODING 8613
SWIDTH 480 0
DWIDTH 5 0
BBX 5 7 0 0
BITMAP
20
70
A8
20
20
20
F8
ENDCHAR
STARTCHAR RIGHTWARDS
ENCODING 8614
SWIDTH 480 0
DWIDTH 5 0
BBX 6 5 0 1
BITMAP
90
88
FC
88
90
ENDCHAR
STARTCHAR DOWNWARDS
ENCODING 8615
SWIDTH 480 0
DWIDTH 5 0
BBX 5 7 0 0
BITMAP
F8
20
20
20
A8
70
20
ENDCHAR
STARTCHAR UP
ENCODING 8616
SWIDTH 480 0
DWIDTH 5 0
BBX 5 9 0 -2
BITMAP
20
70
A8
20
A8
70
20
00
F8
ENDCHAR
STARTCHAR LEFTWARDS
ENCODING 8617
SWIDTH 480 0
DWIDTH 5 0
BBX 6 5 0 1
BITMAP
28
44
F8
40
20
ENDCHAR
STARTCHAR RIGHTWARDS
ENCODING 8618
SWIDTH 480 0
DWIDTH 5 0
BBX 6 5 0 1
BITMAP
50
88
7C
08
10
ENDCHAR
STARTCHAR LEFTWARDS
ENCODING 8619
SWIDTH 480 0
DWIDTH 5 0
BBX 6 5 0 1
BITMAP
28
54
F8
50
20
ENDCHAR
STARTCHAR RIGHTWARDS
ENCODING 8620
SWIDTH 480 0
DWIDTH 5 0
BBX 6 5 0 1
BITMAP
50
A8
7C
28
10
ENDCHAR
STARTCHAR LEFT
ENCODING 8621
SWIDTH 480 0
DWIDTH 5 0
BBX 6 3 0 2
BITMAP
58
FC
68
ENDCHAR
STARTCHAR LEFT
ENCODING 8622
SWIDTH 480 0
DWIDTH 5 0
BBX 6 3 0 2
BITMAP
58
FC
68
ENDCHAR
STARTCHAR DOWNWARDS
ENCODING 8623
SWIDTH 480 0
DWIDTH 5 0
BBX 4 7 0 0
BITMAP
10
20
60
10
A0
C0
E0
ENDCHAR
STARTCHAR char8624
ENCODING 8624
SWIDTH 480 0
DWIDTH 5 0
BBX 4 5 0 0
BITMAP
40
F0
50
10
10
ENDCHAR
STARTCHAR char8625
ENCODING 8625
SWIDTH 480 0
DWIDTH 5 0
BBX 4 5 0 0
BITMAP
20
F0
A0
80
80
ENDCHAR
STARTCHAR char8626
ENCODING 8626
SWIDTH 480 0
DWIDTH 5 0
BBX 4 5 0 -1
BITMAP
10
10
50
F0
40
ENDCHAR
STARTCHAR char8627
ENCODING 8627
SWIDTH 480 0
DWIDTH 5 0
BBX 4 5 0 -1
BITMAP
80
80
A0
F0
20
ENDCHAR
STARTCHAR char8628
ENCODING 8628
SWIDTH 480 0
DWIDTH 5 0
BBX 4 5 0 -1
BITMAP
E0
20
20
70
20
ENDCHAR
STARTCHAR char8629
ENCODING 8629
SWIDTH 480 0
DWIDTH 5 0
BBX 4 5 0 -1
BITMAP
10
10
50
F0
40
ENDCHAR
STARTCHAR char8630
ENCODING 8630
SWIDTH 480 0
DWIDTH 5 0
BBX 4 5 0 0
BITMAP
20
50
40
E0
40
ENDCHAR
STARTCHAR char8631
ENCODING 8631
SWIDTH 480 0
DWIDTH 5 0
BBX 4 5 1 0
BITMAP
40
A0
20
70
20
ENDCHAR
STARTCHAR home
ENCODING 8632
SWIDTH 500 0
DWIDTH 5 0
BBX 5 7 0 0
BITMAP
F8
00
E0
C0
A0
10
08
ENDCHAR
STARTCHAR LEFTWARDS
ENCODING 8633
SWIDTH 480 0
DWIDTH 5 0
BBX 6 9 0 -1
BITMAP
24
14
FC
14
B4
A4
FC
A0
90
ENDCHAR
STARTCHAR ANTICLOCKWISE
ENCODING 8634
SWIDTH 480 0
DWIDTH 5 0
BBX 5 6 0 0
BITMAP
38
30
A8
88
88
70
ENDCHAR
STARTCHAR CLOCKWISE
ENCODING 8635
SWIDTH 480 0
DWIDTH 5 0
BBX 5 6 0 0
BITMAP
E0
60
A8
88
88
70
ENDCHAR
STARTCHAR LEFTWARDS
ENCODING 8636
SWIDTH 480 0
DWIDTH 5 0
BBX 6 3 0 3
BITMAP
20
40
FC
ENDCHAR
STARTCHAR LEFTWARDS
ENCODING 8637
SWIDTH 480 0
DWIDTH 5 0
BBX 6 3 0 1
BITMAP
FC
40
20
ENDCHAR
STARTCHAR UPWARDS
ENCODING 8638
SWIDTH 480 0
DWIDTH 5 0
BBX 3 7 2 0
BITMAP
80
C0
A0
80
80
80
80
ENDCHAR
STARTCHAR UPWARDS
ENCODING 8639
SWIDTH 480 0
DWIDTH 5 0
BBX 3 7 0 0
BITMAP
20
60
A0
20
20
20
20
ENDCHAR
STARTCHAR RIGHTWARDS
ENCODING 8640
SWIDTH 480 0
DWIDTH 5 0
BBX 6 3 0 3
BITMAP
10
08
FC
ENDCHAR
STARTCHAR RIGHTWARDS
ENCODING 8641
SWIDTH 480 0
DWIDTH 5 0
BBX 6 3 0 1
BITMAP
FC
08
10
ENDCHAR
STARTCHAR DOWNWARDS
ENCODING 8642
SWIDTH 480 0
DWIDTH 5 0
BBX 3 7 2 0
BITMAP
80
80
80
80
A0
C0
80
ENDCHAR
STARTCHAR DOWNWARDS
ENCODING 8643
SWIDTH 480 0
DWIDTH 5 0
BBX 3 7 0 0
BITMAP
20
20
20
20
A0
60
20
ENDCHAR
STARTCHAR RIGHTWARDS
ENCODING 8644
SWIDTH 480 0
DWIDTH 5 0
BBX 6 7 0 0
BITMAP
08
FC
08
00
40
FC
40
ENDCHAR
STARTCHAR UPWARDS
ENCODING 8645
SWIDTH 480 0
DWIDTH 5 0
BBX 6 7 0 0
BITMAP
48
E8
48
48
48
5C
48
ENDCHAR
STARTCHAR LEFTWARDS
ENCODING 8646
SWIDTH 480 0
DWIDTH 5 0
BBX 6 7 0 0
BITMAP
40
FC
40
00
08
FC
08
ENDCHAR
STARTCHAR LEFTWARDS
ENCODING 8647
SWIDTH 480 0
DWIDTH 5 0
BBX 6 7 0 0
BITMAP
40
FC
40
00
40
FC
40
ENDCHAR
STARTCHAR UPWARDS
ENCODING 8648
SWIDTH 480 0
DWIDTH 5 0
BBX 6 7 0 0
BITMAP
48
FC
48
48
48
48
48
ENDCHAR
STARTCHAR RIGHTWARDS
ENCODING 8649
SWIDTH 480 0
DWIDTH 5 0
BBX 6 7 0 0
BITMAP
08
FC
08
00
08
FC
08
ENDCHAR
STARTCHAR DOWNWARDS
ENCODING 8650
SWIDTH 480 0
DWIDTH 5 0
BBX 6 7 0 0
BITMAP
48
48
48
48
48
FC
48
ENDCHAR
STARTCHAR LEFTWARDS
ENCODING 8651
SWIDTH 480 0
DWIDTH 5 0
BBX 6 7 0 -1
BITMAP
20
40
FC
00
FC
08
10
ENDCHAR
STARTCHAR RIGHTWARDS
ENCODING 8652
SWIDTH 480 0
DWIDTH 5 0
BBX 6 7 0 -1
BITMAP
10
08
FC
00
FC
40
20
ENDCHAR
STARTCHAR UPWARDS
ENCODING 8653
SWIDTH 480 0
DWIDTH 5 0
BBX 6 5 0 0
BITMAP
24
7C
94
7C
20
ENDCHAR
STARTCHAR UPWARDS
ENCODING 8654
SWIDTH 480 0
DWIDTH 5 0
BBX 7 5 0 0
BITMAP
28
7C
92
7C
28
ENDCHAR
STARTCHAR UPWARDS
ENCODING 8655
SWIDTH 480 0
DWIDTH 5 0
BBX 6 5 0 0
BITMAP
10
F8
A4
F8
50
ENDCHAR
STARTCHAR LEFTWARDS
ENCODING 8656
SWIDTH 480 0
DWIDTH 5 0
BBX 6 5 0 -1
BITMAP
20
7C
80
7C
20
ENDCHAR
STARTCHAR UPWARDS
ENCODING 8657
SWIDTH 480 0
DWIDTH 5 0
BBX 5 6 0 0
BITMAP
20
50
D8
50
50
50
ENDCHAR
STARTCHAR UPWARDS
ENCODING 8658
SWIDTH 480 0
DWIDTH 5 0
BBX 6 5 0 0
BITMAP
10
F8
04
F8
10
ENDCHAR
STARTCHAR UPWARDS
ENCODING 8659
SWIDTH 480 0
DWIDTH 5 0
BBX 5 6 0 0
BITMAP
50
50
50
D8
50
20
ENDCHAR
STARTCHAR UPWARDS
ENCODING 8660
SWIDTH 480 0
DWIDTH 5 0
BBX 7 5 0 0
BITMAP
28
7C
82
7C
28
ENDCHAR
STARTCHAR UPWARDS
ENCODING 8661
SWIDTH 480 0
DWIDTH 5 0
BBX 5 7 0 0
BITMAP
20
50
D8
50
D8
50
20
ENDCHAR
STARTCHAR char8662
ENCODING 8662
SWIDTH 480 0
DWIDTH 5 0
BBX 6 6 0 0
BITMAP
F0
90
88
C4
20
10
ENDCHAR
STARTCHAR char8662
ENCODING 8663
SWIDTH 480 0
DWIDTH 5 0
BBX 6 6 0 0
BITMAP
3C
24
44
8C
10
20
ENDCHAR
STARTCHAR char8662
ENCODING 8664
SWIDTH 480 0
DWIDTH 5 0
BBX 6 6 0 0
BITMAP
20
10
8C
44
24
3C
ENDCHAR
STARTCHAR char8662
ENCODING 8665
SWIDTH 480 0
DWIDTH 5 0
BBX 6 6 0 0
BITMAP
10
20
C4
88
90
F0
ENDCHAR
STARTCHAR LEFTWARDS
ENCODING 8666
SWIDTH 480 0
DWIDTH 5 0
BBX 7 7 0 -1
BITMAP
10
3E
40
FC
40
3E
10
ENDCHAR
STARTCHAR LEFTWARDS
ENCODING 8667
SWIDTH 480 0
DWIDTH 5 0
BBX 7 7 0 -1
BITMAP
10
F8
04
7E
04
F8
10
ENDCHAR
STARTCHAR char8592
ENCODING 8668
SWIDTH 480 0
DWIDTH 5 0
BBX 8 5 0 0
BITMAP
20
69
FE
64
20
ENDCHAR
STARTCHAR char8592
ENCODING 8669
SWIDTH 480 0
DWIDTH 5 0
BBX 8 5 -1 0
BITMAP
04
96
7F
26
04
ENDCHAR
STARTCHAR UPWARDS
ENCODING 8670
SWIDTH 480 0
DWIDTH 5 0
BBX 5 9 0 0
BITMAP
20
70
A8
20
20
F8
20
F8
20
ENDCHAR
STARTCHAR DOWNWARDS
ENCODING 8671
SWIDTH 480 0
DWIDTH 5 0
BBX 5 9 0 0
BITMAP
20
F8
20
F8
20
20
A8
70
20
ENDCHAR
STARTCHAR char8592
ENCODING 8672
SWIDTH 480 0
DWIDTH 5 0
BBX 6 5 0 0
BITMAP
20
60
D4
60
20
ENDCHAR
STARTCHAR char8593
ENCODING 8673
SWIDTH 480 0
DWIDTH 5 0
BBX 5 6 0 0
BITMAP
20
70
D8
20
00
20
ENDCHAR
STARTCHAR char8592
ENCODING 8674
SWIDTH 480 0
DWIDTH 5 0
BBX 6 5 0 0
BITMAP
10
18
AC
18
10
ENDCHAR
STARTCHAR char8595
ENCODING 8675
SWIDTH 480 0
DWIDTH 5 0
BBX 5 6 0 0
BITMAP
20
00
20
D8
70
20
ENDCHAR
STARTCHAR RIGHTWARDS
ENCODING 8676
SWIDTH 480 0
DWIDTH 5 0
BBX 6 5 0 0
BITMAP
88
90
BC
90
88
ENDCHAR
STARTCHAR RIGHTWARDS
ENCODING 8677
SWIDTH 480 0
DWIDTH 5 0
BBX 6 5 0 0
BITMAP
44
24
F4
24
44
ENDCHAR
STARTCHAR UPWARDS
ENCODING 8678
SWIDTH 480 0
DWIDTH 5 0
BBX 6 5 0 0
BITMAP
20
7C
84
7C
20
ENDCHAR
STARTCHAR UPWARDS
ENCODING 8679
SWIDTH 480 0
DWIDTH 5 0
BBX 5 6 0 0
BITMAP
20
50
D8
50
50
70
ENDCHAR
STARTCHAR UPWARDS
ENCODING 8680
SWIDTH 480 0
DWIDTH 5 0
BBX 6 5 0 0
BITMAP
10
F8
84
F8
10
ENDCHAR
STARTCHAR UPWARDS
ENCODING 8681
SWIDTH 480 0
DWIDTH 5 0
BBX 5 6 0 0
BITMAP
70
50
50
D8
50
20
ENDCHAR
STARTCHAR UPWARDS
ENCODING 8682
SWIDTH 480 0
DWIDTH 5 0
BBX 5 7 0 -1
BITMAP
20
50
F8
00
70
50
70
ENDCHAR
STARTCHAR UPWARDS
ENCODING 8683
SWIDTH 480 0
DWIDTH 5 0
BBX 5 7 0 -1
BITMAP
20
50
D8
50
50
88
F8
ENDCHAR
STARTCHAR UPWARDS
ENCODING 8684
SWIDTH 480 0
DWIDTH 5 0
BBX 5 7 0 -1
BITMAP
20
70
F8
50
50
88
F8
ENDCHAR
STARTCHAR UPWARDS
ENCODING 8685
SWIDTH 480 0
DWIDTH 5 0
BBX 5 7 0 -1
BITMAP
20
70
D8
50
50
A8
F8
ENDCHAR
STARTCHAR UPWARDS
ENCODING 8686
SWIDTH 480 0
DWIDTH 5 0
BBX 5 8 0 -1
BITMAP
20
50
F8
50
D8
50
50
70
ENDCHAR
STARTCHAR UPWARDS
ENCODING 8687
SWIDTH 480 0
DWIDTH 5 0
BBX 5 9 0 -1
BITMAP
20
50
F8
50
D8
50
50
88
F8
ENDCHAR
STARTCHAR UPWARDS
ENCODING 8688
SWIDTH 480 0
DWIDTH 5 0
BBX 7 5 0 0
BITMAP
C8
BC
C6
BC
C8
ENDCHAR
STARTCHAR char8689
ENCODING 8689
SWIDTH 480 0
DWIDTH 5 0
BBX 6 6 0 0
BITMAP
F8
80
B8
B0
A8
04
ENDCHAR
STARTCHAR char8690
ENCODING 8690
SWIDTH 480 0
DWIDTH 5 0
BBX 6 6 1 -1
BITMAP
80
54
34
74
04
7C
ENDCHAR
STARTCHAR UPWARDS
ENCODING 8691
SWIDTH 480 0
DWIDTH 5 0
BBX 5 7 0 0
BITMAP
20
50
D8
50
D8
50
20
ENDCHAR
STARTCHAR char8592
ENCODING 8692
SWIDTH 480 0
DWIDTH 5 0
BBX 7 5 0 0
BITMAP
48
AC
FE
AC
48
ENDCHAR
STARTCHAR char8693
ENCODING 8693
SWIDTH 480 0
DWIDTH 5 0
BBX 6 6 0 0
BITMAP
48
E8
48
48
5C
48
ENDCHAR
STARTCHAR char8694
ENCODING 8694
SWIDTH 480 0
DWIDTH 5 0
BBX 5 7 1 -1
BITMAP
10
F8
10
F8
10
F8
10
ENDCHAR
STARTCHAR char8695
ENCODING 8695
SWIDTH 480 0
DWIDTH 5 0
BBX 6 3 0 0
BITMAP
50
FC
50
ENDCHAR
STARTCHAR char8696
ENCODING 8696
SWIDTH 480 0
DWIDTH 5 0
BBX 7 3 0 0
BITMAP
54
FE
54
ENDCHAR
STARTCHAR char8695
ENCODING 8697
SWIDTH 480 0
DWIDTH 5 0
BBX 6 3 0 0
BITMAP
54
FC
54
ENDCHAR
STARTCHAR char8695
ENCODING 8698
SWIDTH 480 0
DWIDTH 5 0
BBX 6 3 0 0
BITMAP
A8
FC
A8
ENDCHAR
STARTCHAR char8695
ENCODING 8699
SWIDTH 480 0
DWIDTH 5 0
BBX 7 3 0 0
BITMAP
54
FE
54
ENDCHAR
STARTCHAR char8695
ENCODING 8700
SWIDTH 480 0
DWIDTH 5 0
BBX 6 3 0 0
BITMAP
50
FC
50
ENDCHAR
STARTCHAR char8701
ENCODING 8701
SWIDTH 480 0
DWIDTH 5 0
BBX 6 3 0 1
BITMAP
40
BC
40
ENDCHAR
STARTCHAR char8702
ENCODING 8702
SWIDTH 480 0
DWIDTH 5 0
BBX 6 3 0 1
BITMAP
08
F4
08
ENDCHAR
STARTCHAR char8703
ENCODING 8703
SWIDTH 480 0
DWIDTH 5 0
BBX 6 3 0 1
BITMAP
48
B4
48
ENDCHAR
STARTCHAR char8704
ENCODING 8704
SWIDTH 480 0
DWIDTH 5 0
BBX 5 6 1 -1
BITMAP
88
88
70
50
20
20
ENDCHAR
STARTCHAR char8705
ENCODING 8705
SWIDTH 480 0
DWIDTH 5 0
BBX 5 7 1 -1
BITMAP
70
88
88
80
88
88
70
ENDCHAR
STARTCHAR char8706
ENCODING 8706
SWIDTH 480 0
DWIDTH 5 0
BBX 4 7 1 0
BITMAP
80
40
20
50
90
90
60
ENDCHAR
STARTCHAR char8707
ENCODING 8707
SWIDTH 480 0
DWIDTH 5 0
BBX 5 6 1 0
BITMAP
F8
08
78
08
08
F8
ENDCHAR
STARTCHAR char8708
ENCODING 8708
SWIDTH 480 0
DWIDTH 5 0
BBX 5 8 1 -1
BITMAP
10
F8
28
78
28
48
F8
40
ENDCHAR
STARTCHAR char8709
ENCODING 8709
SWIDTH 480 0
DWIDTH 5 0
BBX 7 6 0 0
BITMAP
38
46
4C
74
C4
38
ENDCHAR
STARTCHAR char8710
ENCODING 8710
SWIDTH 480 0
DWIDTH 5 0
BBX 5 5 1 0
BITMAP
20
50
50
88
F8
ENDCHAR
STARTCHAR char8711
ENCODING 8711
SWIDTH 480 0
DWIDTH 5 0
BBX 5 5 1 0
BITMAP
F8
88
50
50
20
ENDCHAR
STARTCHAR char8712
ENCODING 8712
SWIDTH 480 0
DWIDTH 5 0
BBX 5 7 1 -1
BITMAP
38
40
80
F0
80
40
38
ENDCHAR
STARTCHAR char8713
ENCODING 8713
SWIDTH 480 0
DWIDTH 5 0
BBX 5 8 1 -1
BITMAP
08
38
50
A0
F0
A0
40
78
ENDCHAR
STARTCHAR char8714
ENCODING 8714
SWIDTH 480 0
DWIDTH 5 0
BBX 4 5 1 0
BITMAP
70
80
E0
80
70
ENDCHAR
STARTCHAR char8715
ENCODING 8715
SWIDTH 480 0
DWIDTH 5 0
BBX 5 7 1 -1
BITMAP
E0
10
08
78
08
10
E0
ENDCHAR
STARTCHAR char8716
ENCODING 8716
SWIDTH 480 0
DWIDTH 5 0
BBX 6 8 0 -1
BITMAP
80
70
48
24
3C
14
08
74
ENDCHAR
STARTCHAR char8717
ENCODING 8717
SWIDTH 480 0
DWIDTH 5 0
BBX 4 5 2 0
BITMAP
E0
10
70
10
E0
ENDCHAR
STARTCHAR char8719
ENCODING 8719
SWIDTH 480 0
DWIDTH 5 0
BBX 5 5 1 0
BITMAP
F8
50
50
50
50
ENDCHAR
STARTCHAR char8720
ENCODING 8720
SWIDTH 480 0
DWIDTH 5 0
BBX 5 5 1 0
BITMAP
50
50
50
50
F8
ENDCHAR
STARTCHAR char8721
ENCODING 8721
SWIDTH 480 0
DWIDTH 5 0
BBX 5 7 0 -1
BITMAP
F8
88
40
20
40
88
F8
ENDCHAR
STARTCHAR char8722
ENCODING 8722
SWIDTH 480 0
DWIDTH 5 0
BBX 3 1 0 2
BITMAP
E0
ENDCHAR
STARTCHAR char8723
ENCODING 8723
SWIDTH 480 0
DWIDTH 5 0
BBX 3 5 0 -1
BITMAP
E0
00
40
E0
40
ENDCHAR
STARTCHAR char8724
ENCODING 8724
SWIDTH 480 0
DWIDTH 5 0
BBX 5 8 0 -1
BITMAP
20
70
20
20
20
F8
20
20
ENDCHAR
STARTCHAR DIVISION
ENCODING 8725
SWIDTH 480 0
DWIDTH 5 0
BBX 5 8 0 -1
BITMAP
08
10
10
20
20
40
40
80
ENDCHAR
STARTCHAR SET
ENCODING 8726
SWIDTH 480 0
DWIDTH 5 0
BBX 5 8 0 -1
BITMAP
80
40
40
20
20
10
10
08
ENDCHAR
STARTCHAR ASTERISK
ENCODING 8727
SWIDTH 480 0
DWIDTH 5 0
BBX 5 5 0 1
BITMAP
20
A8
70
A8
20
ENDCHAR
STARTCHAR RING
ENCODING 8728
SWIDTH 480 0
DWIDTH 5 0
BBX 3 3 1 2
BITMAP
40
A0
40
ENDCHAR
STARTCHAR BULLET
ENCODING 8729
SWIDTH 480 0
DWIDTH 5 0
BBX 2 2 2 3
BITMAP
C0
C0
ENDCHAR
STARTCHAR char8730
ENCODING 8730
SWIDTH 480 0
DWIDTH 5 0
BBX 7 7 0 -1
BITMAP
02
02
04
C4
28
28
10
ENDCHAR
STARTCHAR char8731
ENCODING 8731
SWIDTH 480 0
DWIDTH 5 0
BBX 7 8 0 -1
BITMAP
30
32
12
34
C4
28
28
10
ENDCHAR
STARTCHAR char8732
ENCODING 8732
SWIDTH 480 0
DWIDTH 5 0
BBX 7 7 0 -1
BITMAP
12
32
14
C4
28
28
10
ENDCHAR
STARTCHAR char8733
ENCODING 8733
SWIDTH 480 0
DWIDTH 5 0
BBX 4 3 0 1
BITMAP
D0
A0
D0
ENDCHAR
STARTCHAR char8734
ENCODING 8734
SWIDTH 480 0
DWIDTH 5 0
BBX 6 4 0 0
BITMAP
48
B4
B4
48
ENDCHAR
STARTCHAR RIGHT
ENCODING 8735
SWIDTH 480 0
DWIDTH 5 0
BBX 5 5 0 0
BITMAP
80
80
80
80
F8
ENDCHAR
STARTCHAR ANGLE
ENCODING 8736
SWIDTH 480 0
DWIDTH 5 0
BBX 5 5 0 0
BITMAP
08
10
20
40
F8
ENDCHAR
STARTCHAR MEASURED
ENCODING 8737
SWIDTH 480 0
DWIDTH 5 0
BBX 5 5 0 0
BITMAP
08
10
30
50
F8
ENDCHAR
STARTCHAR SPHERICAL
ENCODING 8738
SWIDTH 480 0
DWIDTH 5 0
BBX 4 7 0 0
BITMAP
10
20
60
90
60
20
10
ENDCHAR
STARTCHAR DIVIDES
ENCODING 8739
SWIDTH 480 0
DWIDTH 5 0
BBX 1 9 2 -1
BITMAP
80
80
80
80
80
80
80
80
80
ENDCHAR
STARTCHAR DOES
ENCODING 8740
SWIDTH 480 0
DWIDTH 5 0
BBX 3 9 1 -1
BITMAP
40
40
40
60
40
C0
40
40
40
ENDCHAR
STARTCHAR PARALLEL
ENCODING 8741
SWIDTH 480 0
DWIDTH 5 0
BBX 3 9 1 -1
BITMAP
A0
A0
A0
A0
A0
A0
A0
A0
A0
ENDCHAR
STARTCHAR NOT
ENCODING 8742
SWIDTH 480 0
DWIDTH 5 0
BBX 5 9 0 -1
BITMAP
50
50
50
58
70
D0
50
50
50
ENDCHAR
STARTCHAR LOGICAL
ENCODING 8743
SWIDTH 480 0
DWIDTH 5 0
BBX 5 6 0 0
BITMAP
20
20
50
50
88
88
ENDCHAR
STARTCHAR LOGICAL
ENCODING 8744
SWIDTH 480 0
DWIDTH 5 0
BBX 5 6 0 0
BITMAP
88
88
50
50
20
20
ENDCHAR
STARTCHAR INTERSECTION
ENCODING 8745
SWIDTH 480 0
DWIDTH 5 0
BBX 5 5 0 0
BITMAP
70
88
88
88
88
ENDCHAR
STARTCHAR UNION
ENCODING 8746
SWIDTH 480 0
DWIDTH 5 0
BBX 5 5 0 0
BITMAP
88
88
88
88
70
ENDCHAR
STARTCHAR INTEGRAL
ENCODING 8747
SWIDTH 480 0
DWIDTH 5 0
BBX 3 11 1 -2
BITMAP
20
40
40
40
40
40
40
40
40
40
80
ENDCHAR
STARTCHAR DOUBLE
ENCODING 8748
SWIDTH 480 0
DWIDTH 5 0
BBX 5 11 0 -2
BITMAP
28
50
50
50
50
50
50
50
50
50
A0
ENDCHAR
STARTCHAR CONTOUR
ENCODING 8750
SWIDTH 480 0
DWIDTH 5 0
BBX 5 11 0 -2
BITMAP
10
20
20
20
70
A8
70
20
20
20
40
ENDCHAR
STARTCHAR SURFACE
ENCODING 8751
SWIDTH 480 0
DWIDTH 5 0
BBX 5 11 0 -2
BITMAP
28
50
50
50
70
D8
70
50
50
50
A0
ENDCHAR
STARTCHAR CLOCKWISE
ENCODING 8753
SWIDTH 480 0
DWIDTH 5 0
BBX 6 11 0 -2
BITMAP
10
20
20
20
74
AC
3C
20
20
20
40
ENDCHAR
STARTCHAR CLOCKWISE
ENCODING 8754
SWIDTH 480 0
DWIDTH 5 0
BBX 6 11 0 -2
BITMAP
10
20
20
20
74
AC
7C
20
20
20
40
ENDCHAR
STARTCHAR ANTICLOCKWISE
ENCODING 8755
SWIDTH 480 0
DWIDTH 5 0
BBX 6 11 0 -2
BITMAP
10
20
20
20
7C
AC
74
20
20
20
40
ENDCHAR
STARTCHAR THEREFORE
ENCODING 8756
SWIDTH 480 0
DWIDTH 5 0
BBX 5 5 0 1
BITMAP
20
00
00
00
88
ENDCHAR
STARTCHAR BECAUSE
ENCODING 8757
SWIDTH 480 0
DWIDTH 5 0
BBX 5 5 0 1
BITMAP
88
00
00
00
20
ENDCHAR
STARTCHAR RATIO
ENCODING 8758
SWIDTH 480 0
DWIDTH 5 0
BBX 1 5 2 1
BITMAP
80
00
00
00
80
ENDCHAR
STARTCHAR PROPORTION
ENCODING 8759
SWIDTH 480 0
DWIDTH 5 0
BBX 5 5 0 1
BITMAP
88
00
00
00
88
ENDCHAR
STARTCHAR DOT
ENCODING 8760
SWIDTH 480 0
DWIDTH 5 0
BBX 5 3 0 3
BITMAP
20
00
F8
ENDCHAR
STARTCHAR EXCESS
ENCODING 8761
SWIDTH 480 0
DWIDTH 5 0
BBX 5 5 0 1
BITMAP
08
00
E0
00
08
ENDCHAR
STARTCHAR GEOMETRIC
ENCODING 8762
SWIDTH 480 0
DWIDTH 5 0
BBX 5 5 0 1
BITMAP
88
00
F8
00
88
ENDCHAR
STARTCHAR HOMOTHETIC
ENCODING 8763
SWIDTH 480 0
DWIDTH 5 0
BBX 5 6 0 1
BITMAP
20
00
68
B0
00
20
ENDCHAR
STARTCHAR TILDE
ENCODING 8764
SWIDTH 480 0
DWIDTH 5 0
BBX 5 2 0 3
BITMAP
68
B0
ENDCHAR
STARTCHAR REVERSED
ENCODING 8765
SWIDTH 480 0
DWIDTH 5 0
BBX 5 2 0 3
BITMAP
B0
68
ENDCHAR
STARTCHAR INVERTED
ENCODING 8766
SWIDTH 480 0
DWIDTH 5 0
BBX 6 4 0 2
BITMAP
48
A4
94
48
ENDCHAR
STARTCHAR SINE
ENCODING 8767
SWIDTH 480 0
DWIDTH 5 0
BBX 5 5 0 1
BITMAP
40
A0
A8
28
10
ENDCHAR
STARTCHAR WREATH
ENCODING 8768
SWIDTH 480 0
DWIDTH 5 0
BBX 3 7 1 0
BITMAP
40
20
20
40
80
80
40
ENDCHAR
STARTCHAR NOT
ENCODING 8769
SWIDTH 480 0
DWIDTH 5 0
BBX 5 6 0 1
BITMAP
20
20
68
B0
20
20
ENDCHAR
STARTCHAR MINUS
ENCODING 8770
SWIDTH 480 0
DWIDTH 5 0
BBX 5 4 0 2
BITMAP
F8
00
68
B0
ENDCHAR
STARTCHAR ASYMPTOTICALLY
ENCODING 8771
SWIDTH 480 0
DWIDTH 5 0
BBX 5 4 0 2
BITMAP
68
B0
00
F8
ENDCHAR
STARTCHAR NOT
ENCODING 8772
SWIDTH 480 0
DWIDTH 5 0
BBX 5 6 0 1
BITMAP
20
68
B0
20
F8
20
ENDCHAR
STARTCHAR APPROXIMATELY
ENCODING 8773
SWIDTH 480 0
DWIDTH 5 0
BBX 5 6 0 0
BITMAP
68
B0
00
F8
00
F8
ENDCHAR
STARTCHAR APPROXIMATELY
ENCODING 8774
SWIDTH 480 0
DWIDTH 5 0
BBX 5 7 0 -1
BITMAP
68
B0
00
F8
20
F8
20
ENDCHAR
STARTCHAR NEITHER
ENCODING 8775
SWIDTH 480 0
DWIDTH 5 0
BBX 5 8 0 -1
BITMAP
20
68
B0
20
F8
20
F8
20
ENDCHAR
STARTCHAR char8776
ENCODING 8776
SWIDTH 480 0
DWIDTH 5 0
BBX 5 5 0 0
BITMAP
08
70
88
70
80
ENDCHAR
STARTCHAR NOT
ENCODING 8777
SWIDTH 480 0
DWIDTH 5 0
BBX 5 6 0 0
BITMAP
20
68
B0
68
B0
20
ENDCHAR
STARTCHAR ALMOST
ENCODING 8778
SWIDTH 480 0
DWIDTH 5 0
BBX 5 6 0 0
BITMAP
68
90
68
90
00
F8
ENDCHAR
STARTCHAR TRIPLE
ENCODING 8779
SWIDTH 480 0
DWIDTH 5 0
BBX 5 6 0 0
BITMAP
68
90
68
90
68
90
ENDCHAR
STARTCHAR ALL
ENCODING 8780
SWIDTH 480 0
DWIDTH 5 0
BBX 5 6 0 0
BITMAP
68
B0
00
F8
00
F8
ENDCHAR
STARTCHAR EQUIVALENT
ENCODING 8781
SWIDTH 480 0
DWIDTH 5 0
BBX 5 5 0 1
BITMAP
88
70
00
70
88
ENDCHAR
STARTCHAR GEOMETRICALLY
ENCODING 8782
SWIDTH 480 0
DWIDTH 5 0
BBX 5 5 0 1
BITMAP
20
D8
00
D8
20
ENDCHAR
STARTCHAR DIFFERENCE
ENCODING 8783
SWIDTH 480 0
DWIDTH 5 0
BBX 5 4 0 2
BITMAP
20
D8
00
F8
ENDCHAR
STARTCHAR APPROACHES
ENCODING 8784
SWIDTH 480 0
DWIDTH 5 0
BBX 5 5 0 2
BITMAP
20
00
F8
00
F8
ENDCHAR
STARTCHAR GEOMETRICALLY
ENCODING 8785
SWIDTH 480 0
DWIDTH 5 0
BBX 5 7 0 0
BITMAP
20
00
F8
00
F8
00
20
ENDCHAR
STARTCHAR APPROXIMATELY
ENCODING 8786
SWIDTH 480 0
DWIDTH 5 0
BBX 5 7 0 0
BITMAP
80
00
F8
00
F8
00
08
ENDCHAR
STARTCHAR IMAGE
ENCODING 8787
SWIDTH 480 0
DWIDTH 5 0
BBX 5 7 0 0
BITMAP
08
00
F8
00
F8
00
80
ENDCHAR
STARTCHAR COLON
ENCODING 8788
SWIDTH 480 0
DWIDTH 5 0
BBX 5 3 0 2
BITMAP
B8
00
B8
ENDCHAR
STARTCHAR EQUALS
ENCODING 8789
SWIDTH 480 0
DWIDTH 5 0
BBX 5 3 0 2
BITMAP
E8
00
E8
ENDCHAR
STARTCHAR char8790
ENCODING 8790
SWIDTH 480 0
DWIDTH 5 0
BBX 5 3 0 1
BITMAP
F8
50
F8
ENDCHAR
STARTCHAR RING
ENCODING 8791
SWIDTH 480 0
DWIDTH 5 0
BBX 5 6 0 1
BITMAP
20
50
20
F8
00
F8
ENDCHAR
STARTCHAR CORRESPONDS
ENCODING 8792
SWIDTH 480 0
DWIDTH 5 0
BBX 5 6 0 1
BITMAP
70
88
00
F8
00
F8
ENDCHAR
STARTCHAR ESTIMATES
ENCODING 8793
SWIDTH 480 0
DWIDTH 5 0
BBX 5 6 0 1
BITMAP
20
50
00
F8
00
F8
ENDCHAR
STARTCHAR EQUIANGULAR
ENCODING 8794
SWIDTH 480 0
DWIDTH 5 0
BBX 5 6 0 1
BITMAP
50
20
00
F8
00
F8
ENDCHAR
STARTCHAR STAR
ENCODING 8795
SWIDTH 480 0
DWIDTH 5 0
BBX 5 7 0 1
BITMAP
A8
70
A8
00
F8
00
F8
ENDCHAR
STARTCHAR DELTA
ENCODING 8796
SWIDTH 480 0
DWIDTH 5 0
BBX 5 7 0 1
BITMAP
20
50
F8
00
F8
00
F8
ENDCHAR
STARTCHAR MEASURED
ENCODING 8798
SWIDTH 480 0
DWIDTH 5 0
BBX 5 6 0 1
BITMAP
F0
A8
00
F8
00
F8
ENDCHAR
STARTCHAR QUESTIONED
ENCODING 8799
SWIDTH 480 0
DWIDTH 5 0
BBX 5 8 0 1
BITMAP
20
10
20
00
20
F8
00
F8
ENDCHAR
STARTCHAR char8800
ENCODING 8800
SWIDTH 480 0
DWIDTH 5 0
BBX 3 5 2 1
BITMAP
20
E0
40
E0
80
ENDCHAR
STARTCHAR IDENTICAL
ENCODING 8801
SWIDTH 480 0
DWIDTH 5 0
BBX 5 5 0 1
BITMAP
F8
00
F8
00
F8
ENDCHAR
STARTCHAR NOT
ENCODING 8802
SWIDTH 480 0
DWIDTH 5 0
BBX 5 7 0 0
BITMAP
08
F8
10
F8
40
F8
80
ENDCHAR
STARTCHAR STRICTLY
ENCODING 8803
SWIDTH 480 0
DWIDTH 5 0
BBX 5 7 0 0
BITMAP
F8
00
F8
00
F8
00
F8
ENDCHAR
STARTCHAR char8804
ENCODING 8804
SWIDTH 480 0
DWIDTH 5 0
BBX 4 7 1 -1
BITMAP
20
40
80
40
20
00
F0
ENDCHAR
STARTCHAR char8805
ENCODING 8805
SWIDTH 480 0
DWIDTH 5 0
BBX 4 7 1 -1
BITMAP
40
20
10
20
40
00
F0
ENDCHAR
STARTCHAR char8804
ENCODING 8806
SWIDTH 480 0
DWIDTH 5 0
BBX 4 9 1 -2
BITMAP
20
40
80
40
20
00
F0
00
F0
ENDCHAR
STARTCHAR char8805
ENCODING 8807
SWIDTH 480 0
DWIDTH 5 0
BBX 4 9 1 -2
BITMAP
40
20
10
20
40
00
F0
00
F0
ENDCHAR
STARTCHAR char8804
ENCODING 8808
SWIDTH 480 0
DWIDTH 5 0
BBX 4 10 1 -3
BITMAP
20
40
80
40
30
20
F0
60
F0
40
ENDCHAR
STARTCHAR char8804
ENCODING 8809
SWIDTH 480 0
DWIDTH 5 0
BBX 4 10 1 -3
BITMAP
40
20
10
20
C0
40
F0
60
F0
20
ENDCHAR
STARTCHAR char8804
ENCODING 8810
SWIDTH 480 0
DWIDTH 5 0
BBX 5 5 0 1
BITMAP
28
50
A0
50
28
ENDCHAR
STARTCHAR char8805
ENCODING 8811
SWIDTH 480 0
DWIDTH 5 0
BBX 5 5 1 1
BITMAP
A0
50
28
50
A0
ENDCHAR
STARTCHAR BETWEEN
ENCODING 8812
SWIDTH 480 0
DWIDTH 5 0
BBX 3 9 1 -1
BITMAP
A0
40
A0
A0
A0
A0
A0
40
A0
ENDCHAR
STARTCHAR NOT
ENCODING 8813
SWIDTH 480 0
DWIDTH 5 0
BBX 5 7 0 0
BITMAP
10
98
70
20
70
C8
40
ENDCHAR
STARTCHAR char8804
ENCODING 8814
SWIDTH 480 0
DWIDTH 5 0
BBX 4 5 0 1
BITMAP
10
30
60
60
90
ENDCHAR
STARTCHAR char8804
ENCODING 8815
SWIDTH 480 0
DWIDTH 5 0
BBX 4 5 0 1
BITMAP
80
C0
60
60
90
ENDCHAR
STARTCHAR char8804
ENCODING 8816
SWIDTH 480 0
DWIDTH 5 0
BBX 4 8 1 -2
BITMAP
20
40
A0
60
30
40
F0
40
ENDCHAR
STARTCHAR char8804
ENCODING 8817
SWIDTH 480 0
DWIDTH 5 0
BBX 4 8 1 -2
BITMAP
40
20
50
60
C0
20
F0
20
ENDCHAR
STARTCHAR char8804
ENCODING 8818
SWIDTH 480 0
DWIDTH 5 0
BBX 4 8 1 -2
BITMAP
20
40
80
40
20
00
50
A0
ENDCHAR
STARTCHAR char8805
ENCODING 8819
SWIDTH 480 0
DWIDTH 5 0
BBX 4 8 1 -2
BITMAP
40
20
10
20
40
00
50
A0
ENDCHAR
STARTCHAR char8804
ENCODING 8820
SWIDTH 480 0
DWIDTH 5 0
BBX 5 8 1 -2
BITMAP
28
50
90
60
30
40
50
A0
ENDCHAR
STARTCHAR char8804
ENCODING 8821
SWIDTH 480 0
DWIDTH 5 0
BBX 5 8 1 -2
BITMAP
A0
50
48
30
60
10
50
28
ENDCHAR
STARTCHAR char8804
ENCODING 8822
SWIDTH 480 0
DWIDTH 5 0
BBX 3 10 1 -2
BITMAP
20
40
80
40
20
80
40
20
40
80
ENDCHAR
STARTCHAR char8804
ENCODING 8823
SWIDTH 480 0
DWIDTH 5 0
BBX 3 10 1 -2
BITMAP
80
40
20
40
80
20
40
80
40
20
ENDCHAR
STARTCHAR char8804
ENCODING 8824
SWIDTH 480 0
DWIDTH 5 0
BBX 3 11 1 -2
BITMAP
40
60
40
C0
40
60
C0
40
60
40
C0
ENDCHAR
STARTCHAR char8804
ENCODING 8825
SWIDTH 480 0
DWIDTH 5 0
BBX 3 11 1 -2
BITMAP
40
C0
40
60
40
C0
60
40
C0
40
60
ENDCHAR
STARTCHAR char8804
ENCODING 8826
SWIDTH 480 0
DWIDTH 5 0
BBX 4 5 1 1
BITMAP
10
60
80
60
10
ENDCHAR
STARTCHAR char8805
ENCODING 8827
SWIDTH 480 0
DWIDTH 5 0
BBX 4 5 1 1
BITMAP
80
60
10
60
80
ENDCHAR
STARTCHAR char8804
ENCODING 8828
SWIDTH 480 0
DWIDTH 5 0
BBX 4 8 1 -2
BITMAP
10
60
80
60
10
80
60
10
ENDCHAR
STARTCHAR char8805
ENCODING 8829
SWIDTH 480 0
DWIDTH 5 0
BBX 4 8 1 -2
BITMAP
80
60
10
60
80
10
60
80
ENDCHAR
STARTCHAR char8804
ENCODING 8830
SWIDTH 480 0
DWIDTH 5 0
BBX 4 8 1 -2
BITMAP
10
60
80
60
10
00
50
A0
ENDCHAR
STARTCHAR char8805
ENCODING 8831
SWIDTH 480 0
DWIDTH 5 0
BBX 4 8 1 -2
BITMAP
80
60
10
60
80
00
50
A0
ENDCHAR
STARTCHAR char8804
ENCODING 8832
SWIDTH 480 0
DWIDTH 5 0
BBX 4 7 1 0
BITMAP
10
30
60
A0
60
90
80
ENDCHAR
STARTCHAR char8804
ENCODING 8833
SWIDTH 480 0
DWIDTH 5 0
BBX 4 7 1 0
BITMAP
80
C0
60
50
60
90
10
ENDCHAR
STARTCHAR SUBSET
ENCODING 8834
SWIDTH 480 0
DWIDTH 5 0
BBX 5 5 0 1
BITMAP
78
80
80
80
78
ENDCHAR
STARTCHAR SUPERSET
ENCODING 8835
SWIDTH 480 0
DWIDTH 5 0
BBX 5 5 0 1
BITMAP
F0
08
08
08
F0
ENDCHAR
STARTCHAR NOT
ENCODING 8836
SWIDTH 480 0
DWIDTH 5 0
BBX 5 9 0 -1
BITMAP
10
10
78
A0
A0
A0
78
40
40
ENDCHAR
STARTCHAR NOT
ENCODING 8837
SWIDTH 480 0
DWIDTH 5 0
BBX 5 9 0 -1
BITMAP
10
10
F0
28
28
28
F0
40
40
ENDCHAR
STARTCHAR SUBSET
ENCODING 8838
SWIDTH 480 0
DWIDTH 5 0
BBX 5 7 0 -1
BITMAP
78
80
80
80
78
00
F8
ENDCHAR
STARTCHAR SUPERSET
ENCODING 8839
SWIDTH 480 0
DWIDTH 5 0
BBX 5 7 0 -1
BITMAP
F0
08
08
08
F0
00
F8
ENDCHAR
STARTCHAR NEITHER
ENCODING 8840
SWIDTH 480 0
DWIDTH 5 0
BBX 5 9 0 -1
BITMAP
10
10
78
A0
A0
A0
78
40
F8
ENDCHAR
STARTCHAR NEITHER
ENCODING 8841
SWIDTH 480 0
DWIDTH 5 0
BBX 5 9 0 -1
BITMAP
10
10
F0
28
28
28
F0
40
F8
ENDCHAR
STARTCHAR SUBSET
ENCODING 8842
SWIDTH 480 0
DWIDTH 5 0
BBX 5 8 0 -2
BITMAP
78
80
80
80
78
10
F8
40
ENDCHAR
STARTCHAR SUPERSET
ENCODING 8843
SWIDTH 480 0
DWIDTH 5 0
BBX 5 8 0 -2
BITMAP
F0
08
08
08
F0
10
F8
40
ENDCHAR
STARTCHAR MULTISET
ENCODING 8844
SWIDTH 480 0
DWIDTH 5 0
BBX 5 7 0 0
BITMAP
A8
E8
F8
E8
A8
88
70
ENDCHAR
STARTCHAR MULTISET
ENCODING 8845
SWIDTH 480 0
DWIDTH 5 0
BBX 5 7 0 0
BITMAP
88
88
88
A8
88
88
70
ENDCHAR
STARTCHAR MULTISET
ENCODING 8846
SWIDTH 480 0
DWIDTH 5 0
BBX 5 7 0 0
BITMAP
88
88
A8
F8
A8
88
70
ENDCHAR
STARTCHAR SQUARE
ENCODING 8847
SWIDTH 480 0
DWIDTH 5 0
BBX 5 5 0 1
BITMAP
F8
80
80
80
F8
ENDCHAR
STARTCHAR SQUARE
ENCODING 8848
SWIDTH 480 0
DWIDTH 5 0
BBX 5 5 0 1
BITMAP
F8
08
08
08
F8
ENDCHAR
STARTCHAR SQUARE
ENCODING 8849
SWIDTH 480 0
DWIDTH 5 0
BBX 5 7 0 -1
BITMAP
F8
80
80
80
F8
00
F8
ENDCHAR
STARTCHAR SQUARE
ENCODING 8850
SWIDTH 480 0
DWIDTH 5 0
BBX 5 7 0 -2
BITMAP
F8
08
08
08
F8
00
F8
ENDCHAR
STARTCHAR SQUARE
ENCODING 8851
SWIDTH 480 0
DWIDTH 5 0
BBX 5 5 0 1
BITMAP
F8
88
88
88
88
ENDCHAR
STARTCHAR SQUARE
ENCODING 8852
SWIDTH 480 0
DWIDTH 5 0
BBX 5 5 0 1
BITMAP
88
88
88
88
F8
ENDCHAR
STARTCHAR CIRCLED
ENCODING 8853
SWIDTH 480 0
DWIDTH 5 0
BBX 5 5 0 1
BITMAP
70
A8
F8
A8
70
ENDCHAR
STARTCHAR CIRCLED
ENCODING 8854
SWIDTH 480 0
DWIDTH 5 0
BBX 5 5 0 1
BITMAP
70
88
F8
88
70
ENDCHAR
STARTCHAR CIRCLED
ENCODING 8855
SWIDTH 480 0
DWIDTH 5 0
BBX 5 5 0 1
BITMAP
70
D8
A8
D8
70
ENDCHAR
STARTCHAR CIRCLED
ENCODING 8856
SWIDTH 480 0
DWIDTH 5 0
BBX 5 5 0 1
BITMAP
70
98
A8
C8
70
ENDCHAR
STARTCHAR CIRCLED
ENCODING 8857
SWIDTH 480 0
DWIDTH 5 0
BBX 5 5 0 1
BITMAP
70
88
A8
88
70
ENDCHAR
STARTCHAR CIRCLED
ENCODING 8859
SWIDTH 480 0
DWIDTH 5 0
BBX 5 5 0 1
BITMAP
70
88
A8
88
70
ENDCHAR
STARTCHAR CIRCLED
ENCODING 8861
SWIDTH 480 0
DWIDTH 5 0
BBX 5 5 0 1
BITMAP
70
88
F8
88
70
ENDCHAR
STARTCHAR SQUARED
ENCODING 8862
SWIDTH 480 0
DWIDTH 5 0
BBX 5 5 0 1
BITMAP
F8
A8
F8
A8
F8
ENDCHAR
STARTCHAR SQUARED
ENCODING 8863
SWIDTH 480 0
DWIDTH 5 0
BBX 5 5 0 1
BITMAP
F8
88
F8
88
F8
ENDCHAR
STARTCHAR SQUARED
ENCODING 8864
SWIDTH 480 0
DWIDTH 5 0
BBX 5 5 0 1
BITMAP
F8
D8
A8
D8
F8
ENDCHAR
STARTCHAR SQUARED
ENCODING 8865
SWIDTH 480 0
DWIDTH 5 0
BBX 5 5 0 1
BITMAP
F8
88
A8
88
F8
ENDCHAR
STARTCHAR RIGHT
ENCODING 8866
SWIDTH 480 0
DWIDTH 5 0
BBX 5 5 0 1
BITMAP
80
80
F8
80
80
ENDCHAR
STARTCHAR LEFT
ENCODING 8867
SWIDTH 480 0
DWIDTH 5 0
BBX 5 5 0 1
BITMAP
08
08
F8
08
08
ENDCHAR
STARTCHAR DOWN
ENCODING 8868
SWIDTH 480 0
DWIDTH 5 0
BBX 5 5 0 1
BITMAP
F8
20
20
20
20
ENDCHAR
STARTCHAR UP
ENCODING 8869
SWIDTH 480 0
DWIDTH 5 0
BBX 5 5 0 1
BITMAP
20
20
20
20
F8
ENDCHAR
STARTCHAR ASSERTION
ENCODING 8870
SWIDTH 480 0
DWIDTH 5 0
BBX 3 5 1 1
BITMAP
80
80
E0
80
80
ENDCHAR
STARTCHAR MODELS
ENCODING 8871
SWIDTH 480 0
DWIDTH 5 0
BBX 3 5 1 1
BITMAP
80
E0
80
E0
80
ENDCHAR
STARTCHAR TRUE
ENCODING 8872
SWIDTH 480 0
DWIDTH 5 0
BBX 5 5 0 1
BITMAP
80
F8
80
F8
80
ENDCHAR
STARTCHAR FORCES
ENCODING 8873
SWIDTH 480 0
DWIDTH 5 0
BBX 5 5 0 1
BITMAP
A0
A0
B8
A0
A0
ENDCHAR
STARTCHAR TRIPLE
ENCODING 8874
SWIDTH 480 0
DWIDTH 5 0
BBX 6 5 0 1
BITMAP
A8
A8
AC
A8
A8
ENDCHAR
STARTCHAR DOUBLE
ENCODING 8875
SWIDTH 480 0
DWIDTH 5 0
BBX 5 5 0 1
BITMAP
A0
B8
A0
B8
A0
ENDCHAR
STARTCHAR DOES
ENCODING 8876
SWIDTH 480 0
DWIDTH 5 0
BBX 5 5 0 1
BITMAP
90
90
F8
A0
A0
ENDCHAR
STARTCHAR NOT
ENCODING 8877
SWIDTH 480 0
DWIDTH 5 0
BBX 5 5 0 1
BITMAP
88
F8
90
F8
A0
ENDCHAR
STARTCHAR DOES
ENCODING 8878
SWIDTH 480 0
DWIDTH 5 0
BBX 6 5 0 1
BITMAP
A8
A8
BC
B0
B0
ENDCHAR
STARTCHAR NEGATED
ENCODING 8879
SWIDTH 480 0
DWIDTH 5 0
BBX 6 5 0 1
BITMAP
A4
BC
A8
BC
B0
ENDCHAR
STARTCHAR PRECEDES
ENCODING 8880
SWIDTH 480 0
DWIDTH 5 0
BBX 5 7 0 0
BITMAP
10
08
10
E0
10
08
10
ENDCHAR
STARTCHAR SUCCEEDS
ENCODING 8881
SWIDTH 480 0
DWIDTH 5 0
BBX 5 7 0 0
BITMAP
40
80
40
38
40
80
40
ENDCHAR
STARTCHAR NORMAL
ENCODING 8882
SWIDTH 480 0
DWIDTH 5 0
BBX 5 5 0 1
BITMAP
18
68
88
68
18
ENDCHAR
STARTCHAR CONTAINS
ENCODING 8883
SWIDTH 480 0
DWIDTH 5 0
BBX 5 5 0 1
BITMAP
C0
B0
88
B0
C0
ENDCHAR
STARTCHAR NORMAL
ENCODING 8884
SWIDTH 480 0
DWIDTH 5 0
BBX 5 7 0 -1
BITMAP
18
68
88
68
18
00
F8
ENDCHAR
STARTCHAR CONTAINS
ENCODING 8885
SWIDTH 480 0
DWIDTH 5 0
BBX 5 7 0 -1
BITMAP
C0
B0
88
B0
C0
00
F8
ENDCHAR
STARTCHAR ORIGINAL
ENCODING 8886
SWIDTH 480 0
DWIDTH 5 0
BBX 5 3 0 2
BITMAP
50
B8
50
ENDCHAR
STARTCHAR IMAGE
ENCODING 8887
SWIDTH 480 0
DWIDTH 5 0
BBX 5 3 0 2
BITMAP
50
E8
50
ENDCHAR
STARTCHAR MULTIMAP
ENCODING 8888
SWIDTH 480 0
DWIDTH 5 0
BBX 5 3 0 2
BITMAP
10
E8
10
ENDCHAR
STARTCHAR HERMITIAN
ENCODING 8889
SWIDTH 480 0
DWIDTH 5 0
BBX 5 5 0 1
BITMAP
20
20
D8
20
20
ENDCHAR
STARTCHAR INTERCALATE
ENCODING 8890
SWIDTH 480 0
DWIDTH 5 0
BBX 3 7 1 0
BITMAP
E0
40
40
40
40
40
40
ENDCHAR
STARTCHAR XOR
ENCODING 8891
SWIDTH 480 0
DWIDTH 5 0
BBX 5 8 0 -2
BITMAP
88
88
50
50
20
20
00
F8
ENDCHAR
STARTCHAR NAND
ENCODING 8892
SWIDTH 480 0
DWIDTH 5 0
BBX 5 8 0 0
BITMAP
F8
00
20
20
50
50
88
88
ENDCHAR
STARTCHAR NOR
ENCODING 8893
SWIDTH 480 0
DWIDTH 5 0
BBX 5 8 0 0
BITMAP
F8
00
88
88
50
50
20
20
ENDCHAR
STARTCHAR RIGHT
ENCODING 8894
SWIDTH 480 0
DWIDTH 5 0
BBX 5 5 0 1
BITMAP
80
80
C0
A0
F8
ENDCHAR
STARTCHAR RIGHT
ENCODING 8895
SWIDTH 480 0
DWIDTH 5 0
BBX 5 5 0 1
BITMAP
08
18
28
48
F8
ENDCHAR
STARTCHAR N-ARY
ENCODING 8896
SWIDTH 480 0
DWIDTH 5 0
BBX 5 9 0 -1
BITMAP
20
20
20
50
50
50
88
88
88
ENDCHAR
STARTCHAR N-ARY
ENCODING 8897
SWIDTH 480 0
DWIDTH 5 0
BBX 5 9 0 -1
BITMAP
88
88
88
50
50
50
20
20
20
ENDCHAR
STARTCHAR N-ARY
ENCODING 8898
SWIDTH 480 0
DWIDTH 5 0
BBX 5 9 0 -1
BITMAP
70
88
88
88
88
88
88
88
88
ENDCHAR
STARTCHAR N-ARY
ENCODING 8899
SWIDTH 480 0
DWIDTH 5 0
BBX 5 9 0 -1
BITMAP
88
88
88
88
88
88
88
88
70
ENDCHAR
STARTCHAR DIAMOND
ENCODING 8900
SWIDTH 480 0
DWIDTH 5 0
BBX 5 5 0 1
BITMAP
20
50
88
50
20
ENDCHAR
STARTCHAR DOT
ENCODING 8901
SWIDTH 480 0
DWIDTH 5 0
BBX 2 2 1 2
BITMAP
C0
C0
ENDCHAR
STARTCHAR STAR
ENCODING 8902
SWIDTH 480 0
DWIDTH 5 0
BBX 5 5 0 1
BITMAP
20
20
F8
70
88
ENDCHAR
STARTCHAR DIVISION
ENCODING 8903
SWIDTH 480 0
DWIDTH 5 0
BBX 5 7 0 0
BITMAP
20
88
50
F8
50
88
20
ENDCHAR
STARTCHAR BOWTIE
ENCODING 8904
SWIDTH 480 0
DWIDTH 5 0
BBX 5 5 0 1
BITMAP
88
D8
A8
D8
88
ENDCHAR
STARTCHAR LEFT
ENCODING 8905
SWIDTH 480 0
DWIDTH 5 0
BBX 5 5 0 1
BITMAP
88
D0
A0
D0
88
ENDCHAR
STARTCHAR RIGHT
ENCODING 8906
SWIDTH 480 0
DWIDTH 5 0
BBX 5 5 0 1
BITMAP
88
58
28
58
88
ENDCHAR
STARTCHAR LEFT
ENCODING 8907
SWIDTH 480 0
DWIDTH 5 0
BBX 5 5 0 1
BITMAP
80
40
20
50
88
ENDCHAR
STARTCHAR RIGHT
ENCODING 8908
SWIDTH 480 0
DWIDTH 5 0
BBX 5 5 0 1
BITMAP
08
10
20
50
88
ENDCHAR
STARTCHAR REVERSED
ENCODING 8909
SWIDTH 480 0
DWIDTH 5 0
BBX 5 4 0 2
BITMAP
B0
68
00
F8
ENDCHAR
STARTCHAR CURLY
ENCODING 8910
SWIDTH 480 0
DWIDTH 5 0
BBX 5 6 0 0
BITMAP
88
50
50
20
20
20
ENDCHAR
STARTCHAR CURLY
ENCODING 8911
SWIDTH 480 0
DWIDTH 5 0
BBX 5 6 0 0
BITMAP
20
20
20
50
50
88
ENDCHAR
STARTCHAR DOUBLE
ENCODING 8912
SWIDTH 480 0
DWIDTH 5 0
BBX 5 7 0 0
BITMAP
38
40
98
A0
98
40
38
ENDCHAR
STARTCHAR DOUBLE
ENCODING 8913
SWIDTH 480 0
DWIDTH 5 0
BBX 5 7 0 0
BITMAP
E0
10
C8
28
C8
10
E0
ENDCHAR
STARTCHAR DOUBLE
ENCODING 8914
SWIDTH 480 0
DWIDTH 5 0
BBX 5 5 0 1
BITMAP
70
88
A8
A8
A8
ENDCHAR
STARTCHAR DOUBLE
ENCODING 8915
SWIDTH 480 0
DWIDTH 5 0
BBX 5 5 0 1
BITMAP
A8
A8
A8
88
70
ENDCHAR
STARTCHAR PITCHFORK
ENCODING 8916
SWIDTH 480 0
DWIDTH 5 0
BBX 5 7 0 1
BITMAP
20
20
70
A8
A8
A8
A8
ENDCHAR
STARTCHAR EQUAL
ENCODING 8917
SWIDTH 480 0
DWIDTH 5 0
BBX 5 7 0 0
BITMAP
50
50
F8
50
F8
50
50
ENDCHAR
STARTCHAR char8804
ENCODING 8918
SWIDTH 480 0
DWIDTH 5 0
BBX 4 5 1 1
BITMAP
20
40
90
40
20
ENDCHAR
STARTCHAR char8805
ENCODING 8919
SWIDTH 480 0
DWIDTH 5 0
BBX 4 5 1 1
BITMAP
40
20
90
20
40
ENDCHAR
STARTCHAR VERY
ENCODING 8920
SWIDTH 480 0
DWIDTH 5 0
BBX 6 3 0 2
BITMAP
54
A8
54
ENDCHAR
STARTCHAR VERY
ENCODING 8921
SWIDTH 480 0
DWIDTH 5 0
BBX 6 3 0 2
BITMAP
A8
54
A8
ENDCHAR
STARTCHAR LESS-THAN
ENCODING 8922
SWIDTH 480 0
DWIDTH 5 0
BBX 5 11 0 -2
BITMAP
18
60
80
60
18
F8
C0
30
08
30
C0
ENDCHAR
STARTCHAR GREATER-THAN
ENCODING 8923
SWIDTH 480 0
DWIDTH 5 0
BBX 5 11 0 -2
BITMAP
C0
30
08
30
C0
F8
18
60
80
60
18
ENDCHAR
STARTCHAR EQUAL
ENCODING 8924
SWIDTH 480 0
DWIDTH 5 0
BBX 5 7 0 1
BITMAP
F8
00
18
60
80
60
18
ENDCHAR
STARTCHAR EQUAL
ENCODING 8925
SWIDTH 480 0
DWIDTH 5 0
BBX 5 7 0 1
BITMAP
F8
00
C0
30
08
30
C0
ENDCHAR
STARTCHAR char8804
ENCODING 8926
SWIDTH 480 0
DWIDTH 5 0
BBX 4 8 1 0
BITMAP
10
60
80
10
60
80
60
10
ENDCHAR
STARTCHAR char8805
ENCODING 8927
SWIDTH 480 0
DWIDTH 5 0
BBX 4 8 1 0
BITMAP
80
60
10
80
60
10
60
80
ENDCHAR
STARTCHAR DOES
ENCODING 8928
SWIDTH 480 0
DWIDTH 5 0
BBX 5 10 0 -2
BITMAP
08
08
18
30
E0
30
C8
70
88
80
ENDCHAR
STARTCHAR DOES
ENCODING 8929
SWIDTH 480 0
DWIDTH 5 0
BBX 5 10 0 -2
BITMAP
08
08
90
70
38
60
D8
60
80
80
ENDCHAR
STARTCHAR NOT
ENCODING 8930
SWIDTH 480 0
DWIDTH 5 0
BBX 5 10 0 -2
BITMAP
08
08
F8
90
A0
A0
F8
40
F8
80
ENDCHAR
STARTCHAR NOT
ENCODING 8931
SWIDTH 480 0
DWIDTH 5 0
BBX 5 10 0 -2
BITMAP
08
08
F8
18
28
28
F8
40
F8
80
ENDCHAR
STARTCHAR SQUARE
ENCODING 8932
SWIDTH 480 0
DWIDTH 5 0
BBX 5 8 0 -2
BITMAP
F8
80
80
80
F8
10
F8
40
ENDCHAR
STARTCHAR SQUARE
ENCODING 8933
SWIDTH 480 0
DWIDTH 5 0
BBX 5 8 0 -2
BITMAP
F8
08
08
08
F8
10
F8
40
ENDCHAR
STARTCHAR char8804
ENCODING 8934
SWIDTH 480 0
DWIDTH 5 0
BBX 4 8 1 -2
BITMAP
20
40
80
40
20
20
F0
40
ENDCHAR
STARTCHAR char8805
ENCODING 8935
SWIDTH 480 0
DWIDTH 5 0
BBX 4 8 1 -2
BITMAP
40
20
10
20
40
40
F0
20
ENDCHAR
STARTCHAR char8804
ENCODING 8936
SWIDTH 480 0
DWIDTH 5 0
BBX 4 8 1 -2
BITMAP
10
60
80
60
10
20
F0
40
ENDCHAR
STARTCHAR char8805
ENCODING 8937
SWIDTH 480 0
DWIDTH 5 0
BBX 4 8 1 -2
BITMAP
80
60
10
60
80
40
F0
10
ENDCHAR
STARTCHAR NOT
ENCODING 8938
SWIDTH 480 0
DWIDTH 5 0
BBX 5 10 0 -2
BITMAP
08
08
18
78
A8
68
58
40
80
80
ENDCHAR
STARTCHAR DOES
ENCODING 8939
SWIDTH 480 0
DWIDTH 5 0
BBX 5 10 0 -2
BITMAP
08
08
D0
B0
A8
B0
C0
40
80
80
ENDCHAR
STARTCHAR NOT
ENCODING 8940
SWIDTH 480 0
DWIDTH 5 0
BBX 5 10 0 -2
BITMAP
08
08
18
78
A8
68
58
40
F8
80
ENDCHAR
STARTCHAR DOES
ENCODING 8941
SWIDTH 480 0
DWIDTH 5 0
BBX 5 10 0 -2
BITMAP
08
08
D0
B0
A8
B0
C0
40
F8
80
ENDCHAR
STARTCHAR VERTICAL
ENCODING 8942
SWIDTH 480 0
DWIDTH 5 0
BBX 1 5 2 1
BITMAP
80
00
80
00
80
ENDCHAR
STARTCHAR MIDLINE
ENCODING 8943
SWIDTH 480 0
DWIDTH 5 0
BBX 5 1 0 3
BITMAP
A8
ENDCHAR
STARTCHAR UP
ENCODING 8944
SWIDTH 480 0
DWIDTH 5 0
BBX 5 5 0 1
BITMAP
08
00
20
00
80
ENDCHAR
STARTCHAR DOWN
ENCODING 8945
SWIDTH 480 0
DWIDTH 5 0
BBX 5 5 0 1
BITMAP
80
00
20
00
08
ENDCHAR
STARTCHAR ELEMENT
ENCODING 8946
SWIDTH 480 0
DWIDTH 5 0
BBX 5 7 0 0
BITMAP
38
40
40
F8
40
40
38
ENDCHAR
STARTCHAR ELEMENT
ENCODING 8947
SWIDTH 480 0
DWIDTH 5 0
BBX 5 7 0 0
BITMAP
38
40
88
F8
88
40
38
ENDCHAR
STARTCHAR SMALL
ENCODING 8948
SWIDTH 480 0
DWIDTH 5 0
BBX 5 7 0 0
BITMAP
38
40
88
F8
88
40
38
ENDCHAR
STARTCHAR ELEMENT
ENCODING 8949
SWIDTH 480 0
DWIDTH 5 0
BBX 5 9 0 0
BITMAP
20
00
38
40
80
F8
80
40
38
ENDCHAR
STARTCHAR ELEMENT
ENCODING 8950
SWIDTH 480 0
DWIDTH 5 0
BBX 5 9 0 0
BITMAP
F8
00
38
40
80
F8
80
40
38
ENDCHAR
STARTCHAR SMALL
ENCODING 8951
SWIDTH 480 0
DWIDTH 5 0
BBX 4 7 0 1
BITMAP
F0
00
70
80
F0
80
70
ENDCHAR
STARTCHAR ELEMENT
ENCODING 8952
SWIDTH 480 0
DWIDTH 5 0
BBX 5 9 0 -2
BITMAP
38
40
80
F8
80
40
38
00
F8
ENDCHAR
STARTCHAR ELEMENT
ENCODING 8953
SWIDTH 480 0
DWIDTH 5 0
BBX 5 7 0 0
BITMAP
38
40
F8
80
F8
40
38
ENDCHAR
STARTCHAR CONTAINS
ENCODING 8954
SWIDTH 480 0
DWIDTH 5 0
BBX 5 7 0 0
BITMAP
E0
10
10
F8
10
10
E0
ENDCHAR
STARTCHAR CONTAINS
ENCODING 8955
SWIDTH 480 0
DWIDTH 5 0
BBX 5 7 0 0
BITMAP
E0
10
88
F8
88
10
E0
ENDCHAR
STARTCHAR SMALL
ENCODING 8956
SWIDTH 480 0
DWIDTH 5 0
BBX 5 7 0 0
BITMAP
E0
10
88
F8
88
10
E0
ENDCHAR
STARTCHAR CONTAINS
ENCODING 8957
SWIDTH 480 0
DWIDTH 5 0
BBX 5 9 0 0
BITMAP
F8
00
E0
10
08
F8
08
10
E0
ENDCHAR
STARTCHAR SMALL
ENCODING 8958
SWIDTH 480 0
DWIDTH 5 0
BBX 4 7 0 1
BITMAP
F0
00
E0
10
F0
10
E0
ENDCHAR
STARTCHAR uni22FF
ENCODING 8959
SWIDTH 500 0
DWIDTH 5 0
BBX 5 7 0 0
BITMAP
F8
80
80
F8
80
80
F8
ENDCHAR
STARTCHAR DIAMETER
ENCODING 8960
SWIDTH 480 0
DWIDTH 5 0
BBX 5 5 0 1
BITMAP
78
98
A8
C8
F0
ENDCHAR
STARTCHAR ELECTRIC
ENCODING 8961
SWIDTH 480 0
DWIDTH 5 0
BBX 5 3 0 1
BITMAP
A0
70
28
ENDCHAR
STARTCHAR HOUSE
ENCODING 8962
SWIDTH 480 0
DWIDTH 5 0
BBX 5 6 0 0
BITMAP
20
50
88
88
88
F8
ENDCHAR
STARTCHAR UP
ENCODING 8963
SWIDTH 480 0
DWIDTH 5 0
BBX 5 3 0 4
BITMAP
20
50
88
ENDCHAR
STARTCHAR DOWN
ENCODING 8964
SWIDTH 480 0
DWIDTH 5 0
BBX 5 3 0 0
BITMAP
88
50
20
ENDCHAR
STARTCHAR PROJECTIVE
ENCODING 8965
SWIDTH 480 0
DWIDTH 5 0
BBX 5 4 0 1
BITMAP
F8
20
50
88
ENDCHAR
STARTCHAR PERSPECTIVE
ENCODING 8966
SWIDTH 480 0
DWIDTH 5 0
BBX 5 6 0 1
BITMAP
F8
00
F8
20
50
88
ENDCHAR
STARTCHAR WAVY
ENCODING 8967
SWIDTH 480 0
DWIDTH 5 0
BBX 3 12 1 -3
BITMAP
80
40
20
20
40
80
80
40
20
20
40
80
ENDCHAR
STARTCHAR LEFT
ENCODING 8968
SWIDTH 480 0
DWIDTH 5 0
BBX 4 7 0 0
BITMAP
F0
80
80
80
80
80
80
ENDCHAR
STARTCHAR RIGHT
ENCODING 8969
SWIDTH 480 0
DWIDTH 5 0
BBX 4 7 0 0
BITMAP
F0
10
10
10
10
10
10
ENDCHAR
STARTCHAR LEFT
ENCODING 8970
SWIDTH 480 0
DWIDTH 5 0
BBX 4 7 0 0
BITMAP
80
80
80
80
80
80
F0
ENDCHAR
STARTCHAR RIGHT
ENCODING 8971
SWIDTH 480 0
DWIDTH 5 0
BBX 4 7 0 0
BITMAP
10
10
10
10
10
10
F0
ENDCHAR
STARTCHAR BOTTOM
ENCODING 8972
SWIDTH 480 0
DWIDTH 5 0
BBX 5 5 0 1
BITMAP
38
00
80
80
80
ENDCHAR
STARTCHAR BOTTOM
ENCODING 8973
SWIDTH 480 0
DWIDTH 5 0
BBX 5 5 0 1
BITMAP
E0
00
08
08
08
ENDCHAR
STARTCHAR TOP
ENCODING 8974
SWIDTH 480 0
DWIDTH 5 0
BBX 5 5 0 1
BITMAP
80
80
80
00
38
ENDCHAR
STARTCHAR TOP
ENCODING 8975
SWIDTH 480 0
DWIDTH 5 0
BBX 5 5 0 1
BITMAP
08
08
08
00
E0
ENDCHAR
STARTCHAR REVERSED
ENCODING 8976
SWIDTH 480 0
DWIDTH 5 0
BBX 5 3 0 1
BITMAP
F8
80
80
ENDCHAR
STARTCHAR SQUARE
ENCODING 8977
SWIDTH 480 0
DWIDTH 5 0
BBX 5 5 0 1
BITMAP
88
70
50
70
88
ENDCHAR
STARTCHAR char8978
ENCODING 8978
SWIDTH 480 0
DWIDTH 5 0
BBX 4 2 0 2
BITMAP
60
90
ENDCHAR
STARTCHAR SEGMENT
ENCODING 8979
SWIDTH 480 0
DWIDTH 5 0
BBX 5 3 0 2
BITMAP
70
88
F8
ENDCHAR
STARTCHAR SECTOR
ENCODING 8980
SWIDTH 480 0
DWIDTH 5 0
BBX 5 4 0 1
BITMAP
70
88
50
20
ENDCHAR
STARTCHAR TELEPHONE
ENCODING 8981
SWIDTH 480 0
DWIDTH 5 0
BBX 6 6 0 0
BITMAP
38
44
44
64
78
80
ENDCHAR
STARTCHAR POSITION
ENCODING 8982
SWIDTH 480 0
DWIDTH 5 0
BBX 5 9 0 -1
BITMAP
20
20
70
A8
F8
A8
70
20
20
ENDCHAR
STARTCHAR VIEWDATA
ENCODING 8983
SWIDTH 480 0
DWIDTH 5 0
BBX 5 5 0 1
BITMAP
50
F8
50
F8
50
ENDCHAR
STARTCHAR PLACE
ENCODING 8984
SWIDTH 480 0
DWIDTH 5 0
BBX 5 7 0 0
BITMAP
D8
A8
F8
50
F8
A8
D8
ENDCHAR
STARTCHAR TURNED
ENCODING 8985
SWIDTH 480 0
DWIDTH 5 0
BBX 5 3 0 1
BITMAP
80
80
F8
ENDCHAR
STARTCHAR WATCH
ENCODING 8986
SWIDTH 480 0
DWIDTH 5 0
BBX 5 7 0 0
BITMAP
70
70
98
A8
A8
70
70
ENDCHAR
STARTCHAR HOURGLASS
ENCODING 8987
SWIDTH 480 0
DWIDTH 5 0
BBX 5 6 0 0
BITMAP
F8
50
20
20
70
F8
ENDCHAR
STARTCHAR TOP
ENCODING 8988
SWIDTH 480 0
DWIDTH 5 0
BBX 3 3 0 4
BITMAP
E0
80
80
ENDCHAR
STARTCHAR TOP
ENCODING 8989
SWIDTH 480 0
DWIDTH 5 0
BBX 3 3 2 4
BITMAP
E0
20
20
ENDCHAR
STARTCHAR BOTTOM
ENCODING 8990
SWIDTH 480 0
DWIDTH 5 0
BBX 3 3 0 0
BITMAP
80
80
E0
ENDCHAR
STARTCHAR BOTTOM
ENCODING 8991
SWIDTH 480 0
DWIDTH 5 0
BBX 3 3 2 0
BITMAP
20
20
E0
ENDCHAR
STARTCHAR TOP
ENCODING 8992
SWIDTH 480 0
DWIDTH 5 0
BBX 3 10 2 -2
BITMAP
40
A0
80
80
80
80
80
80
80
80
ENDCHAR
STARTCHAR char8994
ENCODING 8994
SWIDTH 480 0
DWIDTH 5 0
BBX 5 2 0 2
BITMAP
70
88
ENDCHAR
STARTCHAR SMILE
ENCODING 8995
SWIDTH 480 0
DWIDTH 5 0
BBX 6 3 0 1
BITMAP
84
84
78
ENDCHAR
STARTCHAR UP
ENCODING 8996
SWIDTH 480 0
DWIDTH 5 0
BBX 5 4 0 4
BITMAP
D8
20
50
88
ENDCHAR
STARTCHAR OPTION
ENCODING 8997
SWIDTH 480 0
DWIDTH 5 0
BBX 6 4 0 1
BITMAP
CC
20
10
0C
ENDCHAR
STARTCHAR ERASE
ENCODING 8998
SWIDTH 480 0
DWIDTH 5 0
BBX 6 5 0 1
BITMAP
F0
D8
A4
D8
F0
ENDCHAR
STARTCHAR uni2327
ENCODING 8999
SWIDTH 500 0
DWIDTH 5 0
BBX 6 5 0 1
BITMAP
FC
CC
B4
CC
FC
ENDCHAR
STARTCHAR KEYBOARD
ENCODING 9000
SWIDTH 480 0
DWIDTH 5 0
BBX 6 8 0 -1
BITMAP
7C
64
5C
EC
5C
6C
54
7C
ENDCHAR
STARTCHAR LEFT-POINTING
ENCODING 9001
SWIDTH 480 0
DWIDTH 5 0
BBX 3 9 1 -1
BITMAP
20
20
40
40
80
40
40
20
20
ENDCHAR
STARTCHAR RIGHT-POINTING
ENCODING 9002
SWIDTH 480 0
DWIDTH 5 0
BBX 3 9 1 -1
BITMAP
80
80
40
40
20
40
40
80
80
ENDCHAR
STARTCHAR ERASE
ENCODING 9003
SWIDTH 480 0
DWIDTH 5 0
BBX 6 5 0 1
BITMAP
3C
6C
94
6C
3C
ENDCHAR
STARTCHAR CYLINDRICITY
ENCODING 9005
SWIDTH 480 0
DWIDTH 5 0
BBX 6 10 0 -2
BITMAP
04
08
10
30
4C
C8
30
20
40
80
ENDCHAR
STARTCHAR SYMMETRY
ENCODING 9007
SWIDTH 480 0
DWIDTH 5 0
BBX 6 5 0 1
BITMAP
30
00
FC
00
30
ENDCHAR
STARTCHAR TOTAL
ENCODING 9008
SWIDTH 480 0
DWIDTH 5 0
BBX 6 7 0 0
BITMAP
48
FC
48
48
90
90
F0
ENDCHAR
STARTCHAR DIMENSION
ENCODING 9009
SWIDTH 480 0
DWIDTH 5 0
BBX 6 5 0 1
BITMAP
70
A8
BC
A8
70
ENDCHAR
STARTCHAR CONICAL
ENCODING 9010
SWIDTH 480 0
DWIDTH 5 0
BBX 6 5 0 1
BITMAP
E0
98
FC
98
E0
ENDCHAR
STARTCHAR SLOPE
ENCODING 9011
SWIDTH 480 0
DWIDTH 5 0
BBX 6 3 0 3
BITMAP
C0
B0
FC
ENDCHAR
STARTCHAR COUNTERBORE
ENCODING 9012
SWIDTH 480 0
DWIDTH 5 0
BBX 5 4 0 0
BITMAP
88
88
88
F8
ENDCHAR
STARTCHAR COUNTERSINK
ENCODING 9013
SWIDTH 480 0
DWIDTH 5 0
BBX 5 3 0 0
BITMAP
88
50
20
ENDCHAR
STARTCHAR APL
ENCODING 9014
SWIDTH 480 0
DWIDTH 5 0
BBX 5 9 0 -1
BITMAP
F8
20
20
20
20
20
20
20
F8
ENDCHAR
STARTCHAR APL
ENCODING 9015
SWIDTH 480 0
DWIDTH 5 0
BBX 5 9 0 -1
BITMAP
F8
88
88
88
88
88
88
88
F8
ENDCHAR
STARTCHAR APL
ENCODING 9016
SWIDTH 480 0
DWIDTH 5 0
BBX 5 9 0 -1
BITMAP
F8
88
88
F8
88
F8
88
88
F8
ENDCHAR
STARTCHAR APL
ENCODING 9017
SWIDTH 480 0
DWIDTH 5 0
BBX 5 9 0 -1
BITMAP
F8
88
A8
88
F8
88
A8
88
F8
ENDCHAR
STARTCHAR APL
ENCODING 9018
SWIDTH 480 0
DWIDTH 5 0
BBX 5 9 0 -1
BITMAP
F8
88
A8
D8
88
D8
A8
88
F8
ENDCHAR
STARTCHAR APL
ENCODING 9019
SWIDTH 480 0
DWIDTH 5 0
BBX 5 9 0 -1
BITMAP
F8
88
88
A8
D8
A8
88
88
F8
ENDCHAR
STARTCHAR APL
ENCODING 9020
SWIDTH 480 0
DWIDTH 5 0
BBX 5 9 0 -1
BITMAP
F8
88
F8
D8
88
D8
F8
88
F8
ENDCHAR
STARTCHAR APL
ENCODING 9021
SWIDTH 480 0
DWIDTH 5 0
BBX 5 9 0 -1
BITMAP
20
20
70
A8
A8
A8
70
20
20
ENDCHAR
STARTCHAR APL
ENCODING 9022
SWIDTH 480 0
DWIDTH 5 0
BBX 5 7 0 0
BITMAP
70
88
A8
D8
A8
88
70
ENDCHAR
STARTCHAR APL
ENCODING 9023
SWIDTH 480 0
DWIDTH 5 0
BBX 5 10 0 -2
BITMAP
08
08
10
10
20
F8
40
40
80
80
ENDCHAR
STARTCHAR APL
ENCODING 9024
SWIDTH 480 0
DWIDTH 5 0
BBX 5 10 0 -2
BITMAP
80
80
40
40
20
F8
10
10
08
08
ENDCHAR
STARTCHAR APL
ENCODING 9025
SWIDTH 480 0
DWIDTH 5 0
BBX 5 9 0 -1
BITMAP
F8
98
98
A8
A8
A8
C8
C8
F8
ENDCHAR
STARTCHAR APL
ENCODING 9026
SWIDTH 480 0
DWIDTH 5 0
BBX 5 9 0 -1
BITMAP
F8
C8
C8
A8
A8
A8
98
98
F8
ENDCHAR
STARTCHAR APL
ENCODING 9027
SWIDTH 480 0
DWIDTH 5 0
BBX 5 9 0 -1
BITMAP
F8
88
98
A8
C8
A8
98
88
F8
ENDCHAR
STARTCHAR APL
ENCODING 9028
SWIDTH 480 0
DWIDTH 5 0
BBX 5 9 0 -1
BITMAP
F8
88
C8
A8
98
A8
C8
88
F8
ENDCHAR
STARTCHAR APL
ENCODING 9029
SWIDTH 480 0
DWIDTH 5 0
BBX 6 7 0 0
BITMAP
10
10
50
FC
50
10
10
ENDCHAR
STARTCHAR APL
ENCODING 9030
SWIDTH 480 0
DWIDTH 5 0
BBX 6 7 0 0
BITMAP
20
20
28
FC
28
20
20
ENDCHAR
STARTCHAR APL
ENCODING 9031
SWIDTH 480 0
DWIDTH 5 0
BBX 5 9 0 -1
BITMAP
F8
88
A8
C8
F8
C8
A8
88
F8
ENDCHAR
STARTCHAR APL
ENCODING 9032
SWIDTH 480 0
DWIDTH 5 0
BBX 5 9 0 -1
BITMAP
F8
88
A8
98
F8
98
A8
88
F8
ENDCHAR
STARTCHAR APL
ENCODING 9033
SWIDTH 480 0
DWIDTH 5 0
BBX 5 10 0 -2
BITMAP
80
80
40
70
A8
A8
98
70
08
08
ENDCHAR
STARTCHAR APL
ENCODING 9034
SWIDTH 480 0
DWIDTH 5 0
BBX 5 9 0 -1
BITMAP
20
20
20
20
20
20
F8
00
F8
ENDCHAR
STARTCHAR APL
ENCODING 9035
SWIDTH 480 0
DWIDTH 5 0
BBX 5 9 0 -1
BITMAP
20
20
70
70
70
A8
A8
F8
20
ENDCHAR
STARTCHAR APL
ENCODING 9036
SWIDTH 480 0
DWIDTH 5 0
BBX 5 9 0 -1
BITMAP
F8
88
88
D8
D8
A8
A8
88
F8
ENDCHAR
STARTCHAR APL
ENCODING 9037
SWIDTH 480 0
DWIDTH 5 0
BBX 5 9 0 -1
BITMAP
F8
88
A8
A8
D8
D8
F8
88
F8
ENDCHAR
STARTCHAR APL
ENCODING 9038
SWIDTH 480 0
DWIDTH 5 0
BBX 5 9 0 -1
BITMAP
20
20
70
A8
A8
A8
70
20
F8
ENDCHAR
STARTCHAR APL
ENCODING 9039
SWIDTH 480 0
DWIDTH 5 0
BBX 5 6 0 0
BITMAP
20
70
20
F8
20
20
ENDCHAR
STARTCHAR INSERTION
ENCODING 9088
SWIDTH 480 0
DWIDTH 5 0
BBX 4 10 1 -1
BITMAP
70
90
90
B0
50
00
90
90
60
60
ENDCHAR
STARTCHAR HELM
ENCODING 9096
SWIDTH 480 0
DWIDTH 5 0
BBX 5 5 0 0
BITMAP
A8
70
F8
70
A8
ENDCHAR
STARTCHAR BROKEN
ENCODING 9099
SWIDTH 480 0
DWIDTH 5 0
BBX 5 5 0 0
BITMAP
D0
C8
28
88
70
ENDCHAR
STARTCHAR BLACK
ENCODING 9193
SWIDTH 480 0
DWIDTH 5 0
BBX 6 5 0 1
BITMAP
90
D8
FC
D8
90
ENDCHAR
STARTCHAR BLACK
ENCODING 9194
SWIDTH 480 0
DWIDTH 5 0
BBX 6 5 0 1
BITMAP
24
6C
FC
6C
24
ENDCHAR
STARTCHAR BLACK
ENCODING 9195
SWIDTH 480 0
DWIDTH 5 0
BBX 5 6 0 0
BITMAP
20
70
F8
20
70
F8
ENDCHAR
STARTCHAR BLACK
ENCODING 9196
SWIDTH 480 0
DWIDTH 5 0
BBX 5 6 0 0
BITMAP
F8
70
20
F8
70
20
ENDCHAR
STARTCHAR BLACK
ENCODING 9197
SWIDTH 480 0
DWIDTH 5 0
BBX 6 5 0 1
BITMAP
94
DC
FC
DC
94
ENDCHAR
STARTCHAR BLACK
ENCODING 9198
SWIDTH 480 0
DWIDTH 5 0
BBX 6 5 0 1
BITMAP
A4
EC
FC
EC
A4
ENDCHAR
STARTCHAR BLACK
ENCODING 9199
SWIDTH 480 0
DWIDTH 5 0
BBX 6 5 0 1
BITMAP
94
D4
F4
D4
94
ENDCHAR
STARTCHAR CIRCLED
ENCODING 9312
SWIDTH 480 0
DWIDTH 5 0
BBX 5 9 0 -1
BITMAP
70
88
A8
E8
A8
A8
F8
88
70
ENDCHAR
STARTCHAR CIRCLED
ENCODING 9313
SWIDTH 480 0
DWIDTH 5 0
BBX 5 9 0 -1
BITMAP
70
88
A8
D8
98
A8
F8
88
70
ENDCHAR
STARTCHAR CIRCLED
ENCODING 9314
SWIDTH 480 0
DWIDTH 5 0
BBX 5 9 0 -1
BITMAP
70
88
E8
98
A8
98
E8
88
70
ENDCHAR
STARTCHAR CIRCLED
ENCODING 9315
SWIDTH 480 0
DWIDTH 5 0
BBX 5 9 0 -1
BITMAP
70
88
C8
C8
E8
F8
A8
88
70
ENDCHAR
STARTCHAR CIRCLED
ENCODING 9316
SWIDTH 480 0
DWIDTH 5 0
BBX 5 9 0 -1
BITMAP
70
88
F8
C8
E8
98
E8
88
70
ENDCHAR
STARTCHAR CIRCLED
ENCODING 9317
SWIDTH 480 0
DWIDTH 5 0
BBX 5 9 0 -1
BITMAP
70
88
B8
C8
E8
D8
A8
88
70
ENDCHAR
STARTCHAR CIRCLED
ENCODING 9318
SWIDTH 480 0
DWIDTH 5 0
BBX 5 9 0 -1
BITMAP
70
88
F8
98
98
A8
A8
88
70
ENDCHAR
STARTCHAR CIRCLED
ENCODING 9319
SWIDTH 480 0
DWIDTH 5 0
BBX 5 9 0 -1
BITMAP
70
88
A8
D8
A8
D8
A8
88
70
ENDCHAR
ENDFONT
